<?xml version="1.0" standalone="no"?>
<!DOCTYPE svg PUBLIC "-//W3C//DTD SVG 1.1//EN" "http://www.w3.org/Graphics/SVG/1.1/DTD/svg11.dtd" >
<svg xmlns="http://www.w3.org/2000/svg">
<metadata>
This is a custom SVG webfont generated by Font Squirrel.
Copyright   : Copyright c 2011 UGR Design wwwugrdesigncomar  with Reserved Font Names Rosarivo Rosarivo Pro Rosarivo UGR
Designer    : Pablo Ugerman
Foundry     : Pablo Ugerman
</metadata>
<defs>
<font id="RosarivoRegular" horiz-adv-x="778" >
<font-face units-per-em="2048" ascent="1638" descent="-410" />
<missing-glyph horiz-adv-x="628" />
<glyph unicode=" "  horiz-adv-x="628" />
<glyph unicode="&#x09;" horiz-adv-x="628" />
<glyph unicode="&#xa0;" horiz-adv-x="628" />
<glyph unicode="!" horiz-adv-x="686" d="M164 113q76 78 158 116q84 -76 112 -155q-20 -29 -66 -64t-87 -51q-78 63 -117 154zM166 1425l8 27q86 31 252 131q31 0 31 -18l-103 -1166l-75 -8q0 68 -3.5 338t-3.5 309q0 344 -51 355l-49 8q0 2 -2 7t-3 9t-1 8z" />
<glyph unicode="&#x22;" horiz-adv-x="886" d="M205 1720q35 14 82 15q29 0 71 -15l-63 -546q-10 -4 -35 -5q-21 1 -37 5zM547 1720q35 14 82 15q27 0 69 -15l-61 -546q-12 -4 -37 -5q-19 1 -35 5z" />
<glyph unicode="#" horiz-adv-x="1171" d="M96 276q18 47 27 91h205l18 282q-82 -2 -231 -16q-18 8 -19 31q18 47 27 90h231l21 256q78 16 100 28l33 -20q-29 -141 -41 -264h276l19 256q74 16 100 28l33 -20q-6 -31 -41 -262q127 8 203 16q18 -8 18 -33q-10 -18 -26 -92h-205l-19 -278q82 2 232 16q18 -8 18 -33 q-10 -18 -26 -92h-232l-22 -299q-53 -8 -99 -27l-30 19q25 113 41 309h-279l-20 -301q-53 -8 -99 -27l-30 19q25 113 40 307q-76 0 -204 -14q-18 8 -19 30zM434 367h281l20 282h-276z" />
<glyph unicode="$" horiz-adv-x="960" d="M125 262q25 14 41 14q14 0 20 -4q4 -8 16.5 -46t25 -65.5t28.5 -45.5q61 -61 172 -74v401l-84 41q-199 94 -199 273q0 129 88.5 198.5t210.5 83.5v148q35 6 70 20q8 0 13 -3t7 -6l1 -3q-8 -102 -9 -152q139 -6 260 -53q-14 -49 -32 -229q-10 -8 -33 -8q-14 0 -31 4 q-6 69 -33 159q-39 39 -133 52v-371l68 -33q236 -115 235 -301q0 -125 -92 -205t-227 -96v-147q-31 -6 -68 -21l-22 12l8 154q-174 10 -262 47q-10 106 -39 256zM303 809q0 -51 38 -97t93 -73l10 -6v334q-66 -8 -103.5 -49t-37.5 -109zM508 41q70 8 114 51t44 119 q0 119 -158 192v-362z" />
<glyph unicode="%" horiz-adv-x="1353" d="M123 772q0 133 69.5 207t190.5 86q113 0 180.5 -84t67.5 -209q0 -260 -260 -291q-115 0 -181.5 82t-66.5 209zM207 793q0 -68 52 -118t134 -50q86 0 120 30.5t34 106.5q0 63 -52.5 110.5t-134.5 47.5q-86 0 -119.5 -27.5t-33.5 -99.5zM279 -25l337 500q47 68 182.5 283 t186.5 313q6 2 16 2q14 0 17 -6q25 -43 69 -92l-380 -557q-59 -86 -176 -269.5t-152 -261.5q-4 -2 -12 -2l-17 6q-24 33 -71 84zM723 178q0 131 69.5 205t190.5 86q113 0 180.5 -83t67.5 -208q0 -262 -258 -293q-117 0 -183.5 83t-66.5 210zM809 197q0 -66 52 -116t132 -50 q86 0 120 29.5t34 105.5q0 63 -52.5 111.5t-133.5 48.5q-86 0 -119 -28.5t-33 -100.5z" />
<glyph unicode="&#x26;" horiz-adv-x="1701" d="M72 379q0 154 74.5 263.5t213.5 223.5q-117 190 -116.5 329.5t101.5 216.5t261 95q115 0 205 -70.5t90 -172.5q0 -35 -15.5 -69t-40 -58.5t-47 -43t-42 -31.5t-21.5 -15l-39 34q72 74 72 166q0 84 -57.5 144.5t-145.5 60.5q-66 0 -109.5 -51t-43.5 -141.5t54 -200 t157.5 -229t174 -192.5t183.5 -179l57 -56q145 287 193 582q-61 12 -148 12q-8 16 -8 35q0 10 8 27q57 0 142.5 -2t103.5 -2q172 0 238 10q12 -20 12 -35l-4 -16q-63 -6 -115.5 -39t-95.5 -96.5t-67.5 -110.5t-60.5 -132t-48 -110q-35 -70 -92 -182q249 -237 460 -272 q47 -8 146 -9q4 -29 4 -38q0 -16 -2 -25q-78 -4 -150.5 -14.5t-114.5 -18.5t-53 -8q-23 0 -67.5 17.5t-133.5 72.5t-188 137q-78 -102 -174 -155.5t-243 -71.5q-215 0 -361.5 115.5t-146.5 304.5zM279 467q0 -70 18 -138.5t56 -132t108 -102.5t164 -39q170 0 309 185 q-360 332 -526 557q-74 -84 -101.5 -149.5t-27.5 -180.5z" />
<glyph unicode="'" horiz-adv-x="573" d="M205 1720q43 14 76 15q35 0 77 -15l-63 -546q-29 -4 -35 -5q-12 1 -37 5z" />
<glyph unicode="(" horiz-adv-x="694" d="M164 748q0 360 103.5 612t289.5 491q49 -1 55 -39q-276 -450 -276 -1060q0 -616 276 -1071q-8 -35 -55 -35q-186 240 -289.5 491.5t-103.5 610.5z" />
<glyph unicode=")" horiz-adv-x="694" d="M82 -319q276 455 276 1071q0 610 -276 1060q0 4 2 10.5t15.5 17.5t37.5 11q186 -240 289.5 -491.5t103.5 -611.5q0 -358 -103 -610.5t-290 -491.5q-20 0 -34.5 9t-17.5 17z" />
<glyph unicode="*" horiz-adv-x="825" d="M6 1286q0 14 4 23q162 14 332 82l-274 157q27 63 41 138l22 8q100 -139 246 -244v319q84 10 139 33l16 -16q-68 -150 -88 -334l277 160q55 -74 98 -107l-6 -22q-186 -23 -336 -90l277 -164q-35 -74 -47 -137l-19 -5q-106 143 -244 248v-319q-84 -10 -139 -33l-16 16 q61 137 90 336l-279 -155q-49 70 -94 106z" />
<glyph unicode="+" horiz-adv-x="1165" d="M121 500q14 41 26 98h375q0 199 -20 424q8 18 33 18q14 -8 31.5 -12t41 -8t33.5 -6v-416q199 0 385 18q20 -8 21 -32q-12 -25 -29 -99h-377q0 -240 16 -417q-8 -18 -28 -19q-18 6 -107 27v409q-197 0 -383 -16q-18 8 -18 31z" />
<glyph unicode="," horiz-adv-x="481" d="M109 113q80 86 159 116q37 -31 69 -76.5t40 -76.5q0 -72 -59.5 -179.5t-161.5 -205.5q-33 0 -43 30q106 154 106 246q-66 53 -110 146z" />
<glyph unicode="-" d="M96 465q14 41 27 98h293q131 0 248 19q18 -8 18 -31q-14 -41 -27 -98h-293q-130 -1 -247 -19q-18 8 -19 31z" />
<glyph unicode="." horiz-adv-x="483" d="M109 113q74 78 159 116q84 -80 111 -155q-18 -29 -65.5 -63t-86.5 -52q-80 68 -118 154z" />
<glyph unicode="/" horiz-adv-x="739" d="M27 -147l266 942q221 813 242 958q14 10 36 10q17 -14 101 -61l-264 -942q-221 -817 -244 -959q-14 -12 -35 -12q-25 20 -102 64z" />
<glyph unicode="0" horiz-adv-x="1210" d="M113 514q0 260 132 396.5t361 162.5q221 0 351 -158.5t130 -400.5q0 -258 -133 -393t-364 -162q-223 0 -350 154.5t-127 400.5zM215 557q0 -164 121 -294t295 -130q178 0 262 85t84 259q0 164 -119 291t-293 127q-184 0 -267 -80t-83 -258z" />
<glyph unicode="1" horiz-adv-x="679" d="M25 16l2 19q201 45 221 102q25 59 24 420q0 195 -4 293l-219 -29q-14 20 -14 47q0 16 4 25q178 57 246 92q49 25 147 102q16 -6 26.5 -17t13.5 -19l3 -9q-35 -82 -42 -166.5t-7 -324.5q0 -483 18 -485q57 -6 170 -7q6 -31 7 -32q0 -6 -3.5 -17.5t-3.5 -15.5q-59 0 -140 3 t-99 3q-193 0 -340 -16q-10 10 -10 32z" />
<glyph unicode="2" horiz-adv-x="1001" d="M51 33l246 237q6 6 51 47t74 69t74 78t72.5 92t48 95.5t20.5 100.5q0 86 -65.5 145t-155.5 59q-78 0 -193 -55q-25 -145 -28 -207q-16 -8 -31 -8q-16 0 -27 4q-4 66 -13 120t-17.5 79.5t-8.5 28.5q0 27 31 38q125 53 336 117q147 0 249.5 -67.5t102.5 -210.5 q0 -147 -180 -318l-365 -346h217q180 0 247 13.5t100 50.5q10 12 38 75q4 2 17 2q25 0 37 -12q-6 -37 -14.5 -79t-11.5 -63.5t-6 -47t-3 -52.5q-41 -25 -205 -24q-45 0 -182 3t-148 3q-205 0 -295 -10q-12 16 -12 43z" />
<glyph unicode="3" horiz-adv-x="976" d="M57 920q0 20 31 32q82 43 379 121q358 0 358 -244q0 -59 -38.5 -121.5t-174.5 -193.5l-77 -74q293 -188 292 -430q0 -211 -178 -350t-551 -272q-16 16 -16 53q287 129 426 244.5t139 265.5q0 131 -87 225t-241 182l166 152q162 145 162 268q0 174 -231 174 q-86 0 -234 -53q-20 -127 -26 -209q-16 -8 -35 -8l-25 6q-6 76 -15 131t-16 78z" />
<glyph unicode="4" horiz-adv-x="1071" d="M-25 33q51 53 84 98l443 588q61 80 123.5 170t95.5 140l33 50q33 -4 57 -20q-27 -119 -27 -535v-395q145 0 172 37q27 49 41 90q10 4 21 4q18 0 33 -14q-8 -49 -23.5 -120t-17.5 -112q-33 -18 -226 -22q0 -72 11 -531q-66 -4 -154 -65q-23 0 -41 12q33 150 33 397v189 q-209 6 -346 6q-219 0 -301 -10q-10 12 -11 43zM162 123h471v631z" />
<glyph unicode="5" horiz-adv-x="968" d="M82 -582q260 154 389 286t129 304q0 150 -141.5 271.5t-354.5 203.5l91 566q240 -10 403 -11q176 0 211 35q10 10 22.5 33.5t18.5 34.5q29 0 49 -11q-29 -143 -31 -221q-44 -30 -194 -30q-188 0 -426 8l-35 -254q252 -100 413.5 -239.5t161.5 -311.5q0 -125 -48 -227.5 t-149.5 -189.5t-209 -151.5t-275.5 -146.5q-10 4 -16 17.5t-7 23.5z" />
<glyph unicode="6" horiz-adv-x="1179" d="M137 555q0 190 101.5 393t296.5 330q197 129 430 188q16 -23 16 -51q-258 -106 -406 -233q-240 -209 -239 -623q0 -104 16.5 -193.5t51 -165t97 -118.5t146.5 -43q125 0 192.5 92t67.5 221q0 141 -79.5 259t-211.5 118q-74 0 -143 -39q-29 14 -29 53q109 66 250 66 q164 0 276.5 -114.5t112.5 -266.5q0 -207 -135 -321.5t-356 -147.5q-207 0 -331 166t-124 430z" />
<glyph unicode="7" horiz-adv-x="1030" d="M27 772q47 262 47 285q154 -14 542 -15q283 0 406 13q8 -6 13 -15.5t6 -16.5l1 -7q-176 -231 -376 -625q-240 -479 -402 -987q-8 -4 -18 -4t-19 4q-55 57 -139 70q197 451 447 893q154 266 315 516q-186 16 -391 16q-303 0 -334 -49q-29 -53 -43 -88q-6 -2 -16 -2 q-20 0 -39 12z" />
<glyph unicode="8" horiz-adv-x="1015" d="M74 295q0 133 93 232.5t259 195.5q-154 92 -237 172t-83 180q0 168 111 257t289 116q139 0 256 -89t117 -214q0 -109 -65.5 -184.5t-217.5 -180.5q160 -98 252 -194.5t92 -218.5q0 -180 -126 -279.5t-322 -128.5q-156 0 -287 97.5t-131 238.5zM244 346q0 -129 79.5 -221 t198.5 -92q117 0 185.5 76.5t68.5 191.5q0 111 -82 199t-227 182q-223 -162 -223 -336zM248 1161q0 -147 307 -340q168 131 168 283q0 115 -71.5 196.5t-176.5 81.5q-102 0 -164.5 -69.5t-62.5 -151.5z" />
<glyph unicode="9" horiz-adv-x="1179" d="M96 575q0 217 136.5 340t357.5 158q207 0 329.5 -179t122.5 -462q0 -201 -85 -419t-238 -365q-193 -182 -414 -260q-20 23 -20 53q133 74 217 138.5t164 168.5q178 229 178 680q0 154 -28 275.5t-100.5 205.5t-180.5 84q-125 0 -192 -98t-67 -238q0 -147 78 -272 t209 -125q63 0 148 37q27 -14 26 -51q-104 -66 -248 -66q-166 0 -279.5 119t-113.5 276z" />
<glyph unicode=":" horiz-adv-x="483" d="M109 113q74 78 159 116q84 -80 111 -155q-18 -29 -65.5 -63t-86.5 -52q-80 68 -118 154zM109 817q74 78 159 117q84 -80 111 -156q-18 -29 -65.5 -62.5t-86.5 -51.5q-80 68 -118 153z" />
<glyph unicode=";" horiz-adv-x="499" d="M109 113q80 86 159 116q37 -31 69 -76.5t40 -76.5q0 -72 -59.5 -179.5t-161.5 -205.5q-33 0 -43 30q106 154 106 246q-66 53 -110 146zM125 817q74 78 160 117q84 -80 110 -156q-18 -29 -65 -62.5t-86 -51.5q-80 68 -119 153z" />
<glyph unicode="&#x3c;" horiz-adv-x="1013" d="M82 516v66l459 196q242 102 360 164q16 0 23 -22q0 -66 8 -109l-647 -262l647 -262q-8 -43 -8 -109q-6 -21 -23 -22q-118 61 -360 163z" />
<glyph unicode="=" horiz-adv-x="1144" d="M82 309q9 19 27 109h458q276 0 475 18q20 -8 21 -33q-6 -12 -29 -108h-463q-270 0 -471 -16q-18 8 -18 30zM82 674q9 18 27 110h458q276 0 475 19q20 -8 21 -33q-6 -12 -29 -108h-463q-270 0 -471 -17q-18 8 -18 29z" />
<glyph unicode="&#x3e;" horiz-adv-x="1013" d="M82 287l647 262l-647 262q8 43 8 109q6 21 23 22q119 -61 360 -164l459 -196v-66l-459 -197q-283 -125 -360 -163q-16 0 -23 22q0 66 -8 109z" />
<glyph unicode="?" horiz-adv-x="851" d="M139 1411q0 12 9.5 91t9.5 155q18 6 30 6q14 0 33 -8q0 -45 10 -74q43 -29 130.5 -59.5t115.5 -44.5q266 -129 266 -418q0 -25 -8 -98q-59 -139 -134 -207t-210 -99q-12 -35 -47 -254q-14 -8 -43 -8q-18 0 -37 6q-6 98 -14 175t-14.5 114t-6.5 47q0 4 1 7t4.5 5.5 t6.5 2.5t10 1t13 3q137 23 249 70.5t126 117.5q10 41 10 90q0 217 -299 297q-20 6 -62 16.5t-61.5 16.5t-43 14t-34 16.5t-10.5 18.5zM145 113q68 76 158 116q82 -78 113 -155q-20 -29 -67.5 -64t-86.5 -51q-78 63 -117 154z" />
<glyph unicode="@" horiz-adv-x="1851" d="M131 377q0 240 128 448.5t342 329.5t456 121q309 0 499.5 -182.5t190.5 -487.5q0 -106 -22.5 -199.5t-71.5 -177.5t-137.5 -147.5t-206.5 -95.5q-63 0 -106.5 34.5t-64 105.5t-29.5 136.5t-13 165.5q-162 -328 -312 -403q-76 14 -136 92t-60 192q0 133 44 240.5 t102.5 167t129 99.5t111.5 53.5t63 15.5q100 8 123 16l94 33q18 0 23 -10q-23 -322 -23 -586q0 -104 33 -189.5t72 -85.5q66 0 140.5 162t74.5 383q0 281 -146.5 438.5t-418.5 157.5q-197 0 -356.5 -121.5t-243.5 -309t-84 -394.5q0 -315 164.5 -505.5t465.5 -190.5 q187 0 347 49q23 -18 22 -62q-193 -66 -377 -65q-375 0 -596 203.5t-221 568.5zM760 362q0 -78 22.5 -127t53.5 -49q76 0 171 164t107 324l10 137q-92 0 -157 -8q-72 -8 -139.5 -131t-67.5 -310z" />
<glyph unicode="A" horiz-adv-x="1529" d="M-14 18l4 17q104 29 152 90t145 278l506 1147h32l471 -1204q2 -6 33 -76.5t57.5 -128t40.5 -78.5q57 -6 107 -6q6 -14 6 -32.5t-6 -30.5q-37 0 -133 3t-107 3q-156 0 -272 -16q-12 16 -12 34l4 17q80 18 111.5 41.5t31.5 60.5q0 21 -29 107l-120 307q-111 6 -265 6 q-66 0 -157.5 -3t-134.5 -3l-52 -131q-102 -254 -102 -361q47 -2 143 -2q4 -14 4 -30q0 -20 -4 -33q-45 0 -123.5 3t-93.5 3q-129 0 -225 -16q-12 16 -12 34zM481 631q6 0 102.5 -4t159.5 -4q141 0 238 6l-238 626z" />
<glyph unicode="B" horiz-adv-x="1394" d="M72 18l2 17q53 12 88 30.5t52 45t23.5 47t10.5 55.5q24 179 24 478v24q0 326 -8 491q-10 195 -28 201q-39 10 -136 10q-4 14 -4 32.5t4 31.5q45 0 172 -3t140 -3h315q195 0 314.5 -86t119.5 -252q0 -133 -90 -225t-186 -117q168 -31 261 -131.5t93 -262.5 q0 -188 -165 -294.5t-410 -106.5q-449 0 -582 -16q-10 12 -10 34zM449 352q0 -193 12 -270q74 -8 172 -8q211 0 314.5 71.5t103.5 229.5q0 164 -102.5 270.5t-266.5 106.5h-86q-12 14 -12 34l12 41h59q328 0 328 285q0 141 -86 216t-244 75q-123 0 -180 -8q-4 -16 -14 -133 q-10 -140 -10 -500v-410z" />
<glyph unicode="C" horiz-adv-x="1556" d="M131 721q0 348 221 567t566 219q272 0 483 -67q10 -6 10 -21q0 -4 -7 -59t-16.5 -136t-11.5 -143q-31 -6 -35 -6q-20 0 -45 8q-18 141 -36 211q-53 57 -149.5 98.5t-219.5 41.5q-233 0 -386 -164t-153 -449q0 -201 66.5 -377t199 -289.5t300.5 -113.5q196 0 337 98 q20 35 38 74t35.5 84t23.5 61q49 0 75 -20q-29 -147 -43 -297q-2 -23 -26 -27q-197 -55 -467 -55q-352 0 -556 220t-204 542z" />
<glyph unicode="D" horiz-adv-x="1687" d="M41 16l2 19q72 14 116 33.5t62.5 47t22.5 45t8 52.5q18 211 20 508v237q0 436 -34 449q-59 10 -142 10q-6 14 -6 32.5t6 31.5q51 0 132 -3t98 -3h196q2 0 49 2t106.5 4t92.5 2q383 0 584.5 -206t201.5 -521q0 -334 -221 -549t-565 -215q-70 0 -176.5 4t-126.5 4 q-279 0 -416 -16q-10 12 -10 32zM453 352q0 -182 8 -243q137 -35 287 -35q299 0 443 164.5t144 472.5q0 135 -40 255.5t-120.5 220t-221 158t-322.5 58.5q-98 0 -154 -8q-24 -87 -24 -375v-23v-645z" />
<glyph unicode="E" horiz-adv-x="1329" d="M72 18l2 17q53 12 88 30.5t52 45t23.5 47t10.5 55.5q24 179 24 478v24q0 326 -8 491q-10 195 -28 201q-39 10 -136 10q-4 14 -4 32.5t4 31.5q45 0 172 -3t140 -3h235q94 0 280.5 7t202.5 7q35 0 35 -23q0 -2 -7 -49t-15 -127t-13 -157q-25 -12 -47 -13q-16 0 -32 8 q-25 186 -37 232q-186 43 -393 43q-90 0 -148 -8q-24 -126 -24 -550v-34q33 -8 172 -8q143 0 225 10q57 6 89 30.5t48 100.5q43 0 64 -12q-20 -117 -21 -172q0 -14 2 -73.5t2 -104.5q-14 -10 -37 -11l-28 4l-23 136q-111 18 -313 18q-92 0 -180 -10v-367q0 -193 12 -270 q63 -8 145 -8q211 0 418 55q14 23 28.5 53.5t22.5 52t22.5 61.5t18.5 54q12 2 29 2q25 0 49 -18q-31 -145 -45 -301q-2 -25 -27 -27q-90 -14 -239 -14q-80 0 -205.5 4t-145.5 4h-108q-238 0 -342 -16q-10 12 -10 34z" />
<glyph unicode="F" horiz-adv-x="1292" d="M72 18l2 17q53 12 88 30.5t52 45t23.5 47t10.5 55.5q24 179 24 478v24q0 246 -8 491q-6 193 -28 201q-39 10 -136 10q-4 14 -4 32.5t4 31.5q45 0 172 -3t140 -3h262q94 0 280.5 7t202.5 7q37 0 37 -23q0 -2 -7 -49t-16.5 -127t-13.5 -157q-25 -12 -45 -13q-18 0 -33 8 q-23 170 -39 232q-186 43 -393 43q-106 0 -174 -8q-12 -47 -16 -131q-8 -164 -8 -476q49 -8 172 -8q127 0 225 13q57 4 91 29.5t46 103.5q39 0 64 -15q-20 -117 -21 -174q0 -14 2 -73.5t2 -104.5q-29 -8 -41 -8l-24 4l-23 133q-74 18 -313 19q-123 -1 -180 -11v-237 q0 -211 16 -383q94 -12 256 -13q8 -20 8 -38q0 -20 -8 -31q-70 0 -200 3t-154 3q-156 0 -285 -16q-10 12 -10 34z" />
<glyph unicode="G" horiz-adv-x="1673" d="M131 721q0 348 221 567t566 219q279 0 493 -59q14 -4 14 -23q0 -2 -1 -18t-4 -46t-5 -68t-3 -92t-1 -111q-14 -8 -43 -9q-20 0 -35 6q-37 166 -53 207q-162 140 -389 140q-233 0 -386 -164t-153 -449q0 -201 66.5 -377t199 -289.5t300.5 -113.5q182 0 342 74v125 q0 154 -13 278q-104 12 -233 12q-8 14 -8 33l8 35q61 0 182 -3t145 -3q96 0 189 16q8 -20 8 -35l-4 -24q-78 -33 -86 -133q-14 -139 -14 -393q-123 0 -285 -32t-258 -32q-352 0 -556 220t-204 542z" />
<glyph unicode="H" horiz-adv-x="1718" d="M72 18l2 17q53 12 88 30.5t52 45t23.5 47t10.5 55.5q24 179 24 545v30v342q0 279 -24 281q-37 6 -139 6q-4 14 -4.5 32.5t4.5 31.5q45 0 120.5 -3t89.5 -3q190 0 293 16q8 -16 9 -51q-59 -14 -92 -46t-41.5 -58.5t-14.5 -73.5q-18 -147 -24 -451q205 -8 438 -8 q90 0 222 4t161 4v319q0 279 -25 281q-39 6 -139 6q-6 14 -6 32.5t6 31.5q45 0 121 -3t90 -3q190 0 291 16q8 -18 8 -51q-59 -16 -92 -47t-42 -58.5t-14 -72.5q-24 -209 -24 -464v-20v-434q0 -279 24 -281q39 -6 152 -6q4 -14 4 -32.5t-4 -30.5q-45 0 -123 3t-90 3 q-219 0 -356 -16q-10 12 -11 34l2 17q123 29 159 63.5t44 114.5q23 209 25 508q-57 0 -180 5t-203 5q-172 0 -438 -10v-377q0 -279 24 -281q37 -6 139 -6q4 -14 4 -32.5t-4 -30.5q-45 0 -116.5 3t-85.5 3q-199 0 -328 -16q-10 12 -10 34z" />
<glyph unicode="I" horiz-adv-x="729" d="M47 18l2 17q66 14 106 29.5t58 39t24.5 42t10.5 57.5q24 154 24 491v27v229q0 457 -34 461q-47 6 -138 6q-4 14 -4 32.5t4 31.5q51 0 150.5 -3t116 -3t114 3t148.5 3q4 -12 4 -31l-4 -33q-90 0 -137 -6q-35 -4 -35 -461v-334q0 -195 9 -372.5t23 -180.5q53 -6 181 -6 q4 -14 4 -32.5t-4 -30.5q-57 0 -149.5 3t-110.5 3q-215 0 -353 -16q-10 10 -10 34z" />
<glyph unicode="J" horiz-adv-x="722" d="M-10 -518l114 117q119 121 151 287.5t32 455.5v545q0 520 -33 524q-55 6 -174 6q-6 14 -6 32.5t6 31.5q57 0 147 -3t109 -3q172 0 262 16q10 -12 10 -35l-2 -16q-90 -16 -117 -178q-20 -93 -20 -453v-637q0 -250 -42 -356.5t-196 -225.5l-204 -155q-37 8 -37 47z" />
<glyph unicode="K" horiz-adv-x="1447" d="M41 18l2 17q123 29 159 63.5t46 114.5q24 227 24 487v21v237q0 449 -34 453q-47 6 -142 6q-6 14 -6 32.5t6 31.5q51 0 132 -3t98 -3q190 0 288 16q8 -10 9 -51q-72 -10 -101.5 -50t-44.5 -102q-20 -106 -20 -479v-377q0 -236 12 -364q55 -10 178 -11q6 -14 6 -32 q0 -4 -3 -15.5t-3 -15.5q-53 0 -153.5 3t-118.5 3q-203 0 -324 -16q-10 12 -10 34zM522 821l266 252q186 174 259 322q-37 20 -160 24q-2 8 -2 23l8 41q207 -8 272 -8q23 0 146 10q16 -14 16 -51q-123 -76 -213 -156l-418 -369q166 -264 287 -448q137 -211 213 -299t131 -94 q35 -4 125 -5q6 -12 6 -38q0 -18 -2 -25q-78 -4 -153.5 -14.5t-119.5 -18.5t-55 -8q-37 0 -164.5 183.5t-276 420t-165.5 258.5z" />
<glyph unicode="L" horiz-adv-x="1220" d="M72 18l2 17q53 12 88 30.5t52 45t23.5 47t10.5 55.5q22 163 22 475v27v413q0 281 -26 283q-39 6 -123 6q-6 14 -6 32.5t6 31.5q43 0 112.5 -3t83.5 -3q188 0 291 16q12 -16 13 -33l-5 -18q-84 -23 -110.5 -56.5t-32.5 -97.5q-24 -242 -24 -524v-23v-387q0 -193 12 -270 q74 -8 172 -8q211 0 418 55q20 29 35.5 63.5t34 88t24.5 69.5q10 2 26 2q25 0 50 -18q-8 -43 -43 -301q-2 -16 -7.5 -20.5t-21.5 -6.5q-86 -14 -240 -14q-80 0 -204.5 4t-145.5 4h-135q-231 0 -342 -16q-10 12 -10 34z" />
<glyph unicode="M" horiz-adv-x="2078" d="M76 1460q0 20 6 33q82 0 192.5 4t135.5 4q14 0 43.5 -30.5t83 -108.5t116.5 -191q84 -152 181.5 -362.5t163 -364t73.5 -168.5q27 59 252 535.5t297 663.5q207 0 330 18q10 -18 10 -51q-102 -23 -137 -68t-39 -112q-4 -35 -4 -150q0 -168 14 -541q12 -303 41 -508 q39 -6 164 -6q6 -14 6 -32.5t-6 -30.5q-45 0 -122 3t-91 3q-221 0 -359 -16q-10 12 -10 34l2 17q123 29 156 61.5t39 116.5q6 129 6 195q0 166 -12 403l-17 336q-94 -174 -293.5 -592t-259.5 -596h-57q-399 903 -512 1100l-86 147q-8 -254 -8 -684q0 -301 24 -459 q45 -6 160 -6q6 -16 6 -34q0 -20 -6 -29q-51 0 -133 3t-98 3q-141 0 -238 -16q-10 12 -10 34l2 17q100 23 134 65.5t44 112.5q49 350 57 1104q-55 70 -120 98q-8 2 -115 17q0 2 -3 12t-3 16z" />
<glyph unicode="N" horiz-adv-x="1761" d="M59 18l4 17q53 12 88 30.5t52.5 44t25 48t11.5 55.5q37 266 47 1124q-51 55 -90 71.5t-125 23.5q-6 12 -6 32q0 18 6 29q82 0 199.5 4t136.5 4q61 0 413 -422q201 -238 588 -757q-6 160 -14 671q-6 309 -25 418q-45 6 -166 6q-8 16 -8 35q0 16 6 29q51 0 133 -3t99 -3 q141 0 237 16q10 -12 10 -35l-2 -16q-100 -23 -133 -64t-39 -114q-26 -411 -26 -1232v-61l-49 -20l-46 57q-391 516 -765 979q-147 180 -269 291q0 -276 2 -754q0 -285 25 -459q47 -6 162 -6q6 -16 6 -34q0 -14 -6 -29q-51 0 -133 3t-99 3q-141 0 -237 -16q-12 16 -13 34z " />
<glyph unicode="O" horiz-adv-x="1726" d="M131 731q0 143 40 263t100.5 198t140.5 138.5t153.5 93t145 53t110.5 25.5t56 5q297 0 507.5 -226t210.5 -550q0 -143 -39.5 -263t-100 -196.5t-140.5 -137t-152.5 -92.5t-145.5 -52.5t-111 -25.5t-54 -5q-299 0 -510 222t-211 550zM338 844q0 -190 70.5 -367.5 t205.5 -294t301 -116.5q231 0 351 156.5t120 402.5q0 190 -68.5 366t-201.5 294t-299 118q-231 0 -355 -161t-124 -398z" />
<glyph unicode="P" horiz-adv-x="1345" d="M72 18l2 17q53 12 88 30.5t52 45t23.5 47t10.5 55.5q24 179 24 478v24q0 317 -8 483q-10 203 -28 209q-39 10 -136 10q-4 14 -4 32.5t4 31.5q45 0 172 -3t140 -3h262q250 0 393 -106.5t143 -334.5q0 -225 -153.5 -339.5t-401.5 -114.5q-75 0 -114 2q-10 12 -11 34l11 41 q27 -2 106 -2q164 0 273.5 97.5t109.5 255.5q0 164 -97 279.5t-253 115.5q-131 0 -207 -8q-12 -35 -16 -133q-8 -139 -8 -658v-252q0 -168 10 -276q96 -12 262 -13q8 -20 8 -38q0 -20 -8 -31q-70 0 -200 3t-154 3q-156 0 -285 -16q-10 12 -10 34z" />
<glyph unicode="Q" horiz-adv-x="1726" d="M131 731q0 143 40 263t100.5 198t140.5 138.5t153.5 93t145 53t110.5 25.5t56 5q297 0 507.5 -226t210.5 -550q0 -479 -421 -682q33 -43 98 -121q61 -70 109.5 -115.5t94.5 -74.5t75.5 -42t80.5 -34q55 0 162 25q23 -20 23 -62q-23 -6 -102 -32.5t-142.5 -46t-79.5 -19.5 q-113 0 -403 319q-39 41 -113 136q-92 -23 -125 -23q-299 0 -510 222t-211 550zM338 844q0 -190 70.5 -367.5t205.5 -294t301 -116.5q231 0 351 156.5t120 402.5q0 190 -68.5 366t-201.5 294t-299 118q-231 0 -355 -161t-124 -398z" />
<glyph unicode="R" horiz-adv-x="1441" d="M72 18l2 17q53 12 88 30.5t52 45t23.5 47t10.5 55.5q24 179 24 478v24q0 322 -8 487q-10 199 -28 205q-39 10 -136 10q-8 14 -8 33q0 6 8 31q45 0 172.5 -3t139.5 -3h243q231 0 364.5 -99.5t133.5 -308.5q0 -158 -83 -259t-226 -142q72 -125 155 -248 q131 -197 198 -271.5t122 -83.5q35 -6 129 -6q4 -16 4 -32q0 -14 -4 -31q-78 -4 -152.5 -12.5t-118.5 -15.5t-55 -7q-20 0 -66 52t-107.5 145.5t-112 173.5t-112.5 183t-77 126q-131 0 -203 8v-305q0 -123 15 -270q66 -14 180 -15q6 -16 6 -34q0 -20 -6 -29q-53 0 -153.5 3 t-118.5 3q-156 0 -285 -16q-10 12 -10 34zM444 721q74 -6 187 -6q150 0 247 90t97 235q0 156 -85 262.5t-228 106.5q-139 0 -195 -8q-6 -25 -14 -123q-8 -100 -9 -557z" />
<glyph unicode="S" horiz-adv-x="1308" d="M137 391q37 18 60 19q16 0 26 -2q57 -143 107 -218q43 -45 75.5 -72.5t107.5 -56t167 -28.5q121 0 207 73.5t86 188.5q0 41 -8.5 77t-33 66.5t-39.5 51t-58 48t-59.5 38t-71 39t-64.5 34.5q-74 41 -102.5 57.5t-88 52.5t-84 57.5t-63.5 58t-54.5 68.5t-28.5 75t-13 90 q0 188 157.5 293.5t380.5 105.5q92 0 205 -24.5t174 -50.5q-18 -72 -35 -299q-20 -10 -40 -11q-25 0 -41 8q-2 25 -25 112t-33 110q-137 88 -262 88q-129 0 -207 -70t-78 -188q0 -92 84 -170t271 -168q84 -41 145.5 -80t129 -97.5t104 -135t36.5 -164.5q0 -190 -160.5 -299 t-377.5 -109q-117 0 -244 22.5t-182 45.5q-20 160 -70 364z" />
<glyph unicode="T" horiz-adv-x="1398" d="M14 1149q8 53 16.5 161.5t16.5 155.5q0 23 35 23q14 0 151.5 -7t208.5 -7h502q80 0 229.5 7t163.5 7q37 0 37 -23q-33 -180 -33 -329q-16 -8 -45 -9q-20 0 -34 9q-37 203 -41 221q-102 45 -281 45q-80 0 -129 -10q-6 -18 -14 -131q-10 -188 -11 -428v-367q0 -227 33 -395 q94 -14 213 -15q6 -16 6 -34q0 -20 -6 -29q-70 0 -190.5 3t-145.5 3q-221 0 -366 -16q-10 12 -11 34l3 17q141 23 186 58.5t59 117.5q29 152 29 504q0 360 -12 547q-4 96 -17 131q-51 10 -125 10q-172 0 -268 -45l-90 -225q-47 0 -70 16z" />
<glyph unicode="U" horiz-adv-x="1697" d="M96 1449.5q0 18.5 4 31.5q45 0 115 -3t82 -3q217 0 328 16q12 -16 12 -35l-4 -16q-53 -12 -87 -26.5t-50.5 -36t-21.5 -40t-9 -51.5q-25 -240 -25 -680q0 -264 106.5 -411.5t332.5 -147.5q268 0 371.5 144.5t103.5 441.5v254q0 373 -21 524q-47 6 -176 6q-4 16 -4 35 q0 20 4 29q51 0 138 -3t104 -3q156 0 239 16q10 -12 11 -35l-2 -16q-158 -35 -172 -213q-23 -264 -23 -645q0 -301 -148.5 -462t-441.5 -161q-156 0 -271.5 39t-180 98.5t-103.5 145.5t-50 162.5t-11 166.5v314q0 166 -19 526q-39 6 -127 6q-4 14 -4 32.5z" />
<glyph unicode="V" horiz-adv-x="1656" d="M6 1458q0 14 10 33q131 -16 328 -16q147 0 277 6q4 -12 4 -31l-4 -33q-119 0 -168 -2q0 -78 50 -251t118 -337l249 -606l275 606q82 182 141.5 355.5t59.5 226.5q-37 8 -156 8q-4 14 -4 32.5t4 31.5q135 -6 213 -6q135 0 237 16q12 -12 13 -35l-4 -16q-80 -25 -127 -72 q-16 -16 -35 -39.5t-41.5 -62.5t-37.5 -68t-43 -88t-40 -86t-46 -101.5t-44 -95.5l-414 -907h-35l-442 1063q-125 311 -197 393q-31 35 -139 64q-2 10 -2 18z" />
<glyph unicode="W" horiz-adv-x="2277" d="M0 1456q0 25 10 35q131 -16 328 -16q104 0 274 6q4 -8 4 -29l-4 -35q-119 0 -168 -2q12 -176 170 -588l238 -606l276 557l-81 205q-4 10 -31 75.5t-48.5 116t-51 112t-50.5 91.5q-25 35 -96 54q-2 4 -2 16q0 20 8 35q98 -8 275 -8q10 0 92 -1t121 -1q45 0 120.5 1t79.5 1 q102 0 181 8q10 -12 10 -39l-2 -12q-49 -16 -74 -54q-41 -53 -283 -495l269 -662l239 606q172 432 195 582q-39 8 -156 8q-6 10 -6 31q0 18 6 33q135 -6 213 -6q109 0 211 16q10 -12 10 -35l-2 -16q-55 -20 -96 -62q-39 -41 -100.5 -155.5t-93.5 -190.5l-469 -1112h-35 l-312 760l-366 -760h-35l-430 1063q-121 307 -193 391q-33 37 -143 66q-2 8 -2 16zM1106 1411q8 -127 145 -450q170 381 183 450q-92 6 -166 6z" />
<glyph unicode="X" horiz-adv-x="1521" d="M2 35q57 16 113 69q90 86 293 332l239 291q-25 43 -87 151.5t-103 178.5q-113 188 -205 284q-49 51 -88 67.5t-133 23.5q-6 12 -6 32q0 16 6 29q68 0 185.5 4t137.5 4q12 0 48 -35.5t94.5 -115.5t119.5 -181q35 -59 96.5 -165.5t84.5 -143.5l77 96q12 16 50.5 62.5 t51.5 63t43 55.5t45 62.5t37.5 60t41 71.5t37.5 76q-100 4 -191 4q-8 16 -8 37q0 16 8 27h209q143 0 283 16q10 -12 10 -33l-2 -22q-80 -23 -163.5 -101t-233.5 -256l-250 -299q82 -150 217 -368q205 -332 334 -346q35 -2 123 -3q6 -14 6 -36q0 -16 -4 -27 q-72 -4 -148 -14.5t-123 -18.5t-57 -8q-31 0 -110 88t-181 254q-115 180 -209 346l-106 -139q-207 -270 -281 -440q100 -4 178 -5q4 -16 4 -36q0 -18 -4 -27h-209q-119 0 -258 -16q-12 18 -12 51z" />
<glyph unicode="Y" horiz-adv-x="1480" d="M0 1464q0 23 6 29q68 0 189.5 4t142 4t105.5 -112.5t192.5 -304t165.5 -363.5q31 53 92 158.5t93 162t73 133t63.5 133t32.5 101.5q-43 8 -166 8q-6 14 -6 32.5t6 31.5q135 -6 266 -6q119 0 213 16q12 -20 13 -35l-4 -16q-55 -16 -127 -70q-92 -66 -274.5 -346.5 t-209.5 -382.5q-16 -43 -16 -299q0 -131 20 -270q84 -14 236 -15q6 -14 6 -32q0 -4 -3 -15.5t-3 -15.5q-63 0 -182 3t-144 3q-238 0 -393 -16q-10 12 -10 34l2 17q106 16 163.5 40.5t76 51.5t28.5 76q14 72 15 168q0 158 -29 270q-29 111 -167 344.5t-251 355.5 q-45 51 -85 68.5t-124 22.5q-6 12 -6 32z" />
<glyph unicode="Z" horiz-adv-x="1509" d="M84 33q66 68 113 133q524 707 850 1229h-246q-326 0 -500 -49q-14 -49 -39 -209q-14 -8 -43 -9q-12 0 -37 5q-6 147 -35 333q0 23 35 23q18 0 233.5 -7t340.5 -7h127q260 0 463 26q16 -20 16 -53q-23 -16 -86 -98q-162 -215 -421 -592t-452 -676h205q154 0 346.5 26.5 t268.5 53.5q49 66 114 200q45 0 78 -16q-39 -156 -63 -313q-2 -25 -27 -27q-51 -8 -287 -8q-115 0 -232 1t-144 1q-375 0 -564 -25q-14 25 -14 58z" />
<glyph unicode="[" horiz-adv-x="837" d="M313 -385q23 199 23 907v344q0 707 -23 906q8 20 31 20q170 -68 367 -96q8 -14 8 -31q0 -8 -8 -25q-100 -8 -148 -12q-41 -4 -61.5 -27.5t-23.5 -50t-5 -84.5q-4 -108 -4 -567v-410q0 -455 6 -589q2 -47 6 -71t23.5 -43t58.5 -26l148 -14q8 -16 8 -27l-8 -28 q-205 -29 -367 -94z" />
<glyph unicode="\" horiz-adv-x="731" d="M18 1702q76 37 99 57q6 2 16 2l23 -10q36 -239 243 -958l265 -943q-10 -6 -31 -18t-37 -22.5t-31 -20.5q-6 -2 -14 -2l-25 10q-35 242 -241 959z" />
<glyph unicode="]" horiz-adv-x="837" d="M121 -280.5q0 16.5 8 26.5q100 6 147 14q39 6 58.5 26.5t22.5 42t5 71.5q7 134 7 589v410q0 457 -2 567q-2 55 -6.5 82t-24 50.5t-60.5 29.5l-147 12q-8 10 -8 25l8 31q195 29 365 96l30 -20q-23 -199 -22 -906v-344q0 -709 22 -907q-8 -18 -30 -18q-162 66 -365 94 q-8 12 -8 28.5z" />
<glyph unicode="^" horiz-adv-x="1138" d="M82 748q324 737 457 1005h61q133 -268 457 -1005q-35 -35 -84 -35l-398 819l-409 -819q-49 0 -84 35z" />
<glyph unicode="_" horiz-adv-x="1161" d="M2 -186q17 41 29 98h549q332 0 565 20q18 -8 18 -32q-6 -12 -26 -99h-555q-328 0 -559 -16q-20 8 -21 29z" />
<glyph unicode="`" horiz-adv-x="1206" d="M408 1427q29 72 114 105q125 -178 283 -377q-8 -35 -45 -35z" />
<glyph unicode="a" horiz-adv-x="1009" d="M96 236q0 59 27 107t63 67q152 76 451 133v194q0 113 -36 168.5t-95 55.5q-41 0 -98.5 -17.5t-77.5 -60.5q-27 -55 -27 -146q0 -8 -27.5 -17t-60.5 -9q-51 0 -66.5 19.5t-15.5 57.5q0 74 107 160q25 16 144.5 55t137.5 39q147 0 217 -86t70 -211q0 -6 -3 -204.5 t-3 -294.5q0 -150 96 -150q8 0 35 1t39 1q8 -10 8 -32l-4 -23q-158 -29 -225 -84q-45 12 -77 56t-36 94q-164 -100 -326 -150q-70 0 -143.5 79t-73.5 198zM279 246q0 -49 39 -106.5t92 -57.5q47 0 112.5 35t108.5 73q6 121 6 279q-172 -23 -303 -98q-55 -27 -55 -125z" />
<glyph unicode="b" horiz-adv-x="1206" d="M23 1669l4 27q111 20 170 41q55 18 180 96l31 -21q-41 -240 -41 -954q249 145 370 184q154 -33 270.5 -187.5t116.5 -381.5q0 -137 -66.5 -243.5t-163.5 -162t-187.5 -82t-157.5 -26.5q-53 0 -281 49l-80 -49l-30 18q31 113 39 267.5t8 654.5v483q0 135 -20.5 189.5 t-86.5 64.5l-71 9q-4 16 -4 24zM367 180q0 -49 131 -96q98 -37 143 -37q117 0 214 104.5t97 243.5q0 213 -96 358.5t-215 145.5q-112 0 -274 -129v-590z" />
<glyph unicode="c" horiz-adv-x="974" d="M82 492q0 135 49 240.5t114.5 161.5t144.5 92t127 46t73 10q199 0 328 -118q-2 -10 -9.5 -27.5t-38 -51.5t-75.5 -44q-66 78 -131.5 119t-153.5 41q-102 0 -180 -124t-78 -264q0 -125 33.5 -229t115.5 -176t199 -72q119 0 301 78q18 -10 19 -41l-199 -135 q-6 -4 -28.5 -12.5t-62.5 -17.5t-75 -9q-231 0 -352 151.5t-121 381.5z" />
<glyph unicode="d" horiz-adv-x="1236" d="M82 502q0 131 51 234.5t121 157.5t151.5 91t132 47t74.5 10q8 0 238 -32v372q0 59 -2 90t-10.5 74t-31 64.5t-58.5 25.5l-74 9q-8 16 -8 24l8 27q88 16 170 43q82 31 178 94l33 -21q-41 -156 -41 -1302q0 -190 4 -264q4 -51 9 -78t25.5 -49.5t55.5 -22.5q25 0 74 2 q8 -14 8 -35l-2 -20q-68 -12 -125 -32.5t-81 -36.5l-24 -15q-31 0 -71.5 57.5t-40.5 128.5q-160 -102 -381 -186q-150 31 -266.5 185.5t-116.5 357.5zM254 580q0 -186 95 -331t210 -145q121 0 291 127v588q0 57 -139.5 97t-194.5 40q-86 0 -174 -117.5t-88 -258.5z" />
<glyph unicode="e" horiz-adv-x="1058" d="M96 492q0 240 129 374.5t307 175.5q66 0 134.5 -20.5t140.5 -82.5t100 -161q6 -25 58 -26q12 -14 12 -37q0 -8 -4 -25q-360 -84 -709 -117q0 -117 31 -217t113.5 -175t205.5 -75q168 0 297 91q29 -10 33 -43l-221 -156q-49 -39 -209 -39q-180 0 -299 152.5t-119 380.5z M272 657q111 0 267 25q127 23 204 49q10 6 11 12q0 12 -26 60.5t-89.5 103t-140.5 54.5q-62 -1 -95 -21q-115 -78 -131 -283z" />
<glyph unicode="f" horiz-adv-x="720" d="M27 940q10 21 22 70h197q2 33 14 200q10 137 62.5 244t116 161t138 88t117.5 42t68 8q117 0 272 -76q-2 -12 -6 -31.5t-30.5 -61.5t-69.5 -58q-172 139 -262 139q-72 0 -146 -116.5t-88 -262.5q-14 -131 -16 -276q156 0 270 14q12 -8 12 -27q-8 -16 -13 -41.5t-7 -31.5 l-266 -4v-308q0 -545 24 -546q84 -8 217 -9q8 -16 9 -34q0 -12 -9 -29q-63 0 -162.5 3t-119.5 3q-170 0 -312 -16q-10 12 -10 34l2 17q51 10 85 25.5t51.5 38t23.5 40t10 47.5q23 158 23 664v68l-203 -3q-14 8 -14 25z" />
<glyph unicode="g" horiz-adv-x="1153" d="M51 -420q0 23 25 41l299 199q-193 70 -193 219q0 16 41 43q90 53 279 145q-184 12 -286.5 124t-102.5 257q0 115 49 204t121.5 136t143.5 70.5t128 23.5q88 0 157.5 -21.5t98.5 -21.5l289 50q24 -32 24 -76q0 -37 -12 -62q-82 4 -250 7q59 -53 93 -126t34 -143 q-2 -137 -81 -227t-269 -193l-207 -108q-72 -39 -72 -82q0 -33 39 -62.5t115 -35.5l299 -31q315 -31 315 -295q0 -152 -200.5 -272.5t-442.5 -120.5q-180 0 -307 101.5t-127 256.5zM238 -442q0 -76 88.5 -157t248.5 -81q180 0 285 75t105 193q0 170 -236 193 q-133 12 -270 20l-156 -123q-66 -55 -65 -120zM289 690q0 -154 82.5 -275.5t199.5 -121.5q113 0 175.5 83t62.5 206q0 172 -77 282.5t-202 110.5q-115 0 -178 -82t-63 -203z" />
<glyph unicode="h" horiz-adv-x="1280" d="M35 1671q0 14 6 25q92 16 164 41q37 12 61.5 24.5t66.5 38t54 33.5l33 -21q-41 -256 -41 -960q260 143 416 190q133 0 200.5 -98t67.5 -264q0 -10 -2 -114.5t-2 -147.5q0 -350 31 -355q31 -6 120 -6q8 -14 9 -32q0 -6 -9 -31q-39 0 -107.5 3t-80.5 3q-170 0 -270 -16 q-12 16 -13 34l4 17q84 18 113 55t35 96q4 43 4 281q0 74 -1 111.5t-6 98t-18.5 92.5t-35 66.5t-58.5 49t-86 14.5q-31 0 -63.5 -8t-59 -18.5t-59.5 -28t-50.5 -28.5t-46 -30.5t-32.5 -21.5q-2 -102 -2 -217q0 -473 26 -481q25 -8 107 -9q6 -14 6 -32.5t-6 -30.5 q-39 0 -99.5 3t-72.5 3q-160 0 -289 -16q-10 12 -10 34l2 17q84 18 113.5 56t40.5 95q20 117 20 672v524q0 59 -2 90t-10 74t-30.5 64.5t-57.5 25.5l-74 9q-6 10 -6 26z" />
<glyph unicode="i" horiz-adv-x="649" d="M68 934l6 27q106 23 172 45q68 25 157 69q10 0 18.5 -6t10.5 -12l2 -6q-24 -140 -24 -664q0 -94 7 -207.5t19 -116.5q31 -6 115 -6q6 -14 6 -32.5t-6 -30.5q-39 0 -105.5 3t-78.5 3q-143 0 -271 -16q-12 16 -12 34l4 17q43 10 72.5 25.5t46 39t23 40t14.5 46.5 q10 37 10 256v197q0 74 -2 109.5t-11.5 75.5t-32 56.5t-58.5 20.5l-76 6q-6 8 -6 27zM254 1444q25 29 66.5 60.5t72.5 43.5q78 -57 101 -137q-58 -73 -136 -102q-74 51 -104 135z" />
<glyph unicode="j" horiz-adv-x="600" d="M-25 -745q0 -31 33 -41l172 131q127 98 169 214.5t42 325.5v502q0 506 27 655q0 20 -31 21q-39 -20 -172 -72q-90 -29 -172 -43q-4 -8 -4 -24.5t4 -30.5q49 -2 78 -6q70 -6 88 -64.5t18 -197.5v-459q0 -422 -24.5 -565.5t-136.5 -255.5zM238 1444q25 29 66.5 60.5 t72.5 43.5q78 -57 100 -137q-57 -73 -135 -102q-74 51 -104 135z" />
<glyph unicode="k" horiz-adv-x="1103" d="M35 1671q0 14 6 25q92 16 164 41q37 12 61.5 24.5t66.5 38t54 33.5l33 -21q-43 -268 -43 -960v-240q0 -539 26 -546q25 -8 107 -9q6 -14 6 -32.5t-6 -30.5q-39 0 -99.5 3t-72.5 3q-160 0 -289 -16q-10 12 -10 34l2 17q84 18 113.5 56t40.5 95q20 117 20 672v524 q0 59 -2 90t-10 74t-30.5 64.5t-57.5 25.5l-74 9q-6 10 -6 26zM420 612l201 148q113 82 208 184q-68 14 -151 17q-6 12 -6 30l6 25q168 -6 225 -6q49 0 152 8q12 -16 12 -49l-477 -316q106 -168 196 -307q102 -158 157.5 -219t96.5 -68q10 -2 39 -2q20 0 41 2q8 -20 8 -36 q0 -14 -4 -23q-57 -4 -115.5 -14.5t-95 -18.5t-45.5 -8q-27 0 -122 138.5t-204.5 317.5t-121.5 197z" />
<glyph unicode="l" horiz-adv-x="612" d="M23 18l2 17q96 18 127.5 55t42.5 96q20 117 20 672v524q0 59 -2 90t-10 74t-30.5 64.5t-57.5 25.5l-74 9q-6 10 -6 26q0 14 6 25q92 16 164 41q37 12 61.5 24.5t66.5 38t54 33.5l33 -21q-43 -268 -43 -960v-240q0 -539 26 -546q37 -8 160 -9q4 -14 4 -32.5t-4 -30.5 q-51 0 -130 3t-95 3q-176 0 -305 -16q-10 12 -10 34z" />
<glyph unicode="m" horiz-adv-x="1873" d="M51 948l4 25q80 10 140.5 27.5t88 29.5t33.5 12q18 0 45 -57t46 -127q217 123 397 184q152 0 205 -188q215 121 409 188q111 0 173.5 -99t62.5 -263q0 -10 -1 -118.5t-1 -151.5q0 -342 28 -347q31 -6 113 -6q6 -14 6 -32.5t-6 -30.5q-39 0 -107.5 3t-80.5 3 q-141 0 -244 -16q-10 12 -10 34l2 17q70 18 91 54t30 97q10 72 10 273v79q0 28 -2 77t-6 76.5t-11.5 65.5t-18.5 59.5t-27.5 44t-39 31.5t-51.5 9q-115 0 -303 -131q6 -41 6 -90q0 -10 -1 -118.5t-1 -151.5q0 -342 29 -347q31 -6 88 -6q6 -14 6 -32.5t-6 -30.5q-39 0 -91 3 t-65 3q-156 0 -270 -16q-10 12 -10 32l2 19q45 10 73.5 25.5t43 38t20.5 41t10 46.5q10 72 10 273v79q0 28 -2 77t-6 76.5t-11 65.5t-18.5 59.5t-28 44t-39 31.5t-50.5 9q-125 0 -303 -131q-8 -162 -9 -418q0 -287 25 -289q23 -6 74 -6q8 -16 8 -34.5t-8 -28.5q-33 0 -82 3 t-60 3q-156 0 -270 -16q-10 12 -10 34l2 17q59 14 92 39.5t42 49t13 62.5q11 90 11 471q0 45 -1 69t-3.5 60.5t-8.5 55t-17 39t-28.5 30t-42.5 9.5q-8 0 -37.5 -1t-42.5 -1q-8 8 -8 30z" />
<glyph unicode="n" horiz-adv-x="1292" d="M51 944.5q0 16.5 4 28.5q80 10 140.5 27.5t88 29.5t33.5 12q18 0 45.5 -57t45.5 -127q207 117 403 184q125 0 192.5 -99t67.5 -263q0 -10 -2 -118.5t-2 -151.5q0 -342 31 -347q31 -6 114 -6q8 -14 9 -32q0 -14 -9 -31q-39 0 -107.5 3t-80.5 3q-170 0 -270 -16 q-10 12 -11 34l2 17q59 14 92 39.5t42.5 49t13.5 62.5q8 57 8 273v95q0 32 -4 87t-10 85t-19.5 69t-32 58t-48 33.5t-66.5 14.5q-57 0 -120.5 -24.5t-96.5 -45t-92 -61.5q-8 -162 -9 -418q0 -287 25 -289q31 -6 107 -6q8 -14 8 -32q0 -14 -8 -31q-39 0 -100.5 3t-74.5 3 q-156 0 -270 -16q-10 12 -10 34l2 17q59 14 92 39.5t42 49t13 62.5q10 90 11 471q0 45 -1 69t-3.5 60.5t-8.5 55t-17 39t-28.5 30t-42.5 9.5q-10 0 -41.5 -1t-38.5 -1q-8 10 -8 26.5z" />
<glyph unicode="o" horiz-adv-x="1206" d="M82 500q0 459 530 542q215 0 363.5 -157.5t148.5 -384.5q0 -455 -528 -541q-217 0 -365.5 154.5t-148.5 386.5zM270 580q0 -213 100.5 -373t270.5 -160q295 0 295 377q0 213 -98.5 372.5t-266.5 159.5q-156 0 -228.5 -103t-72.5 -273z" />
<glyph unicode="p" horiz-adv-x="1220" d="M41 940l2 18q70 12 129 33t84 36l25 15q31 0 69.5 -52t42.5 -128q117 74 171 100.5t190 79.5q150 -29 267.5 -183t117.5 -359q0 -117 -37 -210t-98.5 -149.5t-127 -95.5t-135 -56.5t-111.5 -23.5t-67 -6q-57 0 -180 31v-115q0 -547 25 -549q61 -6 229 -6q4 -14 4 -32.5 t-4 -30.5q-63 0 -170 3t-125 3q-176 0 -287 -17q-12 12 -12 35l4 17q84 20 113.5 57t38.5 94q20 143 20 672v500q0 164 -19.5 225t-78.5 61q-10 0 -35 -2t-37 -2q-8 14 -8 37zM383 162q0 -31 116.5 -73t164.5 -42q131 0 217 110.5t86 266.5q0 186 -100.5 330.5t-217.5 144.5 q-108 0 -262 -129q-4 -170 -4 -608z" />
<glyph unicode="q" horiz-adv-x="1230" d="M82 475q0 154 60.5 269.5t157.5 177t200.5 91t210.5 29.5q23 0 241 -53q14 6 44 26.5t38 26.5l31 -18q-16 -41 -31.5 -169t-15.5 -218v-483q0 -561 20 -705q8 -57 40 -92t116 -45q2 -8 2 -17q0 -25 -10 -34q-113 2 -287 2q-125 0 -293 -6q-6 12 -6 32.5t6 30.5 q70 0 223 10q29 6 29 545v270q-111 -68 -177.5 -99.5t-205.5 -86.5q-150 31 -271.5 179.5t-121.5 336.5zM254 551q0 -174 100.5 -310.5t216.5 -136.5q123 0 287 127v590q0 51 -120 93t-175 42q-119 0 -214 -116.5t-95 -288.5z" />
<glyph unicode="r" horiz-adv-x="866" d="M47 948l4 25q80 10 140.5 27.5t88 29.5t33.5 12q23 0 51.5 -80.5t34.5 -160.5q154 160 279 241q82 0 135 -48t53 -120q0 -81 -142 -81h-3q-31 108 -104 108h-1q-49 0 -204 -170q-12 -156 -13 -495q0 -170 27 -173q47 -6 166 -6q6 -14 6 -32.5t-6 -30.5q-51 0 -132 3 t-98 3q-168 0 -296 -16q-10 12 -11 34l2 17q53 10 88 25.5t51.5 38t21.5 40t9 47.5q12 90 13 471q0 45 -1 68t-3.5 59.5t-8.5 55t-17 40t-29.5 31t-43.5 9.5q-10 0 -38.5 -1t-41.5 -1q-10 10 -10 30z" />
<glyph unicode="s" horiz-adv-x="948" d="M121 262q23 14 41 14q12 0 18 -4q2 -6 15.5 -45t27 -66.5t29.5 -45.5q23 -23 80 -49.5t127 -26.5q88 0 145.5 43t57.5 129q0 27 -8.5 52.5t-23 44t-29.5 33.5t-34.5 27.5t-33 19.5t-26.5 14.5t-15 7.5l-154 73q-199 94 -199 273q0 145 110.5 215.5t250.5 70.5 q68 0 152.5 -17t127.5 -36q-14 -49 -32 -229q-10 -8 -33 -8q-12 0 -29 4q-17 102 -33 159q-61 53 -178 54q-78 0 -128 -41t-50 -119q0 -51 38 -97t93 -73l160 -76q233 -113 233 -301q0 -139 -110.5 -221t-261.5 -82q-80 0 -167 15.5t-124 31.5q-6 92 -37 256z" />
<glyph unicode="t" horiz-adv-x="737" d="M33 936q10 20 18 74h146q16 0 16 71l-2 174q76 31 156 127q25 0 36 -12q-18 -215 -18 -360q150 0 295 14q14 -8 14 -25q-12 -20 -20 -75l-291 -4v-480q0 -340 117 -340q86 0 223 58q31 -10 31 -58q-150 -80 -344 -141q-96 0 -146.5 98.5t-50.5 264.5v475q0 121 -14 121 l-152 -3q-14 4 -14 21z" />
<glyph unicode="u" horiz-adv-x="1239" d="M33 975l6 24q35 6 158 27l145 31q8 -2 15.5 -8.5t10.5 -11.5l3 -5q-16 -113 -17 -592q0 -336 181 -336q63 0 127.5 23t97.5 44.5t84 59.5q6 135 6 195v248q0 76 -2 109.5t-11.5 73.5t-31 57.5t-57.5 25.5l-68 8q0 4 -3 13.5t-3 13.5l6 24q20 4 74.5 10.5t105.5 16.5 q129 27 141 31q10 -2 17.5 -8.5t10.5 -11.5l3 -5q-18 -140 -18 -459l2 -292q0 -184 92 -185q10 0 35.5 1t38.5 1q8 -14 8 -32l-2 -23q-37 -6 -70 -15.5t-54.5 -16.5t-42 -17t-30.5 -15.5t-20 -12.5l-10 -7q-45 16 -76 72.5t-35 113.5q-174 -109 -399 -186q-131 0 -196 97.5 t-65 265.5v391q0 139 -12 177t-72 50q-68 8 -67 8q-6 12 -6 27z" />
<glyph unicode="v" horiz-adv-x="1015" d="M-43 991q0 25 12 39q141 -20 219 -20q14 0 42 1t67 3t63 2q6 -10 7 -31l-7 -33q-63 0 -90 -4q18 -145 97 -317l180 -395l141 378q74 199 92 328q-61 10 -131 10q-4 14 -4 33q0 20 4 31q82 -6 178 -6q98 0 172 12q14 -23 15 -53q-51 -23 -74 -45q-70 -70 -129 -219 l-303 -746h-31l-303 713q-84 203 -133 256q-27 33 -82 49q-2 6 -2 14z" />
<glyph unicode="w" horiz-adv-x="1628" d="M-27 991q0 25 13 39q141 -20 219 -20q14 0 41.5 1t66.5 3t64 2q6 -10 6 -31l-6 -33q-63 0 -90 -4q14 -117 92 -317l151 -391l283 770h55l295 -770l146 372q72 178 94 330q-41 6 -131 10q-4 14 -4 33q0 20 4 31q39 0 100.5 -3t77.5 -3q74 0 172 14q14 -27 14 -51 q-55 -25 -77 -47q-70 -74 -142 -252l-287 -715h-30l-303 764l-297 -764h-31l-295 719q-92 221 -123 250q-33 35 -76 49q-2 6 -2 14z" />
<glyph unicode="x" horiz-adv-x="1071" d="M16 27l2 14q53 14 95 55q74 76 168 201l155 205l-92 162q-96 170 -138 227t-83 57h-96q-4 25 -4 33q0 18 2 29q86 4 178 18t106 14q8 0 41 -59t95.5 -176t111.5 -199l123 152q84 104 117 182q-33 6 -117 6q-6 16 -6 34.5t6 27.5h166q78 0 170 14q14 -16 14 -51 q-43 -16 -75.5 -41t-100.5 -94.5t-98 -106.5l-160 -188l127 -201q133 -210 157 -238q39 -45 78 -45h80q4 -16 4 -28q0 -14 -4 -31q-61 0 -118.5 -4t-92 -9t-41.5 -5q-47 0 -206 280l-99 166l-45 -61q-150 -201 -182 -304q49 -6 123 -6q6 -14 6 -32.5t-6 -30.5q-88 6 -172 6 q-109 0 -174 -10q-14 12 -15 37z" />
<glyph unicode="y" horiz-adv-x="1095" d="M-25 977q0 37 11 53q135 -20 213 -20q14 0 42.5 1t68.5 3t65 2q4 -10 4 -31l-4 -33q-63 0 -90 -4q18 -125 98 -317l199 -492l178 457q90 231 102 344q-74 8 -151 8q-8 12 -9 35q0 10 5 27h200q94 0 172 12q16 -27 17 -53q-51 -23 -74 -45q-55 -59 -121 -211l-297 -713 q-27 -63 -139 -360q-6 -16 -29.5 -78t-44 -116t-46.5 -112.5t-49.5 -93.5t-39.5 -35q-10 0 -42 11.5t-88 28t-112 28.5q0 41 19 65q74 -12 80 -12q59 0 152 138.5t145 273.5l73 196l-333 820q-51 129 -95 174q-27 33 -80 49z" />
<glyph unicode="z" horiz-adv-x="1026" d="M55 31v8q37 37 70 84q328 467 537 813h-173q-213 0 -301 -27l-24 -157q-10 -8 -33 -9q-14 0 -31 5q-6 59 -17 119.5t-17.5 93t-6.5 38.5q0 18 33 19q12 0 156.5 -4t224.5 -4h86q217 0 328 12q14 -16 14 -53q-43 -39 -74 -84l-526 -811h135q109 0 234 18.5t176 36.5 l55 141q18 6 23 6q16 0 41 -12q-31 -225 -31 -237q0 -16 -14 -21q-37 -12 -207 -12q-39 0 -163 3t-157 3q-211 0 -321 -10q-8 8 -12.5 20.5t-4.5 20.5z" />
<glyph unicode="{" horiz-adv-x="827" d="M219 735q57 55 92 132t45.5 129.5t26.5 168.5q61 436 98 604l254 80q20 -20 21 -57q-90 -53 -135 -94q-39 -35 -68 -312.5t-29 -500.5q-43 -68 -182 -150q61 -37 107.5 -79t60.5 -66l14 -25q0 -233 33 -538.5t72 -339.5q23 -20 56.5 -43t55.5 -35l23 -12l-21 -64l-260 84 q-39 205 -100 686q-14 111 -26.5 171.5t-47.5 136t-90 124.5z" />
<glyph unicode="|" horiz-adv-x="581" d="M211 -850q20 201 20 989v1581q61 14 111 33q8 0 15.5 -4t10.5 -9l3 -5q-20 -201 -21 -990v-1581q-61 -14 -110 -32q-8 0 -15.5 4t-10.5 9z" />
<glyph unicode="}" horiz-adv-x="827" d="M63 -403q86 43 136 90q39 35 71.5 340t32.5 538q4 10 15.5 26.5t58.5 61.5t108 82q-61 37 -107 74t-61 56l-14 20q0 223 -28.5 500.5t-67.5 312.5q-45 41 -135 94q0 16 5 30.5t10 20.5l5 6l254 -80q37 -168 98 -604q16 -117 26.5 -169t45.5 -128.5t92 -132.5 q-55 -49 -90 -124.5t-47 -136t-27 -171.5q-61 -487 -100 -686l-260 -84q-20 23 -21 64z" />
<glyph unicode="~" horiz-adv-x="1341" d="M82 729q53 31 127 79t116 73.5t60 25.5q84 0 326 -57q174 -41 315 -41q57 0 203 65q20 -12 31 -53q-53 -31 -126 -78t-115 -72.5t-61 -25.5q-67 0 -325 57q-188 41 -316 41q-18 0 -36.5 -3t-42 -11t-36 -12t-45 -19.5t-44.5 -19.5q-20 12 -31 51z" />
<glyph unicode="&#xa2;" horiz-adv-x="950" d="M82 506q0 129 40 231.5t106.5 164t126 96.5t122.5 53v209q33 6 78 20q14 0 20 -12q-8 -115 -8 -195q203 0 320 -121q-2 -10 -8.5 -26.5t-36 -49t-72.5 -42.5q-86 131 -205 149v-901h23q70 0 125 18.5t153 69.5q16 -12 19 -41l-183 -135q-55 -27 -137 -35v-207 q-25 -6 -73 -22l-25 14l8 221q-188 25 -290.5 177.5t-102.5 363.5zM223 590q0 -168 65.5 -305.5t188.5 -184.5v885q-98 -8 -176 -133t-78 -262z" />
<glyph unicode="&#xa3;" horiz-adv-x="989" d="M82 20q80 59 112.5 167t32.5 315q-39 0 -106 -6q-16 6 -17 24q17 35 21 66h102q2 125 53.5 226t119 154.5t120.5 81t76 27.5q68 0 149.5 -18.5t124.5 -36.5q-16 -55 -32 -225q-16 -12 -29 -13q-4 0 -8 1t-7 2t-7.5 3.5t-6.5 2.5q-6 76 -32 155q-14 18 -61.5 38t-115.5 20 q-72 0 -125 -113t-61 -305q199 0 320 14q16 -6 16 -25q-14 -25 -23 -71h-313v-45q0 -215 -115 -357q74 -4 228 -4q145 0 247 37q35 80 68 176q8 2 23 2q20 0 43 -18q-23 -139 -35 -242q-6 -43 -17 -45q-49 -12 -221 -12q-47 0 -116.5 2t-71.5 2h-76q-162 0 -244 -20 q-16 12 -16 40z" />
<glyph unicode="&#xa5;" horiz-adv-x="1181" d="M41 1017.5q0 16.5 2 24.5q51 0 132 4.5t95 4.5q16 0 83 -74t150 -194.5t128 -227.5q37 53 109.5 156.5t109.5 162t53 103.5q-33 6 -133 6q-6 18 -6 39q0 2 6 27q25 0 72 -2.5t81.5 -3.5t57.5 -1q82 0 152 13q8 -8 8 -33l-2 -21q-43 -10 -84 -43q-41 -31 -120 -125 t-149 -194q70 0 236 14q16 -6 16 -24q-6 -10 -22 -74q-78 0 -164 1t-123 1q-41 -68 -49 -96q-8 -16 -8 -62q178 0 317 13q16 -4 17 -25q-6 -8 -23 -74q-166 4 -311 4v-28q0 -113 14 -221q49 -10 156 -11q2 -16 2 -34q0 -20 -2 -29q-47 0 -129 3t-97 3q-156 0 -282 -16 q-8 10 -8 32l2 19q80 12 124 34.5t54 42t12 50.5q6 37 6 155q-174 0 -334 -14q-16 6 -16 25q16 31 23 71h319q-2 20 -10 66q-10 31 -39 90q-45 0 -240 -14q-16 6 -16 24q14 33 20 72h185q-92 141 -226 291q-31 35 -55 46t-92 15q-2 12 -2 28.5z" />
<glyph unicode="&#xa9;" horiz-adv-x="1779" d="M123 731q0 324 224 550t543.5 226t543 -226t223.5 -550q0 -322 -223.5 -548t-543 -226t-543.5 226t-224 548zM231 731.5q0 -282.5 195 -482.5t465 -200t463.5 200t193.5 482.5t-193.5 483t-463.5 200.5t-465 -200.5t-195 -483zM477 727q0 117 42 209t99.5 140t126 80 t110.5 40t63 8q125 0 284 -49q-12 -49 -31 -229q-25 -6 -26 -6q-14 0 -29 4q0 6 -29 147q-94 51 -221 51q-94 0 -161.5 -101t-67.5 -228q0 -164 72.5 -283t216.5 -119q92 0 262 70q14 -12 14 -35l-172 -123l-7 -3q-7 -3 -16.5 -7t-24.5 -8t-29.5 -8.5t-33 -6.5t-34.5 -2 q-199 0 -303.5 131t-104.5 328z" />
<glyph unicode="&#xad;" d="M96 465q14 41 27 98h293q131 0 248 19q18 -8 18 -31q-14 -41 -27 -98h-293q-130 -1 -247 -19q-18 8 -19 31z" />
<glyph unicode="&#xae;" horiz-adv-x="1128" d="M68 1022q0 215 145 362.5t358 147.5q211 0 356.5 -147.5t145.5 -362.5q0 -213 -145.5 -359.5t-356.5 -146.5t-357 146.5t-146 359.5zM166 1022q0 -172 120 -297t285.5 -125t285.5 125t120 297q0 174 -120 300t-285.5 126t-285.5 -126t-120 -300zM344 788l2 21 q45 12 53 57q4 35 4 160q0 121 -2 168q0 59 -8 59q-8 6 -39 7q-2 8 -2 18q0 8 2 14h213q193 0 193 -143q0 -109 -115 -141q18 -53 37 -88q37 -59 55.5 -77t38.5 -18h33q8 -12 8 -24q0 -14 -4 -21q-33 -2 -64.5 -5t-49 -5t-21.5 -2q-8 0 -29.5 44t-49.5 109.5t-34 77.5h-14 q-35 0 -57 2v-100q0 -55 4 -76q16 -8 61 -8q4 -12 4 -24q0 -14 -4 -21h-209q-6 0 -6 16zM494 1049q8 -2 53 -2q49 0 82 25.5t33 68.5q0 47 -24 75.5t-73 28.5q-43 0 -65 -2q-6 -53 -6 -194z" />
<glyph unicode="&#xb4;" horiz-adv-x="1206" d="M393 1155q158 199 285 377q82 -33 115 -105l-353 -307q-38 0 -47 35z" />
<glyph unicode="&#x2000;" horiz-adv-x="925" />
<glyph unicode="&#x2001;" horiz-adv-x="1851" />
<glyph unicode="&#x2002;" horiz-adv-x="925" />
<glyph unicode="&#x2003;" horiz-adv-x="1851" />
<glyph unicode="&#x2004;" horiz-adv-x="617" />
<glyph unicode="&#x2005;" horiz-adv-x="462" />
<glyph unicode="&#x2006;" horiz-adv-x="308" />
<glyph unicode="&#x2007;" horiz-adv-x="308" />
<glyph unicode="&#x2008;" horiz-adv-x="231" />
<glyph unicode="&#x2009;" horiz-adv-x="370" />
<glyph unicode="&#x200a;" horiz-adv-x="102" />
<glyph unicode="&#x2010;" d="M96 465q14 41 27 98h293q131 0 248 19q18 -8 18 -31q-14 -41 -27 -98h-293q-130 -1 -247 -19q-18 8 -19 31z" />
<glyph unicode="&#x2011;" d="M96 465q14 41 27 98h293q131 0 248 19q18 -8 18 -31q-14 -41 -27 -98h-293q-130 -1 -247 -19q-18 8 -19 31z" />
<glyph unicode="&#x2012;" d="M96 465q14 41 27 98h293q131 0 248 19q18 -8 18 -31q-14 -41 -27 -98h-293q-130 -1 -247 -19q-18 8 -19 31z" />
<glyph unicode="&#x2013;" horiz-adv-x="1361" d="M96 459q15 41 27 98h555q338 0 569 18q20 -8 21 -32q-12 -25 -29 -99h-559q-334 0 -565 -16q-18 8 -19 31z" />
<glyph unicode="&#x2014;" horiz-adv-x="2197" d="M96 459q15 41 27 98h973q592 0 987 16q20 -8 20 -32q-12 -27 -28 -97h-977q-588 0 -983 -16q-18 8 -19 31z" />
<glyph unicode="&#x2018;" horiz-adv-x="473" d="M137 1366q0 72 59.5 179.5t161.5 205.5q33 0 43 -31q-106 -154 -106 -245q68 -55 108 -146q-76 -86 -157 -117q-37 31 -69 77t-40 77z" />
<glyph unicode="&#x2019;" horiz-adv-x="403" d="M68 1632q78 84 159 119q37 -33 69 -79t40 -75q0 -72 -59.5 -179t-161.5 -206q-33 0 -43 31q106 152 106 246q-68 55 -110 143z" />
<glyph unicode="&#x201c;" horiz-adv-x="813" d="M137 1366q0 72 59.5 179.5t161.5 205.5q33 0 43 -31q-106 -154 -106 -245q68 -55 108 -146q-76 -86 -157 -117q-37 31 -69 77t-40 77zM477 1366q0 72 59.5 179.5t161.5 205.5q35 0 45 -31q-106 -150 -106 -245q68 -55 108 -146q-76 -86 -157 -117q-37 31 -69 77t-42 77z " />
<glyph unicode="&#x201d;" horiz-adv-x="813" d="M68 1632q78 84 159 119q37 -33 69 -79t40 -75q0 -72 -59.5 -179t-161.5 -206q-33 0 -43 31q106 152 106 246q-68 55 -110 143zM410 1632q74 84 157 119q80 -68 111 -154q0 -72 -59.5 -179t-161.5 -206q-35 0 -45 31q106 147 106 246q-68 57 -108 143z" />
<glyph unicode="&#x2022;" horiz-adv-x="944" d="M205 612q57 66 150.5 136.5t160.5 95.5q78 -59 139.5 -144.5t83.5 -158.5q-47 -63 -138 -135t-165 -97q-158 113 -231 303z" />
<glyph unicode="&#x2026;" horiz-adv-x="1546" d="M137 125q72 82 172 129q86 -76 123 -170q-23 -31 -74 -69t-94 -56q-82 68 -127 166zM612 125q72 82 172 129q86 -76 123 -170q-23 -31 -74 -69t-94 -56q-82 68 -127 166zM1087 125q72 82 173 129q86 -76 122 -170q-23 -31 -74 -69t-94 -56q-82 68 -127 166z" />
<glyph unicode="&#x202f;" horiz-adv-x="370" />
<glyph unicode="&#x205f;" horiz-adv-x="462" />
<glyph unicode="&#x20ac;" horiz-adv-x="1048" d="M41 352q16 35 22 72h316q186 0 348 12q16 -4 16 -24q-8 -14 -22 -70h-367q70 -246 277 -246q125 0 293 54q12 -14 12 -44l-209 -122q-37 -25 -137 -25q-170 0 -273.5 104.5t-138.5 274.5l-121 -10q-16 6 -16 24zM63 567q19 39 21 72h96q25 121 92.5 209t144.5 126t128 53 t78 15q160 0 303 -53q-8 -68 -15 -233q-16 -8 -28 -8q-4 0 -13.5 3t-15.5 3q-18 106 -43 161q-76 57 -213 58q-113 0 -183.5 -99.5t-86.5 -234.5h75q195 0 359 14q16 -6 16 -24q-10 -25 -22 -74h-348q-225 0 -328 -12q-16 6 -17 24z" />
<glyph unicode="&#x2122;" horiz-adv-x="3476" d="M1474 1460q0 20 6 33q82 0 192.5 4t135.5 4q14 0 43.5 -30.5t83 -108.5t116.5 -191q84 -152 181.5 -362.5t163 -364t73.5 -168.5q27 59 252 535.5t297 663.5q207 0 330 18q10 -18 10 -51q-102 -23 -137 -68t-39 -112q-4 -35 -4 -150q0 -168 14 -541q12 -303 41 -508 q39 -6 164 -6q6 -14 6 -32.5t-6 -30.5q-45 0 -122 3t-91 3q-221 0 -359 -16q-10 12 -10 34l2 17q123 29 156 61.5t39 116.5q6 129 6 195q0 166 -12 403l-17 336q-94 -174 -293.5 -592t-259.5 -596h-57q-399 903 -512 1100l-86 147q-8 -254 -8 -684q0 -301 24 -459 q45 -6 160 -6q6 -16 6 -34q0 -20 -6 -29q-51 0 -133 3t-98 3q-141 0 -238 -16q-10 12 -10 34l2 17q100 23 134 65.5t44 112.5q49 350 57 1104q-55 70 -120 98q-8 2 -115 17q0 2 -3 12t-3 16zM14 1149q8 53 16.5 161.5t16.5 155.5q0 23 35 23q14 0 151.5 -7t208.5 -7h502 q80 0 229.5 7t163.5 7q37 0 37 -23q-33 -180 -33 -329q-16 -8 -45 -9q-20 0 -34 9q-37 203 -41 221q-102 45 -281 45q-80 0 -129 -10q-6 -18 -14 -131q-10 -188 -11 -428v-367q0 -227 33 -395q94 -14 213 -15q6 -16 6 -34q0 -20 -6 -29q-70 0 -190.5 3t-145.5 3 q-221 0 -366 -16q-10 12 -11 34l3 17q141 23 186 58.5t59 117.5q29 152 29 504q0 360 -12 547q-4 96 -17 131q-51 10 -125 10q-172 0 -268 -45l-90 -225q-47 0 -70 16z" />
<glyph unicode="&#xe000;" horiz-adv-x="1040" d="M0 1040h1040v-1040h-1040v1040z" />
</font>
</defs>
</svg>
