<?xml version="1.0" standalone="no"?>
<!DOCTYPE svg PUBLIC "-//W3C//DTD SVG 1.1//EN" "http://www.w3.org/Graphics/SVG/1.1/DTD/svg11.dtd" >
<svg xmlns="http://www.w3.org/2000/svg">
<metadata>
This is a custom SVG webfont generated by Font Squirrel.
Copyright   : Copyright c 2011 UGR Design wwwugrdesigncomar  with Reserved Font Names Rosarivo Rosarivo Pro Rosarivo UGR
Designer    : Pablo Ugerman
Foundry     : Pablo Ugerman
</metadata>
<defs>
<font id="RosarivoItalic" horiz-adv-x="710" >
<font-face units-per-em="2048" ascent="1638" descent="-410" />
<missing-glyph horiz-adv-x="546" />
<glyph unicode=" "  horiz-adv-x="546" />
<glyph unicode="&#x09;" horiz-adv-x="546" />
<glyph unicode="&#xa0;" horiz-adv-x="546" />
<glyph unicode="!" horiz-adv-x="475" d="M74 106q49 82 149 121q80 -75 80 -151q0 -35 -53 -77t-100 -42q-35 98 -76 149zM162 1423q6 4 137 80t135 78q22 -2 31 -18q-8 -43 -37 -172t-47.5 -225.5t-49 -292.5t-59.5 -429q-2 -18 -21.5 -34.5t-53.5 -18.5q2 203 20.5 424t35.5 367.5t17 175t-26 28.5l-56 -18 q-10 8 -16 21.5t-8 23.5z" />
<glyph unicode="&#x22;" horiz-adv-x="636" d="M221 1174l31 546q29 14 76 15q25 0 59 -15l-100 -546q-14 -4 -35 -5q-15 1 -31 5zM530 1174l29 546q31 14 78 15q20 0 59 -15l-104 -546q-10 -4 -33 -5q-13 1 -29 5z" />
<glyph unicode="#" horiz-adv-x="1196" d="M137 276q25 66 33 91h182l43 282q-80 -2 -213 -16q-12 8 -12 31q25 66 33 90h207l41 256q53 10 92 28l30 -20q-41 -154 -63 -264h250l41 256q61 14 92 28l31 -20q-16 -49 -64 -262q115 8 187 16q12 -8 12 -33q0 -2 -33 -92h-182l-43 -278q78 2 209 16q14 -6 14 -33 q-14 -27 -33 -92h-207l-47 -299q-57 -12 -90 -27l-26 19q35 123 65 309h-252l-43 -301q-61 -12 -94 -27l-27 19q31 106 66 307q-66 0 -186 -14q-12 6 -13 30zM451 367h251l43 282h-247z" />
<glyph unicode="$" horiz-adv-x="866" d="M41 33l88 278q27 0 49 -14q-6 -25 -6 -125q0 -47 2 -63q41 -57 154 -70l49 430q-68 57 -106 93t-72.5 94.5t-34.5 115.5q0 121 85 192.5t212 84.5l22 155q51 12 68 23q10 0 20 -15q-20 -78 -36 -161q131 -2 251 -54q-35 -100 -59 -249q-8 -2 -25 -3q-22 1 -24 7l-16 176 q-47 35 -138 47l-43 -377q59 -53 90 -83t74 -78t62.5 -91t19.5 -84q0 -121 -97.5 -206t-236.5 -95l-24 -201q-14 -4 -66 -22q-6 0 -12 4t-8 7l-2 3q20 109 32 209q-186 14 -272 72zM311 834q0 -70 101 -170l41 317q-142 -8 -142 -147zM401 35q63 10 106.5 58t43.5 120 q0 94 -107 195z" />
<glyph unicode="%" horiz-adv-x="1288" d="M190 698q0 139 73 241.5t218 125.5q84 0 132.5 -62.5t48.5 -158.5q0 -139 -74 -240.5t-217 -122.5q-86 0 -133.5 60.5t-47.5 156.5zM197 -25l391 500q70 86 223.5 293t212.5 303q8 2 18 2q8 0 9 -6q27 -59 47 -92l-434 -557q-340 -442 -388 -531q-12 -2 -20 -2l-8 6 q-2 4 -51 84zM276 760q0 -57 37 -96t99 -39q96 0 133 52t37 107q0 57 -38 96.5t-104 39.5q-164 0 -164 -160zM629 104q0 139 71.5 242t217.5 123q86 0 133 -61.5t47 -159.5q0 -139 -73 -239.5t-216 -123.5q-88 0 -134 60.5t-46 158.5zM713 164q0 -55 36.5 -94t100.5 -39 q94 0 131 51t37 106q0 57 -37.5 97.5t-103.5 40.5q-164 0 -164 -162z" />
<glyph unicode="&#x26;" horiz-adv-x="1574" d="M88 473q0 201 96.5 366t272.5 253q102 0 171.5 -45.5t69.5 -151.5q0 -164 -229 -264h733q133 0 211 25.5t78 66.5q0 43 -66 115q10 25 35 42t44 23l20 6q51 -71 51 -137q0 -74 -101.5 -157t-242.5 -83l-51 -319q-35 -231 -35 -326q0 -59 37 -59q70 0 211 51 q16 -27 16 -59q-98 -41 -164.5 -73t-104.5 -54.5t-126 -79.5l-33 12q-8 33 -8 107q0 141 59 506q-231 -279 -522 -279q-186 0 -304 147.5t-118 366.5zM248 530q0 -170 91 -305t226 -135q199 0 343 142t171 300q-559 0 -831 19v-21zM252 616q113 12 204 84t91 158 q0 61 -34 104.5t-85 43.5q-55 0 -107.5 -120t-68.5 -270z" />
<glyph unicode="'" horiz-adv-x="327" d="M221 1174l31 546q29 14 76 15q25 0 59 -15l-100 -546q-14 -4 -35 -5q-15 1 -31 5z" />
<glyph unicode="(" horiz-adv-x="653" d="M150 555q0 762 458 1296q48 0 62 -41q-344 -522 -344 -1351q0 -446 155 -772q-14 -41 -65 -41q-266 401 -266 909z" />
<glyph unicode=")" horiz-adv-x="653" d="M-16 -313q344 543 344 1360q0 428 -158 763q18 41 66 41q266 -408 266 -919q0 -745 -461 -1286q-41 0 -57 41z" />
<glyph unicode="*" horiz-adv-x="952" d="M164 1286q0 12 8 23q143 14 303 82l-231 157q31 72 49 138l18 8q82 -139 199 -244l31 319q78 10 129 33l12 -16q-82 -166 -109 -334l263 160q47 -78 79 -107l-8 -22q-170 -23 -307 -90l229 -164q-41 -88 -51 -137l-16 -5q-82 139 -197 248l-30 -319q-78 -10 -127 -33 l-15 16q72 139 113 336l-266 -155q-47 78 -76 106z" />
<glyph unicode="+" horiz-adv-x="1048" d="M104 500q20 51 33 98h336q18 180 21 424q8 18 30 18q8 -4 97 -26l-39 -416q178 0 350 18q12 -8 12 -32l-33 -99h-338q-23 -223 -24 -417q-6 -18 -27 -19q-16 8 -96 27l39 409q-174 0 -348 -16q-12 6 -13 31z" />
<glyph unicode="," horiz-adv-x="352" d="M-43 -244q160 127 160 201q0 55 -84 147q66 94 157 123q78 -98 78 -155q0 -106 -71.5 -187.5t-212.5 -171.5q-27 12 -27 43z" />
<glyph unicode="-" d="M49 465q20 43 35 98h293q131 0 252 19q16 -8 16 -33q-29 -53 -37 -96h-291q-130 -1 -251 -19q-16 8 -17 31z" />
<glyph unicode="." horiz-adv-x="350" d="M33 104q49 84 149 123q80 -75 80 -151q0 -35 -53 -77t-100 -42q-35 98 -76 147z" />
<glyph unicode="/" horiz-adv-x="739" d="M14 -147l406 1114q283 782 317 923q14 10 35 11q16 -14 55 -38t41 -26l-336 -905q-342 -930 -391 -1131q-12 -12 -35 -12q-14 14 -92 64z" />
<glyph unicode="0" horiz-adv-x="1112" d="M115 434q0 168 49 300t163.5 225.5t284.5 113.5q182 0 283.5 -134t101.5 -349q0 -260 -123.5 -431t-373.5 -200q-184 0 -284.5 131t-100.5 344zM213 506q0 -145 99.5 -259t254.5 -114q170 0 249 111.5t79 271.5q0 154 -94.5 266.5t-241.5 112.5q-346 0 -346 -389z" />
<glyph unicode="1" horiz-adv-x="712" d="M41 16l2 19q182 45 211 102q29 63 57 420l23 293l-201 -29q-16 16 -16 49q0 12 4 21q231 80 373 190q14 -4 24 -13t13 -17l4 -9q-37 -84 -51.5 -169.5t-34.5 -321.5l-23 -262q-10 -98 -10 -223q51 -6 157 -7q2 -10 2 -26q0 -23 -8 -39q-51 0 -123.5 3t-91.5 3 q-172 0 -305 -16q-6 14 -6 32z" />
<glyph unicode="2" horiz-adv-x="899" d="M-14 31l243 239q8 8 53.5 50t67 65t63.5 67t65.5 76.5t50 75.5t39 84t12.5 80q0 80 -53.5 134t-131.5 54q-70 0 -176 -55l-53 -211q-12 -4 -29 -4q-14 0 -22 4q0 49 -2 103.5t-4.5 88t-2.5 36.5q0 25 31 38q119 51 314 117q127 0 210.5 -59.5t83.5 -188.5 q0 -162 -190 -348l-358 -346h194q164 0 222 13.5t83 50.5q8 12 32 52t32 54q27 0 49 -16q-51 -150 -72 -269q-45 -23 -180 -22q-41 0 -165 3t-132 3q-195 0 -262 -14q-12 16 -12 45z" />
<glyph unicode="3" horiz-adv-x="866" d="M0 -559q63 31 91 44t98.5 52t108.5 66.5t95.5 75t87 89.5t52 97t22.5 110q0 127 -68.5 213t-191.5 170l162 152q168 154 168 291q0 152 -191 151q-76 0 -215 -53l-53 -211q-12 -6 -29 -6q-14 0 -22 6q0 47 -2 101.5t-4.5 89t-2.5 36.5q0 21 33 37q80 43 350 121 q303 0 304 -215q0 -59 -33 -121.5t-71 -103.5t-116 -119l-75 -74q225 -174 225 -389q0 -106 -45 -198.5t-106.5 -156t-168 -126t-184.5 -97t-201 -81.5q-18 18 -18 49z" />
<glyph unicode="4" horiz-adv-x="1001" d="M-27 33q12 14 43 49t41 49l449 588q61 80 125.5 170t97.5 140l33 50q31 -4 51 -20q-33 -115 -70 -535l-36 -399q135 6 163 57l41 82q31 0 50 -16q-37 -106 -60 -234q-51 -23 -205 -22q-12 -139 -34 -531q-63 -4 -146 -65q-23 0 -35 12q43 150 66 397l16 189 q-190 6 -315 6q-178 0 -264 -14q-10 16 -11 47zM147 123h426l56 631z" />
<glyph unicode="5" horiz-adv-x="870" d="M0 -582q84 53 130 84t131 99.5t132 127t86 140.5t39 166q0 141 -115.5 257t-289.5 191l131 566q215 -10 362 -11q156 0 191 35q6 8 41 68q27 0 47 -13q-39 -143 -49 -219q-41 -30 -174 -30q-170 0 -383 8l-56 -254q473 -221 473 -527q0 -104 -41 -200t-103.5 -169 t-157.5 -144.5t-178 -119.5t-191 -102q-25 16 -25 47z" />
<glyph unicode="6" horiz-adv-x="1067" d="M123 465q0 340 236.5 608t582.5 391q23 -18 23 -47q-160 -78 -272.5 -160.5t-205 -197.5t-138.5 -269.5t-46 -349.5q0 -180 57.5 -290.5t182.5 -110.5q104 0 183 103.5t79 277.5q0 113 -65.5 211t-164.5 98q-66 0 -133 -39q-23 14 -22 53q102 66 233 66 q127 0 223.5 -96.5t96.5 -245.5q0 -213 -133 -340t-355 -168q-170 0 -266 139.5t-96 366.5z" />
<glyph unicode="7" horiz-adv-x="948" d="M0 -492q66 115 191.5 336.5t204.5 359.5t197 328.5t224 350.5q-164 16 -348 16q-74 0 -110.5 -1t-86 -6t-74 -16.5t-34.5 -31.5l-43 -88q-41 0 -49 16q10 47 26.5 110.5t25.5 103.5t13 71q135 -14 488 -15q250 0 358 13q8 -6 12 -16.5t5 -17.5l1 -7q-238 -326 -420 -679 t-427 -906q-4 -2 -21 -2q-10 0 -16 6q-41 58 -117 75z" />
<glyph unicode="8" horiz-adv-x="948" d="M74 270q0 240 354 453q-123 90 -189.5 166t-66.5 170q0 156 109.5 261t281.5 128q121 0 216 -83t95 -202q0 -82 -43 -153.5t-93 -114.5t-150 -115q272 -193 272 -389q0 -182 -127 -292.5t-309 -139.5q-133 0 -241.5 90t-108.5 221zM231 313q0 -119 61.5 -199.5 t160.5 -80.5q117 0 185.5 88t68.5 205q0 174 -246 356q-111 -88 -170.5 -173t-59.5 -196zM305 1149q0 -139 246 -328q180 148 180 312q0 104 -56.5 176.5t-144.5 72.5q-92 0 -158.5 -73.5t-66.5 -159.5z" />
<glyph unicode="9" horiz-adv-x="1067" d="M96 543q0 209 135.5 351t352.5 179q168 0 264 -147t96 -387q0 -365 -209 -681.5t-545 -465.5q-27 6 -26 45q332 205 466 477t134 649q0 193 -55.5 311.5t-178.5 118.5q-127 0 -196.5 -120.5t-69.5 -260.5q0 -141 58.5 -246.5t166.5 -105.5q59 0 140 37q18 -12 18 -51 q-102 -66 -229 -66q-137 0 -229.5 107.5t-92.5 255.5z" />
<glyph unicode=":" horiz-adv-x="350" d="M33 104q49 84 149 123q80 -75 80 -151q0 -35 -53 -77t-100 -42q-35 98 -76 147zM106 811q51 88 150 123q80 -74 80 -150q0 -35 -53.5 -77.5t-100.5 -42.5q-33 96 -76 147z" />
<glyph unicode=";" horiz-adv-x="352" d="M-43 -244q160 127 160 201q0 55 -84 147q66 94 157 123q78 -98 78 -155q0 -106 -71.5 -187.5t-212.5 -171.5q-27 12 -27 43zM115 811q51 88 149 123q80 -74 80 -150q0 -35 -53 -77.5t-101 -42.5q-33 96 -75 147z" />
<glyph unicode="&#x3c;" horiz-adv-x="1015" d="M82 475l14 57l461 189q23 10 96.5 38.5t136 55.5t130.5 62q16 -8 16 -23q-10 -51 -16 -102l-625 -244l563 -219q-6 -29 -12 -101q-4 -8 -10.5 -14t-11.5 -7l-5 -1q-102 51 -319 139z" />
<glyph unicode="=" horiz-adv-x="1245" d="M109 317q25 61 36 101h525q202 0 395 18q14 -8 14 -35q-27 -53 -37 -100h-499q-180 0 -420 -16q-14 4 -14 32zM166 682q27 70 37 102h524q202 1 395 19q14 -8 15 -35q-27 -53 -37 -102h-500q-213 0 -420 -17q-14 6 -14 33z" />
<glyph unicode="&#x3e;" horiz-adv-x="1015" d="M80 188q8 66 10 101l645 252l-577 213q6 29 12 100q4 8 10 14t11 8l6 1q102 -51 319 -140l418 -170l-14 -57l-461 -188q-25 -10 -96.5 -38t-135 -55.5t-131.5 -62.5q-16 8 -16 22z" />
<glyph unicode="?" horiz-adv-x="784" d="M109 715q31 20 118.5 58t151 69.5t118 94t54.5 138.5t-48 154t-105.5 127t-105.5 89t-48 46q0 18 34.5 91t73.5 116q29 -4 49 -29q-4 -12 -12 -29.5t-10 -23.5q164 -141 232.5 -245.5t68.5 -250.5q0 -74 -32 -136t-94 -110.5t-113.5 -78t-127.5 -64.5q10 -20 27.5 -109.5 t17.5 -148.5q0 -23 -64.5 -69t-94.5 -46q0 66 -35 193t-55 164zM147 106q49 82 150 121q80 -75 80 -151q0 -35 -53.5 -77t-100.5 -42q-35 98 -76 149z" />
<glyph unicode="@" horiz-adv-x="1775" d="M92 254q0 225 91 425t239.5 334t338 212t384.5 78q268 0 408.5 -157t140.5 -435.5t-151.5 -472t-418.5 -285.5q-37 18 -59.5 65.5t-22.5 106.5q0 135 41 311q-72 -109 -123 -181.5t-145 -166.5t-178 -129q-72 12 -120 83t-48 185q0 164 92 315.5t242 260.5 q63 45 134 78.5t108.5 46t54.5 14.5q96 10 112 16l101 41q12 0 22 -14q-145 -694 -145 -780q0 -61 11 -88t42 -27q80 0 151.5 100.5t111.5 248t40 290.5q0 242 -113.5 375t-340.5 133q-211 0 -402.5 -136t-308.5 -367.5t-117 -493.5q0 -201 124 -365t327 -164q176 0 325 74 q25 -14 25 -61q-199 -92 -367 -93q-272 0 -439 181.5t-167 441.5zM623 293q0 -178 90 -178q88 0 239.5 208.5t194.5 397.5l31 131q-119 0 -179 -8q-98 -12 -187 -108.5t-139 -219.5t-50 -223z" />
<glyph unicode="A" horiz-adv-x="1378" d="M-55 16l4 19q98 29 147 90t156 278l491 1006q10 22 13 57l106 35l244 -1155q51 -223 80 -283q51 -6 94 -6q4 -6 4 -16q0 -23 -12 -47q-35 0 -121 3t-94 3q-139 0 -252 -16q-4 4 -4 22l4 29q84 18 115.5 44.5t31.5 76.5q0 33 -12 88l-66 307q-86 6 -217 6q-57 0 -134 -3 t-111 -3l-62 -131q-111 -229 -121 -361q41 -2 129 -2q2 -10 2 -24q0 -20 -8 -39q-41 0 -111.5 3t-82.5 3q-115 0 -207 -16q-6 25 -6 32zM442 631q8 0 88 -4t134 -4q118 0 196 6l-125 626z" />
<glyph unicode="B" horiz-adv-x="1245" d="M39 14l2 21q66 14 103.5 46t50 58.5t20.5 73.5q41 213 66 502q38 410 38 573v8q0 92 -14 99q-59 0 -151 -4q-6 10 -7 26q1 21 7 27q451 45 589 45q160 0 265.5 -82t105.5 -221q0 -145 -81 -240.5t-187 -132.5q276 -96 276 -369q0 -197 -149.5 -320.5t-431.5 -123.5 q-373 0 -494 -16q-8 10 -8 30zM391 133q0 -29 2 -51q66 -8 125 -8q408 0 408 344q0 152 -75 247t-202 95h-84q-2 8 -2 18q0 14 3 28.5t6 20.5l3 7h58q47 0 97 17t99.5 53t80 103.5t30.5 153.5q0 115 -63.5 185.5t-196.5 70.5q-86 0 -164 -16q-35 -188 -74 -606l-39 -443 q-12 -135 -12 -219z" />
<glyph unicode="C" horiz-adv-x="1392" d="M113 580q0 236 112.5 449.5t307 345.5t419.5 132q219 0 402 -65q12 -8 12 -19q0 -8 -10 -67.5t-23.5 -145.5t-19.5 -147q-14 -8 -37 -8q-16 0 -33 4q-12 227 -20 262q-41 43 -129 78t-170 35q-164 0 -304.5 -122t-217 -306.5t-76.5 -374.5q0 -111 22.5 -211.5 t70.5 -187.5t132 -139t197 -52q215 0 432 281q40 0 59 -41q-152 -242 -190 -254q-207 -68 -371 -68q-256 0 -410.5 176t-154.5 445z" />
<glyph unicode="D" horiz-adv-x="1509" d="M39 10l2 25q66 14 103.5 46t49 58.5t21.5 73.5q35 156 66 502q38 410 38 573v8q0 98 -16 99q-88 0 -149 -4q-6 12 -7 26q0 20 7 27q14 2 93 10t146.5 15.5t165.5 13.5t176 6q309 0 494.5 -155.5t185.5 -456.5q0 -227 -91 -428t-267 -329t-400 -128q-61 0 -156.5 4 t-115.5 4q-223 0 -342 -16q-4 16 -4 26zM391 100q108 -34 246 -34h8q176 0 309 109.5t199 282.5t66 378q0 262 -140.5 421.5t-384.5 159.5q-119 0 -178 -10q-27 -90 -72 -596q-53 -631 -53 -711z" />
<glyph unicode="E" horiz-adv-x="1234" d="M39 10l2 25q66 14 103.5 46t49 58.5t21.5 73.5q41 178 72 575q41 512 41 562q0 70 -9 69q-35 6 -124 6q-4 8 -5 19q0 8 9 37q41 0 112.5 -3t83.5 -3h287q84 0 255 7t185 7q27 0 27 -21q0 -4 -10.5 -51t-24.5 -133t-24 -170q-14 -6 -33 -6q-6 0 -31 6q-10 231 -16 254 q-162 43 -357 43q-80 0 -131 -8q-16 -35 -28 -135q-12 -90 -45 -465q27 -8 151 -8q131 0 205 10q92 10 121 82q31 0 49 -13q-29 -152 -39 -323q-16 -4 -21 -4l-30 8v156q-111 18 -285 18q-88 0 -160 -10l-32 -373q-12 -129 -13 -272q51 -8 129 -8q193 0 391 55 q14 23 30 53.5t25 53t23.5 59.5t22.5 55q31 0 59 -16q-29 -102 -65 -295q-6 -23 -27 -25q-82 -14 -215 -14q-72 0 -184.5 4t-130.5 4h-103q-188 0 -307 -16q-4 16 -4 26z" />
<glyph unicode="F" horiz-adv-x="1218" d="M39 10l2 25q66 14 103.5 46t49 58.5t21.5 73.5q41 178 72 575q41 512 41 562q0 70 -9 69q-35 6 -124 6q-4 8 -5 19q0 8 9 37q41 0 112.5 -3t83.5 -3h287q88 0 268 7t197 7q27 0 27 -21q0 -2 -10.5 -50t-26 -134t-23.5 -170q-16 -6 -33 -6q-12 0 -30 6q-10 231 -17 254 q-176 43 -381 43q-80 0 -131 -8q-20 -37 -78 -623q45 -8 154 -8q115 0 205 12q92 8 121 82q29 0 49 -14q-27 -129 -39 -326q-16 -4 -23 -4l-28 8v158q-74 18 -285 19q-111 0 -162 -11l-18 -237q-23 -289 -23 -383q86 -12 234 -13q2 -20 2 -30q0 -25 -8 -39q-66 0 -158 3 t-115 3q-188 0 -307 -16q-4 16 -4 26z" />
<glyph unicode="G" horiz-adv-x="1439" d="M109 580q0 236 112.5 449.5t308 345.5t420.5 132q219 0 402 -65q10 -8 10 -19q0 -8 -9.5 -67.5t-22.5 -145.5t-19 -147q-14 -8 -39 -8q-16 0 -33 4q-8 217 -18 262q-41 43 -130.5 78t-170.5 35q-162 0 -302.5 -122t-218 -306.5t-77.5 -374.5q0 -111 23.5 -211.5 t70.5 -187.5t131.5 -139t197.5 -52q82 0 165 24.5t128 67.5l41 365q-80 10 -211 10q-6 14 -6 27q0 10 3 20t6 15l3 5q55 0 164 -2t131 -2q113 0 197 17q4 -16 4 -31l-4 -31q-55 -8 -84 -33.5t-43 -99.5l-53 -278q-82 -66 -225.5 -111t-286.5 -45q-254 0 -409.5 177 t-155.5 444z" />
<glyph unicode="H" horiz-adv-x="1581" d="M39 10l2 25q66 14 103.5 46t49 58.5t21.5 73.5q41 178 72 575q41 512 41 562q0 70 -9 69q-35 6 -124 6q-4 8 -5 19q0 8 9 37q41 0 108.5 -3t79.5 -3q170 0 266 8q8 -12 9 -31l-5 -20q-78 -23 -106.5 -62t-42.5 -108q-23 -121 -59 -451q180 -8 395 -8q82 0 199.5 4 t144.5 4l26 319q12 147 13 220q0 70 -8 69q-37 6 -127 6q-2 8 -2 23q0 18 8 33q41 0 108.5 -3t79.5 -3q166 0 262 8q8 -8 8 -31l-2 -20q-78 -23 -108.5 -63.5t-42.5 -106.5q-39 -201 -74 -613l-26 -305q-10 -123 -11 -215q0 -66 8 -66q35 -6 136 -6q4 -10 4 -24 q0 -10 -8 -39q-41 0 -111 3t-82 3q-197 0 -321 -16q-6 8 -7 26l4 25q109 20 147 62t52 116q27 145 66 508q-51 0 -162 5t-182 5q-150 0 -396 -10l-32 -377q-12 -147 -13 -215q0 -66 8 -66q33 -6 127 -6q2 -10 2 -24q0 -20 -8 -39q-41 0 -105.5 3t-76.5 3q-180 0 -299 -16 q-4 16 -4 26z" />
<glyph unicode="I" horiz-adv-x="694" d="M18 16l5 17q115 25 148.5 58.5t47.5 107.5q43 233 66 522l18 229q23 260 23 391q0 78 -15 78q-68 6 -147 6q-2 8 -2 19q0 23 8 37q43 0 144.5 -3t117.5 -3q14 0 102.5 3t131.5 3q4 -8 4 -23l-8 -33q-80 0 -123 -6q-33 -4 -72 -469l-27 -334q-28 -325 -28 -488v-11 q0 -61 6 -62q49 -6 190 -6q4 -8 4 -18q0 -8 -8 -37q-53 0 -150.5 3t-111.5 3q-188 0 -315 -16q-8 16 -9 32z" />
<glyph unicode="J" horiz-adv-x="669" d="M-90 -518l104 108q115 123 163 284t75 468l45 545q29 326 29 450q0 80 -13 80q-80 8 -168 8q-4 8 -4 23q0 6 3 18.5t3 14.5q51 0 141.5 -3t106.5 -3q154 0 236 16q8 -10 8 -31l-2 -20q-29 -6 -50.5 -24.5t-35.5 -49.5t-21.5 -50.5t-15.5 -53.5q-24 -84 -55 -453l-58 -637 q-25 -252 -70.5 -357.5t-193.5 -224.5l-196 -155q-31 8 -31 47z" />
<glyph unicode="K" horiz-adv-x="1320" d="M39 10l2 25q113 23 150.5 61.5t52.5 116.5q39 233 69 575q41 477 41 562q0 70 -8 69q-35 6 -125 6q-2 8 -2 19q0 18 8 37q39 0 112 -3t85 -3q166 0 262 8q8 -12 8 -31l-4 -20q-78 -23 -106.5 -62t-42.5 -108q-29 -123 -52 -371l-47 -547q-10 -123 -10 -215q0 -66 8 -66 q41 -6 148 -6q2 -10 2 -24q0 -20 -8 -39q-45 0 -117 3t-88 3q-205 0 -334 -16q-4 16 -4 26zM541 821l264 252q170 166 258 330q-33 20 -139 24q0 37 10 56q186 -8 246 -8q16 0 129 10q12 -12 12 -33q0 -10 -2 -18q-121 -72 -205 -156l-407 -399l208 -418q102 -209 166 -302 t109 -100q33 -4 121 -4q6 -18 6 -24q0 -14 -8 -31q-70 -4 -138.5 -14.5t-109.5 -18.5t-51 -8q-33 0 -132.5 183.5t-212 420t-124.5 258.5z" />
<glyph unicode="L" horiz-adv-x="1196" d="M39 10l2 25q66 14 103.5 46t49 58.5t21.5 73.5q35 154 72 575q41 477 41 562q0 70 -9 69q-35 6 -124 6q-4 8 -5 19q0 8 9 37q41 0 112.5 -3t83.5 -3q193 0 310 8q8 -8 8 -31l-2 -20q-104 -23 -141.5 -59t-55.5 -101q-31 -129 -53 -381l-45 -547q-12 -127 -13 -205 q0 -47 5 -65q59 -8 149 -8q193 0 391 55q18 29 37 67.5t41.5 98t28.5 73.5q31 0 59 -16q-20 -76 -42.5 -181.5t-29.5 -131.5q-2 -23 -26 -25q-76 -14 -215 -14q-72 0 -185 4t-131 4h-135q-188 0 -307 -16q-4 16 -4 26z" />
<glyph unicode="M" horiz-adv-x="1861" d="M23 14l2 21q88 20 125.5 65t52.5 111q78 387 143 1106q-35 68 -98 100q-35 14 -123 23q0 31 14 53q70 -4 107 -4q47 0 114.5 4t83.5 4q49 0 187 -326q63 -152 133 -365.5t119 -379.5t51 -172q43 90 282.5 564t317.5 657q190 0 301 18q6 -25 6 -27l-4 -24 q-94 -23 -132 -68t-48 -112q-25 -147 -51 -650q-10 -164 -11 -389q0 -111 2 -168q33 -6 148 -6q2 -8 2 -18q0 -18 -8 -37q-39 0 -108.5 3t-82.5 3q-193 0 -313 -16q-8 10 -8 30l2 21q104 20 144 60t50 112q20 164 43 604l17 336q-92 -145 -309.5 -568t-294.5 -626l-52 14 q-280 904 -362 1092l-66 151q-57 -535 -69 -688q-18 -221 -19 -467q43 -6 148 -6q2 -8 2 -18q0 -18 -8 -37q-47 0 -122 3t-87 3q-127 0 -213 -16q-8 10 -8 30z" />
<glyph unicode="N" horiz-adv-x="1636" d="M31 10l2 25q90 23 123.5 65.5t50.5 112.5q63 293 139 1124q-53 59 -85 76t-124 27q-4 8 -4 20q0 23 8 33q39 -2 90 -2q63 0 128 5t83 5q57 0 338 -422q252 -375 498 -800q6 162 37 552t31 498q0 47 -3 90q-43 6 -149 6q-6 10 -6 24.5t8 31.5q47 0 114.5 -3t82.5 -3 q129 0 215 16q4 -6 4 -23l-4 -28q-90 -23 -120 -64t-38 -114q-41 -283 -131 -1293l-49 -20q-63 109 -277.5 444.5t-296.5 468.5q-174 283 -295 414q-6 -78 -25.5 -298t-29.5 -347t-19.5 -277.5t-9.5 -224.5q0 -41 2 -74q41 -6 146 -6q2 -8 2 -22q0 -20 -8 -33q-47 0 -121 3 t-86 3q-129 0 -217 -16q-4 8 -4 26z" />
<glyph unicode="O" horiz-adv-x="1529" d="M113 580q0 168 37.5 309t98 233t137.5 166t150.5 113t144.5 64.5t112 33.5t59 8q254 0 418 -181t164 -443q0 -168 -37 -308.5t-93.5 -233.5t-131 -165t-146.5 -111.5t-143.5 -65.5t-115.5 -33t-71 -7q-256 0 -419.5 178t-163.5 443zM305 686q0 -250 126 -435t331 -185 q123 0 218 62t149.5 166.5t82 229.5t27.5 262q0 242 -120 429.5t-326 187.5q-160 0 -273.5 -109.5t-164 -267.5t-50.5 -340z" />
<glyph unicode="P" horiz-adv-x="1155" d="M39 10l2 25q66 14 103.5 46t49 58.5t21.5 73.5q35 156 66 502q38 410 38 573v8q0 98 -16 99q-88 0 -149 -4q-6 12 -7 26q0 20 7 27q10 0 91 9t146.5 16.5t160.5 13.5t169 6q197 0 315.5 -101.5t118.5 -291.5q0 -205 -146.5 -360.5t-359.5 -155.5q-106 0 -139 2 q-2 10 -2 24q0 16 4 28.5t7 17.5l3 5q25 -2 84 -2q156 0 257.5 121t101.5 281q0 166 -82 263t-221 97q-76 0 -146 -16q-35 -188 -80 -680l-33 -377q-10 -127 -10 -215q0 -66 8 -66q49 -6 220 -6q2 -10 2 -24q0 -20 -9 -39q-59 0 -152 3t-112 3q-188 0 -307 -16q-4 16 -4 26z " />
<glyph unicode="Q" horiz-adv-x="1513" d="M113 580q0 168 37.5 309t98 233t137.5 166t150.5 113t144.5 64.5t112 33.5t59 8q254 0 418 -181t164 -443q0 -307 -99.5 -509t-287.5 -390q-168 -168 -455 -314q104 -8 360 -101t332 -93q35 0 193 139q33 -10 53 -47l-236 -254q-133 6 -448.5 113.5t-446.5 107.5 q-72 0 -155 -33q-31 31 -31 72q262 113 432 216.5t291 227.5q145 152 224 361t79 393q0 154 -48 294t-153.5 238.5t-244.5 98.5q-160 0 -273.5 -109.5t-164 -267.5t-50.5 -340q0 -139 50.5 -279.5t151.5 -240.5t228 -100q0 -2 -12 -18.5t-21.5 -27t-28 -29t-40.5 -32.5 q-215 0 -367.5 193.5t-152.5 427.5z" />
<glyph unicode="R" horiz-adv-x="1277" d="M39 10l2 25q66 14 103.5 46t49 58.5t21.5 73.5q35 156 66 502q38 410 38 573v8q0 98 -16 99q-88 0 -149 -4q-6 12 -7 26q0 20 7 27q4 0 114.5 14.5t215 22.5t198.5 8q203 0 316.5 -99.5t113.5 -259.5q0 -176 -87 -279t-265 -173q51 -119 123 -260q98 -195 152.5 -272.5 t103.5 -86.5q31 -4 114 -4q6 -18 7 -24q0 -14 -9 -31q-72 -4 -139.5 -14.5t-108 -18.5t-51.5 -8q-53 0 -262 451l-125 278q199 70 272.5 164t73.5 248q0 127 -72.5 222t-205.5 95q-47 0 -117 -16q-35 -186 -80 -680l-33 -377q-10 -127 -10 -215q0 -66 8 -66q33 -6 138 -6 q2 -10 2 -24q0 -20 -9 -39q-41 0 -105.5 3t-76.5 3q-188 0 -307 -16q-4 16 -4 26z" />
<glyph unicode="S" horiz-adv-x="1114" d="M68 33l38 395q14 8 35 8q25 0 45 -10q2 -207 43 -270q74 -123 281 -123q119 0 202 85t83 218q0 98 -64.5 175t-200.5 159q-197 119 -276.5 203.5t-79.5 205.5q0 201 154.5 314.5t367.5 113.5q84 0 183.5 -24.5t152.5 -50.5l-51 -353q-16 -8 -33 -8q-20 0 -37 8 q-10 227 -49 273q-31 37 -93 62.5t-130 25.5q-119 0 -199 -76t-80 -201q0 -86 68 -155.5t221 -163.5q70 -43 117 -78t103.5 -90t85 -124t28.5 -149q0 -205 -157.5 -324.5t-360.5 -119.5q-109 0 -230.5 24.5t-166.5 49.5z" />
<glyph unicode="T" horiz-adv-x="1275" d="M41 1122l65 344q6 23 35 23q14 0 136 -7t184 -7h454q72 0 207 7t148 7q30 0 30 -15q0 -3 -11 -52.5t-26.5 -130.5t-23.5 -154q-14 -8 -34.5 -8.5t-30.5 8.5l-17 233q-76 41 -254 41q-68 0 -110 -10q-43 -92 -78 -557l-29 -377q-12 -147 -12 -270q0 -92 4 -125 q82 -14 192 -15q4 -10 4 -24q0 -10 -8 -39q-63 0 -171.5 3t-131.5 3q-227 0 -360 -16q-6 8 -6 22l6 29q131 23 185 56.5t73 98.5q41 160 74 525q38 417 38 605v9q0 31 -2 72q-48 10 -114 10q-174 0 -250 -41q-8 -18 -44 -112.5t-63 -151.5q-41 0 -59 16z" />
<glyph unicode="U" horiz-adv-x="1564" d="M164 1444q0 18 8 37q41 0 102.5 -3t75.5 -3q168 0 271 16q8 -12 8 -31l-4 -20q-92 -23 -123 -55.5t-43 -98.5q-27 -145 -49 -401q-31 -369 -31 -383q0 -213 92 -334t277 -121q240 0 346 144.5t133 441.5q4 57 14 168.5t13 150.5t9.5 115t7.5 120t3 105.5t2 126.5 q-41 6 -160 6q-2 10 -2 25q0 18 6 31q47 0 127 -3t94 -3q135 0 213 16q8 -12 9 -31l-4 -20q-61 -14 -100.5 -55.5t-50.5 -74t-22 -83.5q-41 -236 -75 -645q-27 -301 -175.5 -462t-412.5 -161q-502 0 -502 510q0 70 25 416q35 522 35 534q-35 6 -115 6q-2 8 -2 19z" />
<glyph unicode="V" horiz-adv-x="1513" d="M84 1440q0 27 14 51q115 -16 293 -16q92 0 246 6q2 -14 2 -31l-6 -25q-106 0 -150 -2q0 -248 99 -596l172 -606l297 606q90 186 160.5 362.5t74.5 227.5q-35 8 -139 8q-2 8 -2 23q0 18 8 33q117 -6 190 -6q121 0 216 16q6 -10 6 -25l-2 -26q-76 -23 -121 -72 q-63 -72 -119.5 -173t-189.5 -368l-451 -907h-29l-307 1063q-84 309 -141 393q-25 35 -121 64z" />
<glyph unicode="W" horiz-adv-x="2009" d="M31 1440q0 29 10 51q115 -16 293 -16q80 0 231 6q6 -18 6 -23l-8 -33q-104 0 -151 -2q0 -205 102 -596l164 -620l305 571q-16 59 -42 155.5t-41 151t-34.5 119t-35 106.5t-29.5 68q-16 33 -82 54q0 29 8 51q90 -8 248 -8q131 -2 190 -2l181 2q94 0 161 8q8 -14 9 -31 l-3 -20q-43 -14 -71 -54q-70 -94 -305 -508l184 -663l276 620q193 430 224 590q-33 8 -140 8q-2 8 -2 19q0 18 9 37q123 -6 190 -6q98 0 195 16q6 -18 6 -23l-6 -28q-47 -18 -91 -62q-39 -41 -105.5 -157.5t-98.5 -188.5l-508 -1112h-47l-209 760l-400 -760h-30l-295 1063 q-92 332 -139 393q-29 37 -119 64zM1008 1419q0 -150 98 -471q184 375 207 471q-2 0 -25.5 1t-58.5 3t-66 2q-37 0 -96 -3z" />
<glyph unicode="X" horiz-adv-x="1449" d="M27 16l4 19q133 111 370 399l238 285q-12 27 -62.5 144.5t-82.5 193.5q-86 190 -158 284q-45 53 -81 73t-118 26q-6 10 -6 24q0 18 8 29q33 -2 84 -2q35 0 105.5 5t113.5 5q10 0 39 -35.5t76 -115.5t92 -181q94 -209 139 -315l146 180q102 125 143 183.5t113 189.5 q-92 4 -172 4q-2 12 -2 29q0 18 8 35h188q115 0 244 16q8 -20 8 -31l-4 -20q-92 -49 -185 -136t-228 -249l-228 -279q37 -92 162 -364q154 -332 270 -346q33 -2 109 -3q2 -8 2 -28q0 -14 -4 -35q-66 -4 -134.5 -14.5t-111.5 -18.5t-53 -8q-18 0 -50 34t-81 113.5t-101 192.5 q-106 225 -155 348l-97 -117q-193 -238 -305 -462q90 -4 158 -5q4 -12 4 -28q0 -25 -8 -35h-186q-74 0 -199 -16q-12 16 -12 32z" />
<glyph unicode="Y" horiz-adv-x="1204" d="M0 1458q0 18 8 35q6 0 43 -1t53 -1q25 0 86.5 5t96.5 5q10 0 41.5 -39t74.5 -111.5t86 -162.5t81 -206t55 -226q63 180 155 377q90 188 178.5 281t157.5 93q71 0 129 -59q-31 -94 -88 -154q-29 27 -46 35t-48 8q-53 0 -123 -89t-131 -224q-150 -333 -164 -573 q-6 -82 -6 -220q0 -31 1 -85t1 -74q76 -14 188 -15q0 -41 -4 -63q-59 0 -154.5 3t-115.5 3q-213 0 -356 -16q-4 8 -4 26l2 25q133 16 185 56t71 106q30 119 30 312v13q0 209 -92 437.5t-205 383.5q-39 53 -73.5 73t-110.5 24q-2 8 -2 18z" />
<glyph unicode="Z" horiz-adv-x="1390" d="M43 14q0 10 4 19l1004 1362h-246q-330 0 -483 -52l-101 -243q-10 -2 -24 -2q-16 0 -35 14l61 346q4 23 39 23q14 0 204.5 -3t305.5 -3h113q225 0 409 26q16 -12 17 -35l-2 -18l-1008 -1366q154 10 324 10q342 0 432 66q72 53 145 221q8 4 19 4q27 0 49 -21 q-59 -203 -88 -329q-6 -25 -27 -27q-14 -4 -90 -4q-123 0 -170 4q-176 4 -338 4q-260 0 -500 -35q-14 20 -14 39z" />
<glyph unicode="[" horiz-adv-x="614" d="M123 -385q43 219 100 907l31 344q57 700 57 906q10 20 31 20q147 -68 322 -96q6 -8 6 -25q0 -14 -13 -31l-135 -12q-53 -8 -69.5 -44t-24.5 -118q-4 -61 -25.5 -295.5t-25.5 -271.5l-35 -410q-49 -580 -49 -610q0 -66 11 -88t56 -31l132 -14q6 -10 6 -27l-13 -28 q-184 -29 -338 -94z" />
<glyph unicode="\" horiz-adv-x="677" d="M84 1778q70 31 104 57q6 2 17 2l22 -10q8 -153 172 -1034l183 -943l-105 -61q-4 -2 -12 -2l-25 10q-10 154 -159 959z" />
<glyph unicode="]" horiz-adv-x="671" d="M0 -285q0 10 10 31q90 8 137 14q51 6 67.5 42t25.5 118q12 168 53 569l35 410q49 561 49 608q0 66 -11.5 89.5t-56.5 31.5l-131 12q-6 12 -6 29l10 27q176 29 340 96l25 -20q-49 -248 -103 -906l-28 -344q0 -6 -12.5 -149.5t-20.5 -248t-16.5 -256t-8.5 -253.5 q-12 -18 -30 -18q-141 66 -322 94q-6 8 -6 24z" />
<glyph unicode="^" horiz-adv-x="1001" d="M47 754q416 735 582 999h57q80 -299 234 -1005q-37 -35 -82 -35l-213 819l-510 -819q-39 0 -68 41z" />
<glyph unicode="_" horiz-adv-x="1165" d="M0 -186q21 45 35 98h555q326 0 559 20q16 -6 16 -32q-25 -45 -35 -99h-546q-332 0 -568 -16q-16 8 -16 29z" />
<glyph unicode="`" horiz-adv-x="1234" d="M387 1526q25 82 111 102q140 -206 362 -416q-6 -22 -33 -38q-285 188 -440 352z" />
<glyph unicode="a" horiz-adv-x="1099" d="M82 256q0 199 89 356.5t222 257.5q66 49 142.5 86t115.5 49.5t62 16.5q137 14 145 18l107 41q10 0 24 -14q-90 -487 -121 -754q-2 -18 -2 -53q0 -121 37 -121q6 0 129 43q19 -14 19 -49q-68 -29 -125.5 -59.5t-81 -48t-57 -45t-35.5 -29.5l-33 14q-23 33 -23 148 q0 119 41 348q-264 -422 -473 -502q-76 14 -129 92t-53 205zM240 328q0 -205 102 -205q96 0 252 216t199 421l34 168q-137 0 -219 -10q-115 -14 -241.5 -187.5t-126.5 -402.5z" />
<glyph unicode="b" horiz-adv-x="1083" d="M90 -18q27 90 64 370l98 772q51 393 51 447q0 82 -63 84l-127 6q-6 12 -7 25l7 26q188 29 348 82q20 0 24 -18q-41 -285 -168 -1258q227 469 453 524q96 -12 158.5 -102t62.5 -221q0 -172 -49 -312.5t-118.5 -220.5t-150.5 -134t-137.5 -73.5t-86.5 -19.5 q-35 0 -121 20.5t-99 20.5l-104 -43q-10 2 -19.5 8t-12.5 11zM279 125q45 -18 109.5 -33.5t105.5 -22t53 -6.5q102 0 192 177.5t90 400.5q0 109 -36 173.5t-97 64.5q-68 0 -159 -103.5t-160.5 -246t-81.5 -250.5z" />
<glyph unicode="c" horiz-adv-x="837" d="M92 285q0 170 51.5 310t121 220t150.5 134.5t133 73.5t75 19h2q31 0 180 -26q0 -10 -3 -31.5t-18.5 -59.5t-38.5 -65q-160 80 -223 80q-86 0 -174 -176t-88 -406q0 -113 43 -193.5t113 -80.5q127 0 307 123q20 -6 29 -41l-250 -164q-53 -43 -164 -43q-121 0 -183.5 96.5 t-62.5 229.5z" />
<glyph unicode="d" horiz-adv-x="1124" d="M96 264q0 174 57.5 317.5t136.5 225.5t169 138t148.5 76.5t80.5 20.5q27 0 150 -20q4 39 24.5 184.5t30.5 233.5t10 131q0 45 -13 62.5t-44 21.5l-133 6q-6 25 -6 27q0 6 6 24q195 29 350 82q14 0 24 -18l-137 -1012q-47 -334 -47 -488q0 -137 41 -137q6 0 28.5 8.5 t53.5 19.5t45 15q19 -12 19 -49q-180 -72 -302 -182l-34 16q-18 119 -19 205q0 84 21 289q-248 -416 -492 -502q-76 10 -122 96t-46 209zM256 346q0 -104 25.5 -163.5t68.5 -59.5q72 0 176.5 107.5t186.5 259t96 270.5l16 135q-43 12 -100 23.5t-93 16.5t-44 5 q-117 0 -224.5 -191.5t-107.5 -402.5z" />
<glyph unicode="e" horiz-adv-x="837" d="M88 311q0 229 126 430t343 301q117 0 180.5 -43.5t63.5 -156.5q0 -170 -230 -320q-152 -102 -317 -129q0 -137 40 -223t116 -86q125 0 309 123q23 -4 26 -41l-247 -164q-63 -43 -164 -43q-123 0 -184.5 98.5t-61.5 253.5zM256 440q137 33 246 125q131 117 131 223 q0 170 -117 170q-70 0 -158 -170t-102 -348z" />
<glyph unicode="f" horiz-adv-x="591" d="M-360 -729q20 100 81 149q61 -45 125 -75.5t97 -30.5q53 0 110.5 134t79.5 333l127 1137l-143 -3q-12 6 -13 21q16 39 25 74h139l27 200q18 137 70.5 243t111 162t125 91t106.5 45t62 10q106 0 231 -80q-27 -111 -108 -149q-57 59 -116.5 100t-90.5 41q-68 0 -147 -133 t-95 -278l-28 -252q102 0 231 8q14 -4 15 -25q-18 -33 -25 -73h-234l-108 -1061q-16 -168 -64.5 -294t-101.5 -188.5t-114.5 -100.5t-94.5 -46t-53 -8q-96 0 -227 49z" />
<glyph unicode="g" horiz-adv-x="1021" d="M-82 -530q0 70 50 143.5t173 199.5t176 187q-229 45 -229 285q0 150 60.5 283.5t153.5 224t192.5 149.5t191.5 80q172 27 188 35l87 49q18 -2 24 -19l-29 -126q-31 -137 -82 -510q-30 -220 -30 -437v-14v-174q0 -180 -90 -322.5t-218 -212t-260 -69.5q-164 0 -261 60.5 t-97 187.5zM80 -475q0 -82 65.5 -143.5t221.5 -61.5q335 0 335 464q0 36 -3 122t-3 141q0 186 27 387q-43 -84 -154.5 -222t-217 -255t-188.5 -240t-83 -192zM246 344q0 -90 30.5 -144.5t122.5 -54.5q47 0 128 99.5t156 248t101 275.5l35 160q-123 0 -239 -10 q-111 -10 -222.5 -198t-111.5 -376z" />
<glyph unicode="h" horiz-adv-x="1120" d="M104 -41l150 1165q51 401 51 447q0 43 -14.5 61.5t-46.5 22.5q-63 6 -129 6q0 2 -2 7t-3 9t-1 9l6 26q188 29 350 82q16 0 24 -18l-176 -1284q211 471 451 550q197 0 197 -264q0 -100 -34 -295.5t-34 -230.5q0 -41 2 -59.5t11 -30.5t28 -12q8 0 100 32q20 -12 21 -49 q-154 -61 -301 -182l-33 14q-6 29 -6 94q0 119 43 344.5t43 292.5q0 183 -99 183q-98 -1 -244 -221t-169 -427l-25 -231z" />
<glyph unicode="i" horiz-adv-x="557" d="M80 844q74 41 164 105.5t135 107.5l37 -10q2 -25 2 -66q0 -154 -48 -416t-48 -336q0 -90 30 -90q18 0 131 43q18 -12 19 -49q-184 -76 -305 -182l-33 14q-16 33 -17 125q0 98 48.5 335t48.5 329q0 84 -37 84q-27 0 -109 -43q-18 18 -18 49zM346 1509q47 76 139 107 q72 -63 72 -131q0 -31 -49 -67t-92 -36q-31 86 -70 127z" />
<glyph unicode="j" horiz-adv-x="518" d="M-154 -745l95 90q74 74 113.5 183t68.5 322l92 691q20 143 21 194q0 102 -41 103q-23 0 -105 -43q-8 4 -16 21.5t-8 27.5q72 39 160.5 104.5t133.5 108.5l35 -10q6 -47 6 -99q0 -66 -7 -140.5t-21.5 -182t-18.5 -133.5l-75 -607q-27 -215 -78 -326.5t-174 -213.5 l-152 -129q-29 6 -29 39zM303 1509q47 76 139 107q72 -63 72 -131q0 -31 -50 -67t-93 -36q-33 90 -68 127z" />
<glyph unicode="k" horiz-adv-x="1007" d="M104 -41l150 1165q51 401 51 447q0 43 -14.5 61.5t-46.5 22.5q-59 6 -129 6q0 2 -2 7t-3 9t-1 9l6 26q188 29 350 82q16 0 24 -18l-170 -1254q207 434 445 520q184 -29 184 -190q0 -121 -73.5 -221.5t-192.5 -149.5q0 -76 47 -225.5t105 -149.5q12 0 92 31q16 -14 16 -49 q-164 -61 -237 -135l-39 14q-43 82 -88.5 242t-53.5 272q125 49 193.5 140.5t68.5 171.5q0 43 -19 70.5t-54 27.5q-80 0 -177.5 -116t-164 -259t-76.5 -235l-31 -281z" />
<glyph unicode="l" horiz-adv-x="532" d="M115 1686l6 26q188 29 348 82q20 0 25 -18l-86 -643q-6 -39 -30 -209t-34 -250t-21.5 -201t-11.5 -197q0 -135 41 -135q8 0 131 45q18 -14 19 -49q-158 -63 -305 -186l-35 16q-16 80 -17 189q1 158 21 305l90 663q55 403 55 447q0 82 -63 84q-59 6 -127 6q-6 12 -6 25z " />
<glyph unicode="m" horiz-adv-x="1632" d="M49 844q154 84 287 213l35 -10q8 -55 8 -129q0 -103 -35 -416q176 457 404 540q178 0 178 -264q0 -98 -31 -270q182 457 401 534q178 0 179 -264q0 -100 -34 -295.5t-34 -230.5q0 -41 2 -59.5t11.5 -30.5t27.5 -12q31 0 100 32q18 -14 19 -49q-68 -27 -124.5 -57.5 t-90 -54t-97.5 -70.5l-32 14q0 170 47 418t47 313q0 182 -88 183q-55 0 -136 -100.5t-147.5 -256t-83.5 -293.5l-26 -239l-156 -31q90 623 90 731q0 188 -90 189q-55 0 -136 -99.5t-147.5 -254t-83.5 -294.5l-26 -241l-156 -31l76 559q16 131 16 187q0 133 -53 133 q-14 0 -96 -43q-25 20 -25 49z" />
<glyph unicode="n" horiz-adv-x="1138" d="M49 844q154 84 287 213l35 -10q8 -55 8 -129q0 -63 -6 -133t-19.5 -168.5t-15.5 -124.5q211 471 448 550q195 0 195 -264q0 -100 -35 -295.5t-35 -230.5q0 -59 7.5 -80.5t33.5 -21.5q29 0 103 32q18 -18 18 -49q-152 -61 -311 -182l-33 14q0 168 46 417t46 314 q0 98 -24.5 140.5t-73.5 42.5q-96 0 -240.5 -219.5t-169.5 -428.5l-26 -241l-156 -31l76 559q16 131 16 187q0 133 -53 133q-14 0 -96 -43q-25 20 -25 49z" />
<glyph unicode="o" horiz-adv-x="1042" d="M92 344q0 225 121 408q92 137 230.5 213.5t205.5 76.5q129 0 215 -107.5t86 -281.5q0 -207 -92 -377q-45 -84 -112.5 -150.5t-132 -100t-114.5 -50t-79 -16.5q-133 0 -230.5 105.5t-97.5 279.5zM270 399q0 -348 211 -348q123 0 210 173t87 376q0 162 -49 255t-147 93 q-90 0 -163 -84t-111 -209t-38 -256z" />
<glyph unicode="p" horiz-adv-x="1091" d="M-109 -713l3 25q84 10 115.5 43t45.5 96q45 207 109 678l51 389q16 106 16 187q0 141 -43 141q-18 0 -129 -43q-16 12 -16 49q160 86 283 205l34 -10q23 -74 23 -179q-1 -80 -21 -268q219 369 441 442q92 -12 151.5 -102t59.5 -221q0 -164 -48 -296t-115 -208 t-145.5 -127t-134 -69.5t-86.5 -18.5h-192q-74 -526 -74 -600q0 -66 17 -66q49 -4 208 -4q6 -16 7 -35q0 -23 -7 -32h-315q-131 0 -229 -8q-8 14 -9 32zM305 125q121 -20 277 -21q98 0 184 165t86 372q0 109 -35 173.5t-94 64.5q-88 0 -207 -147.5t-164 -303.5 q-35 -160 -47 -303z" />
<glyph unicode="q" horiz-adv-x="1038" d="M82 256q0 199 89 356.5t222 257.5q66 49 142.5 86t115.5 49.5t62 16.5q137 14 145 18l107 41q10 0 24 -14q-61 -332 -90 -537q-135 -956 -135 -1081q0 -117 121 -127q6 -12 6 -27q0 -16 -8 -26q-201 -8 -252 -12l-269 -21q-8 20 -8 35l6 33q164 12 203 18q18 4 99 553 l86 586q-2 -4 -54.5 -76t-74 -100.5t-76 -94t-91 -100.5t-89 -74t-99.5 -57q-76 14 -129 92t-53 205zM240 328q0 -205 102 -205q96 0 252 216t199 421l34 168q-137 0 -219 -10q-115 -14 -241.5 -187.5t-126.5 -402.5z" />
<glyph unicode="r" horiz-adv-x="808" d="M49 844q154 84 287 213l35 -10q12 -71 12 -148q0 -92 -14 -211q133 270 295 354q94 0 172 -28q-39 -145 -60 -340q-12 -4 -31 -4q-14 0 -30 4l-19 186q-31 18 -80 19q-68 0 -156.5 -136.5t-113.5 -261.5q-33 -195 -59 -491l-156 -31l76 559q16 131 16 187q0 133 -53 133 q-14 0 -96 -43q-25 20 -25 49z" />
<glyph unicode="s" horiz-adv-x="866" d="M41 33l88 278q27 0 49 -14q-6 -25 -6 -125q0 -47 2 -63q49 -74 209 -74q66 0 117 50t51 128q0 59 -40 117.5t-97.5 106.5t-113.5 97.5t-96 111t-40 126.5q0 133 102.5 206t249.5 73q143 0 270 -54q-35 -100 -59 -249q-8 -2 -25 -3q-22 1 -24 7l-16 176q-72 53 -197 53 q-154 0 -154 -147q0 -53 64.5 -128t143.5 -139.5t143.5 -148.5t64.5 -156q0 -129 -107.5 -216t-259.5 -87q-82 0 -178 23.5t-141 50.5z" />
<glyph unicode="t" horiz-adv-x="636" d="M84 936q23 43 29 74h135q20 0 34.5 101t14.5 144q78 31 162 127q23 0 35 -12q-50 -215 -70 -360q92 0 199 12q14 -10 14 -25q-20 -31 -31 -77h-198l-62 -369q-35 -213 -35 -324q0 -61 39 -61q63 0 209 53q16 -23 16 -61q-139 -57 -206.5 -93t-188.5 -114l-33 14 q-8 33 -8 107q0 145 54.5 475t54.5 352q0 18 -12 19q-66 0 -140 -3q-12 6 -12 21z" />
<glyph unicode="u" horiz-adv-x="1130" d="M72 844q139 100 266 213l37 -10q8 -66 8 -107q0 -90 -39 -317.5t-39 -288.5q0 -211 88 -211q109 0 250 237.5t186 475.5l33 174l152 24q-123 -719 -123 -780q0 -115 27 -115q25 0 131 43q18 -12 18 -49q-96 -39 -151.5 -76t-135.5 -106l-32 14q-12 39 -13 125 q0 176 43 426q-74 -184 -191.5 -345t-250.5 -212q-80 0 -134.5 65.5t-54.5 198.5q0 109 38 326t38 303q-6 0 -27.5 -10.5t-53 -25.5t-46.5 -21q-8 8 -14 20t-8 21z" />
<glyph unicode="v" horiz-adv-x="882" d="M23 811q27 29 233 256l33 -2q27 -55 45 -131t23 -126t12.5 -146.5t9.5 -120.5q12 -135 20 -408q168 158 248 307.5t80 253.5q0 152 -104 209q49 109 141 152q86 -51 86 -172q0 -215 -140.5 -455t-416.5 -469h-29q-25 442 -49 666q-23 219 -59 219q-6 0 -20.5 -10.5 t-41 -33t-37.5 -30.5q-29 10 -34 41z" />
<glyph unicode="w" horiz-adv-x="1460" d="M41 811q29 31 116 125t119 131l33 -2q23 -45 37 -95t23.5 -116t13.5 -102.5t9 -114.5t7 -96l19 -408q170 184 243.5 345t73.5 358q0 61 -47 147q16 12 61.5 39t69.5 45l33 -2q49 -98 83 -271t46 -300t29 -361q299 297 299 553q0 156 -115 217q43 109 133 152 q49 -29 70.5 -74t21.5 -129q0 -457 -508 -893h-26q-49 453 -88 678q-109 -348 -486 -678h-26q-29 465 -49 666q-23 219 -62 219q-4 0 -98 -74q-23 8 -35 41z" />
<glyph unicode="x" horiz-adv-x="980" d="M-33 18q29 92 92 154q39 -43 78 -43q61 0 126 80t147 227q-162 391 -189 391q-12 0 -115 -84q-10 2 -19 12.5t-12 19.5l-3 9q135 139 223 263l33 -5q35 -66 178 -426q109 203 199 314.5t188 111.5q57 0 121 -59q-33 -94 -96 -154q-39 45 -82 45q-74 0 -144.5 -84.5 t-159.5 -242.5q168 -418 224 -418q4 0 147 57q8 -6 14.5 -18t7.5 -22l1 -9q-172 -94 -271 -178h-32q-76 123 -187 408q-104 -197 -184 -302.5t-168 -105.5q-57 0 -117 59z" />
<glyph unicode="y" horiz-adv-x="858" d="M-424 -614q6 35 33 55q53 -29 82 -29q233 0 618 449q-88 645 -112 767q-43 216 -84 216q-12 0 -90 -74q-29 8 -33 41q131 158 205 256l36 -2q102 -170 201 -1051q117 166 189.5 358.5t72.5 340.5q0 80 -26.5 120.5t-75.5 69.5q57 113 139 152q94 -47 94 -162 q0 -186 -98 -454.5t-287 -518.5q-166 -217 -322.5 -359.5t-361.5 -281.5q-8 2 -33.5 18.5t-67.5 42t-79 46.5z" />
<glyph unicode="z" horiz-adv-x="862" d="M0 8q51 39 104.5 104.5t111.5 149.5t77 109q72 92 152.5 203.5t131 179t85.5 106.5q-86 16 -226 17q-195 0 -225 -50q-18 -29 -47 -98q-35 0 -55 16q47 238 49 279q90 -14 309 -14q256 0 375 12q8 -6 13 -15.5t6 -16.5l1 -7q-160 -162 -459 -588q-164 -238 -165 -241 q27 2 55 2q51 0 155.5 -28t157.5 -28q72 0 92 37l78 131q27 0 49 -14q-55 -166 -71 -270q-74 -31 -121 -31q-68 0 -187.5 28.5t-201.5 28.5q-94 0 -221 -35q-8 4 -14.5 12.5t-7.5 14.5z" />
<glyph unicode="{" horiz-adv-x="665" d="M150 735q57 55 95 131t52 131.5t39 167.5q100 465 139 604l238 80q23 -12 22 -53q-94 -53 -139 -92q-39 -33 -88 -313.5t-68 -505.5q-47 -68 -180 -150q113 -80 150 -170q-16 -207 -17 -491q0 -367 33 -402q18 -18 47 -40.5t48 -34.5l20 -13q0 -14 -6.5 -27.5 t-12.5 -18.5l-6 -5l-227 84q-10 127 -29 686q-4 113 -9 171t-29.5 135t-71.5 126z" />
<glyph unicode="|" horiz-adv-x="581" d="M115 -850q28 143 98 989l123 1581q55 12 100 33q8 0 15.5 -4t10.5 -9l3 -5q-31 -154 -98 -990l-123 -1581q-55 -12 -103 -32z" />
<glyph unicode="}" horiz-adv-x="737" d="M-14 -412q96 51 143 99q39 37 93 340t73 538q49 88 180 170q-113 81 -149 150q18 221 18 465q0 322 -33 356q-18 18 -46.5 40.5t-48.5 36.5l-19 13q0 16 6 29.5t12 18.5l6 5l221 -80q23 -233 35 -604q4 -117 8 -169t30 -128.5t73 -132.5q-57 -49 -95 -126t-53.5 -135 t-38.5 -171q-86 -440 -149 -686l-244 -82q-23 20 -22 53z" />
<glyph unicode="~" horiz-adv-x="1239" d="M82 727q27 18 79 52t78.5 51.5t62.5 38t59.5 29.5t41.5 9q27 0 64 -7t97.5 -24.5t99.5 -25.5q133 -41 254 -41q35 0 64.5 6t44.5 12.5t51 22.5t55 24q25 -25 24 -49q-25 -16 -75 -51t-75.5 -51t-60.5 -37.5t-58.5 -31t-41.5 -9.5q-37 0 -266 57q-147 41 -254 41 q-35 0 -65 -6t-47 -13t-51 -22.5t-57 -23.5q-25 25 -24 49z" />
<glyph unicode="&#xa2;" horiz-adv-x="817" d="M92 293q0 160 38 292t100.5 218t122 138t124.5 89l23 230q31 6 67 20q10 0 21 -12q-14 -70 -29 -203q23 8 37 8q29 1 172 -26q0 -94 -55 -162q-94 51 -164 71l-76 -860q88 23 217 119q23 -12 25 -43l-250 -180l-23 -240q-14 -4 -65 -22q-6 0 -12.5 4t-8.5 7l-2 3 q16 117 29 221q-25 -6 -57 -6q-115 0 -174.5 98.5t-59.5 235.5zM248 369q0 -115 41 -198t106 -83q78 818 78 873q-80 -33 -152.5 -205t-72.5 -387z" />
<glyph unicode="&#xa3;" horiz-adv-x="940" d="M55 11v7q76 57 115 166t57 316q-35 0 -98 -6q-12 6 -12 24q20 37 24 66h90q10 100 50.5 187t88.5 140.5t100 92t88 54t50 15.5q61 0 134 -18.5t110 -36.5q-10 -25 -49 -225q-10 -8 -26.5 -8.5t-24.5 3.5q0 8 -17 156q-49 57 -153 57q-63 0 -123 -111.5t-84 -305.5 q180 0 291 14q12 -2 12 -25q-10 -16 -25 -71h-284l-7 -45q-33 -231 -131 -357q66 -4 203 -4q127 0 228 37q63 139 77 176q8 2 17 2q25 0 39 -18q-43 -195 -52 -242q-8 -43 -20 -45q-45 -12 -201 -12q-43 0 -103.5 2t-64.5 2h-67q-145 0 -221 -21q-4 6 -7.5 16.5t-3.5 17.5z " />
<glyph unicode="&#xa5;" horiz-adv-x="1073" d="M55 1014q0 12 4 28q47 0 121 4.5t88.5 4.5t67.5 -74t117.5 -194.5t95.5 -227.5q217 496 366 496q27 0 52.5 -11.5t38.5 -22.5l12 -11q-35 -61 -76 -105q-4 4 -10 9l-9 8q-3 2 -7.5 6t-7.5 5t-8 3t-11 2h-12q-78 0 -230 -297q123 0 260 12q12 -4 13 -24q-25 -49 -27 -70 h-281q-39 -99 -45 -156q135 0 287 13q14 -4 14 -25q-25 -41 -26 -70h-283q-4 -86 -4 -249q43 -10 139 -11q2 -14 2 -24l-8 -39q-41 0 -114.5 3t-88.5 3q-141 0 -258 -16q-4 14 -4 30l6 21q55 8 92 22.5t54.5 34t25 33.5t11.5 37q14 59 16 155q-109 0 -303 -14q-12 8 -12 25 q20 39 26 71h293q0 57 -33 156q-59 0 -221 -14q-14 8 -14 24q23 37 26 72h170q-49 96 -172 287q-25 35 -49 48t-82 17q-2 4 -2 25z" />
<glyph unicode="&#xa9;" horiz-adv-x="1779" d="M123 731q0 324 224 550t543.5 226t543 -226t223.5 -550q0 -322 -223.5 -548t-543 -226t-543.5 226t-224 548zM231 731.5q0 -282.5 195 -482.5t465 -200t463.5 200t193.5 482.5t-193.5 483t-463.5 200.5t-465 -200.5t-195 -483zM477 727q0 117 42 209t99.5 140t126 80 t110.5 40t63 8q125 0 284 -49q-12 -49 -31 -229q-25 -6 -26 -6q-14 0 -29 4q0 6 -29 147q-94 51 -221 51q-94 0 -161.5 -101t-67.5 -228q0 -164 72.5 -283t216.5 -119q96 0 262 70q14 -12 14 -35l-172 -123l-7 -3q-7 -3 -16.5 -7t-24.5 -8t-29.5 -8.5t-33 -6.5t-34.5 -2 q-199 0 -303.5 131t-104.5 328z" />
<glyph unicode="&#xad;" d="M49 465q20 43 35 98h293q131 0 252 19q16 -8 16 -33q-29 -53 -37 -96h-291q-130 -1 -251 -19q-16 8 -17 31z" />
<glyph unicode="&#xae;" horiz-adv-x="1128" d="M68 1022q0 215 145 362.5t358 147.5q211 0 356.5 -147.5t145.5 -362.5q0 -213 -145.5 -359.5t-356.5 -146.5t-357 146.5t-146 359.5zM166 1022q0 -172 120 -297t285.5 -125t285.5 125t120 297q0 174 -120 300t-285.5 126t-285.5 -126t-120 -300zM344 788l2 21 q45 12 53 57q4 35 4 160q0 121 -2 168q0 59 -8 59q-8 6 -39 7q-2 8 -2 18q0 8 2 14h213q193 0 193 -143q0 -109 -115 -141q18 -53 37 -88q37 -59 55.5 -77t38.5 -18h33q8 -12 8 -24q0 -14 -4 -21q-33 -2 -64.5 -5t-49 -5t-21.5 -2q-8 0 -29.5 44t-49.5 109.5t-34 77.5h-14 q-35 0 -57 2v-100q0 -55 4 -76q16 -8 61 -8q4 -12 4 -24q0 -14 -4 -21h-209q-6 0 -6 16zM494 1049q8 -2 53 -2q49 0 82 25.5t33 68.5q0 47 -24 75.5t-73 28.5q-43 0 -65 -2q-6 -53 -6 -194z" />
<glyph unicode="&#xb4;" horiz-adv-x="1234" d="M571 1212q221 207 363 416q84 -20 108 -102q-154 -162 -438 -352q-12 8 -20.5 17t-10.5 15z" />
<glyph unicode="&#x2000;" horiz-adv-x="950" />
<glyph unicode="&#x2001;" horiz-adv-x="1901" />
<glyph unicode="&#x2002;" horiz-adv-x="950" />
<glyph unicode="&#x2003;" horiz-adv-x="1901" />
<glyph unicode="&#x2004;" horiz-adv-x="633" />
<glyph unicode="&#x2005;" horiz-adv-x="475" />
<glyph unicode="&#x2006;" horiz-adv-x="316" />
<glyph unicode="&#x2007;" horiz-adv-x="316" />
<glyph unicode="&#x2008;" horiz-adv-x="237" />
<glyph unicode="&#x2009;" horiz-adv-x="380" />
<glyph unicode="&#x200a;" horiz-adv-x="105" />
<glyph unicode="&#x2010;" d="M49 465q20 43 35 98h293q131 0 252 19q16 -8 16 -33q-29 -53 -37 -96h-291q-130 -1 -251 -19q-16 8 -17 31z" />
<glyph unicode="&#x2011;" d="M49 465q20 43 35 98h293q131 0 252 19q16 -8 16 -33q-29 -53 -37 -96h-291q-130 -1 -251 -19q-16 8 -17 31z" />
<glyph unicode="&#x2012;" d="M49 465q20 43 35 98h293q131 0 252 19q16 -8 16 -33q-29 -53 -37 -96h-291q-130 -1 -251 -19q-16 8 -17 31z" />
<glyph unicode="&#x2013;" horiz-adv-x="1294" d="M49 459q21 43 35 98h555q338 0 573 18q16 -4 17 -32q-31 -53 -35 -99h-561q-332 0 -567 -16q-16 8 -17 31z" />
<glyph unicode="&#x2014;" horiz-adv-x="2129" d="M49 459q21 43 35 98h981q588 0 985 18q16 -4 16 -32q-27 -47 -34 -99h-973q-594 0 -993 -16q-16 8 -17 31z" />
<glyph unicode="&#x2018;" horiz-adv-x="313" d="M82 1370q0 78 68.5 188.5t152.5 194.5q33 -10 39 -35q-111 -143 -111 -233q0 -53 86 -148q-66 -96 -159 -123q-76 98 -76 156z" />
<glyph unicode="&#x2019;" horiz-adv-x="354" d="M96 1245q39 53 74 121t35 111q0 57 -84 147q61 96 158 123q76 -92 75 -156q0 -76 -68.5 -186.5t-152.5 -194.5q-33 8 -37 35z" />
<glyph unicode="&#x201c;" horiz-adv-x="622" d="M82 1370q0 78 68.5 188.5t152.5 194.5q33 -10 39 -35q-111 -143 -111 -233q0 -53 86 -148q-66 -96 -159 -123q-76 98 -76 156zM391 1370q0 78 68.5 188.5t152.5 194.5q35 -12 37 -35q-109 -147 -108 -233q0 -55 84 -148q-59 -94 -158 -123q-76 96 -76 156z" />
<glyph unicode="&#x201d;" horiz-adv-x="663" d="M96 1245q39 53 74 121t35 111q0 57 -84 147q61 96 158 123q76 -92 75 -156q0 -76 -68.5 -186.5t-152.5 -194.5q-33 8 -37 35zM403 1245q41 51 76 120t35 112q0 55 -86 147q68 98 160 123q76 -96 76 -156q0 -76 -69 -186.5t-153 -194.5q-33 6 -39 35z" />
<glyph unicode="&#x2022;" horiz-adv-x="866" d="M205 596q51 88 119.5 146.5t177.5 99.5q72 -66 116 -148.5t44 -150.5q0 -70 -105.5 -155t-198.5 -85q-72 203 -153 293z" />
<glyph unicode="&#x2026;" horiz-adv-x="1169" d="M33 104q49 84 149 123q80 -75 80 -151q0 -35 -53 -77t-100 -42q-35 98 -76 147zM442 104q49 84 150 123q80 -75 80 -151q0 -35 -53.5 -77t-100.5 -42q-35 98 -76 147zM852 104q49 84 149 123q80 -75 80 -151q0 -35 -53 -77t-100 -42q-35 98 -76 147z" />
<glyph unicode="&#x202f;" horiz-adv-x="380" />
<glyph unicode="&#x205f;" horiz-adv-x="475" />
<glyph unicode="&#x20ac;" horiz-adv-x="946" d="M55 352q21 39 27 72h252q229 0 360 12q14 -4 15 -24q-25 -41 -27 -70h-287q-156 0 -327 -14q-12 8 -13 24zM106 565q23 37 27 72h285q215 0 330 12q12 -4 12 -24q-25 -49 -27 -70h-354q-119 0 -258 -14q-14 8 -15 24zM176 285q0 58 6 110l158 2v-39q0 -113 42 -193.5 t110 -80.5q127 0 301 123q20 -6 28 -41l-243 -164q-66 -43 -162 -43q-119 0 -179.5 96.5t-60.5 229.5zM223 590q41 123 117 219t150.5 142t129 68.5t74.5 22.5q55 0 122 -18t97 -37q-23 -104 -43 -225q-10 -8 -24.5 -8t-22.5 4q0 27 -14 155q-27 27 -76 42.5t-82 15.5 q-84 0 -162.5 -107.5t-119.5 -271.5z" />
<glyph unicode="&#x2122;" horiz-adv-x="3136" d="M1298 14l2 21q88 20 125.5 65t52.5 111q78 387 143 1106q-35 68 -98 100q-35 14 -123 23q0 31 14 53q70 -4 107 -4q47 0 114.5 4t83.5 4q49 0 187 -326q63 -152 133 -365.5t119 -379.5t51 -172q43 90 282.5 564t317.5 657q190 0 301 18q6 -25 6 -27l-4 -24 q-94 -23 -132 -68t-48 -112q-25 -147 -51 -650q-10 -164 -11 -389q0 -111 2 -168q33 -6 148 -6q2 -8 2 -18q0 -18 -8 -37q-39 0 -108.5 3t-82.5 3q-193 0 -313 -16q-8 10 -8 30l2 21q104 20 144 60t50 112q20 164 43 604l17 336q-92 -145 -309.5 -568t-294.5 -626l-52 14 q-280 904 -362 1092l-66 151q-57 -535 -69 -688q-18 -221 -19 -467q43 -6 148 -6q2 -8 2 -18q0 -18 -8 -37q-47 0 -122 3t-87 3q-127 0 -213 -16q-8 10 -8 30zM41 1122l65 344q6 23 35 23q14 0 136 -7t184 -7h454q72 0 207 7t148 7q30 0 30 -15q0 -3 -11 -52.5t-26.5 -130.5 t-23.5 -154q-14 -8 -34.5 -8.5t-30.5 8.5l-17 233q-76 41 -254 41q-68 0 -110 -10q-43 -92 -78 -557l-29 -377q-12 -147 -12 -270q0 -92 4 -125q82 -14 192 -15q4 -10 4 -24q0 -10 -8 -39q-63 0 -171.5 3t-131.5 3q-227 0 -360 -16q-6 8 -6 22l6 29q131 23 185 56.5t73 98.5 q41 160 74 525q38 417 38 605v9q0 31 -2 72q-48 10 -114 10q-174 0 -250 -41q-8 -18 -44 -112.5t-63 -151.5q-41 0 -59 16z" />
<glyph unicode="&#xe000;" horiz-adv-x="1045" d="M0 1045h1045v-1045h-1045v1045z" />
</font>
</defs>
</svg>
