<?xml version="1.0" encoding="utf-8"?>
<!-- Generator: Adobe Illustrator 16.0.4, SVG Export Plug-In . SVG Version: 6.00 Build 0)  -->
<!DOCTYPE svg PUBLIC "-//W3C//DTD SVG 1.1//EN" "http://www.w3.org/Graphics/SVG/1.1/DTD/svg11.dtd">
<svg version="1.1" id="Layer_1" xmlns="http://www.w3.org/2000/svg" xmlns:xlink="http://www.w3.org/1999/xlink" x="0px" y="0px"
	 width="150px" height="184.566px" viewBox="0 0 150 184.566" enable-background="new 0 0 150 184.566" xml:space="preserve">
<g>
	<g>
		<path fill="#FFFFFF" d="M74.625,0.433L144.221,69.5H5.03L74.625,0.433z M130.485,63.5L74.625,8.065L18.766,63.5H130.485z"/>
	</g>
</g>
<g>
	<g>
		<path fill="#FFFFFF" d="M74.725,25.748L149.448,92.5H0L74.725,25.748z M134.618,86.5L74.725,32.995L14.83,86.5H134.618z"/>
	</g>
</g>
<g>
	<path fill="#FFFFFF" d="M74.625,92.633l69.596,69.066H5.03L74.625,92.633z M130.485,155.699l-55.859-55.436l-55.86,55.436H130.485z
		"/>
</g>
<g>
	<polygon fill="#FFFFFF" points="74.725,121.846 108.379,151.773 142.034,181.699 74.725,181.699 7.415,181.699 41.071,151.773 	"/>
	<path fill="#FFFFFF" d="M74.725,117.948l74.726,66.752H0L74.725,117.948z M134.618,178.699l-59.895-53.505L14.83,178.699H134.618z"
		/>
</g>
</svg>
