<?xml version="1.0" encoding="utf-8"?>
<!-- Generator: Adobe Illustrator 16.0.4, SVG Export Plug-In . SVG Version: 6.00 Build 0)  -->
<!DOCTYPE svg PUBLIC "-//W3C//DTD SVG 1.1//EN" "http://www.w3.org/Graphics/SVG/1.1/DTD/svg11.dtd">
<svg version="1.1" id="Layer_1" xmlns="http://www.w3.org/2000/svg" xmlns:xlink="http://www.w3.org/1999/xlink" x="0px" y="0px"
	 width="1200px" height="510px" viewBox="0 0 1200 510" enable-background="new 0 0 1200 510" xml:space="preserve">
<g>
	<path fill="#FFFFFF" d="M439.14,188.658c0.214-3.26,0.322-6.55,0.322-9.861c0-82.383-66.785-149.165-149.165-149.165
		c-82.382,0-149.166,66.783-149.166,149.165c0,2.67,0.072,5.32,0.21,7.956c-56.753,21.102-97.188,75.754-97.188,139.857
		c0,82.381,66.783,149.164,149.166,149.164c35.859,0,68.762-12.656,94.49-33.74c25.728,21.084,58.63,33.74,94.489,33.74
		c82.382,0,149.166-66.783,149.166-149.164C531.466,264.354,493.328,211.009,439.14,188.658z"/>
	<g>
		<path fill="#188E07" stroke="#FFFFFF" stroke-width="6" stroke-miterlimit="10" d="M287.81,211.186
			c25.727-21.085,58.63-33.741,94.489-33.741c20.126,0,39.321,3.988,56.839,11.213c0.213-3.26,0.322-6.55,0.322-9.862
			c0-82.382-66.785-149.164-149.165-149.164c-82.383,0-149.166,66.783-149.166,149.164c0,2.671,0.071,5.321,0.21,7.957
			c16.186-6.018,33.696-9.309,51.979-9.309C229.18,177.444,262.08,190.101,287.81,211.186z"/>
		<path fill="#F7433C" stroke="#FFFFFF" stroke-width="6" stroke-miterlimit="10" d="M233.134,326.61
			c0-3.314,0.109-6.604,0.324-9.863c-51.863-21.396-89.024-71.179-92.115-129.994C84.59,207.854,44.154,262.507,44.154,326.61
			c0,82.381,66.784,149.164,149.167,149.164c35.86,0,68.763-12.656,94.49-33.74C254.433,414.677,233.134,373.13,233.134,326.61z"/>
		<path fill="#FFFF00" stroke="#FFFFFF" stroke-width="6" stroke-miterlimit="10" d="M233.456,316.747
			c2.774-42.506,23.354-80.153,54.354-105.562c-25.729-21.085-58.631-33.741-94.491-33.741c-18.282,0-35.793,3.292-51.979,9.31
			C144.433,245.568,181.594,295.354,233.456,316.747z"/>
		<path fill="#2B85DC" stroke="#FFFFFF" stroke-width="6" stroke-miterlimit="10" d="M439.138,188.658
			c-3.899,59.799-43.046,109.982-96.864,129.993c0.138,2.637,0.21,5.291,0.21,7.959c0,46.521-21.299,88.063-54.675,115.424
			c25.727,21.086,58.63,33.742,94.489,33.742c82.382,0,149.166-66.785,149.166-149.166
			C531.464,264.354,493.326,211.009,439.138,188.658z"/>
		<path fill="#00B5EF" stroke="#FFFFFF" stroke-width="6" stroke-miterlimit="10" d="M287.81,211.186
			c31.46,25.786,52.188,64.183,54.464,107.466c53.819-20.01,92.961-70.194,96.864-129.993
			c-17.518-7.226-36.713-11.213-56.839-11.213C346.439,177.444,313.536,190.101,287.81,211.186z"/>
		<path fill="#FF008F" stroke="#FFFFFF" stroke-width="6" stroke-miterlimit="10" d="M342.484,326.61
			c0-2.668-0.072-5.322-0.21-7.959c-16.186,6.02-33.697,9.309-51.979,9.309c-20.126,0-39.322-3.988-56.84-11.213
			c-0.212,3.26-0.322,6.549-0.322,9.863c0,46.521,21.3,88.063,54.677,115.424C321.186,414.677,342.484,373.13,342.484,326.61z"/>
		<path fill="#FFFFFF" stroke="#FFFFFF" stroke-width="2" stroke-miterlimit="10" d="M287.81,211.186
			c-31,25.408-51.579,63.056-54.354,105.562c17.518,7.227,36.714,11.213,56.84,11.213c18.28,0,35.792-3.289,51.979-9.309
			C339.997,275.368,319.27,236.973,287.81,211.186z"/>
	</g>
	<path fill="#FFFFFF" d="M1063.521,188.658c0.213-3.26,0.319-6.55,0.319-9.861c0-82.383-66.785-149.165-149.164-149.165
		c-82.385,0-149.168,66.783-149.168,149.165c0,2.67,0.074,5.32,0.213,7.956c-56.754,21.102-97.188,75.754-97.188,139.857
		c0,82.381,66.783,149.164,149.166,149.164c35.858,0,68.766-12.656,94.489-33.74c25.729,21.084,58.63,33.74,94.488,33.74
		c82.383,0,149.164-66.783,149.164-149.164C1155.848,264.354,1117.709,211.009,1063.521,188.658z"/>
	<g>
		<path fill="#FFFF00" stroke="#FFFFFF" stroke-width="6" stroke-miterlimit="10" d="M912.191,211.186
			c25.729-21.085,58.631-33.741,94.487-33.741c20.126,0,39.32,3.988,56.84,11.213c0.214-3.26,0.322-6.55,0.322-9.862
			c0-82.382-66.785-149.164-149.165-149.164c-82.384,0-149.167,66.783-149.167,149.164c0,2.671,0.073,5.321,0.212,7.957
			c16.187-6.018,33.697-9.309,51.979-9.309C853.562,177.444,886.465,190.101,912.191,211.186z"/>
		<path fill="#FF008F" stroke="#FFFFFF" stroke-width="6" stroke-miterlimit="10" d="M857.518,326.61
			c0-3.314,0.108-6.604,0.322-9.863c-51.863-21.396-89.022-71.179-92.116-129.994c-56.754,21.102-97.188,75.754-97.188,139.857
			c0,82.381,66.783,149.164,149.166,149.164c35.858,0,68.766-12.656,94.49-33.74C878.814,414.677,857.518,373.13,857.518,326.61z"/>
		<path fill="#F7433C" stroke="#FFFFFF" stroke-width="6" stroke-miterlimit="10" d="M857.84,316.747
			c2.771-42.506,23.354-80.153,54.354-105.562c-25.729-21.085-58.632-33.741-94.49-33.741c-18.278,0-35.793,3.292-51.979,9.31
			C768.814,245.568,805.977,295.354,857.84,316.747z"/>
		<path fill="#00B5EF" stroke="#FFFFFF" stroke-width="6" stroke-miterlimit="10" d="M1063.521,188.658
			c-3.903,59.799-43.045,109.982-96.862,129.993c0.14,2.637,0.209,5.291,0.209,7.959c0,46.521-21.298,88.063-54.677,115.424
			c25.729,21.086,58.632,33.742,94.488,33.742c82.383,0,149.165-66.785,149.165-149.166
			C1155.847,264.354,1117.708,211.009,1063.521,188.658z"/>
		<path fill="#188E07" stroke="#FFFFFF" stroke-width="6" stroke-miterlimit="10" d="M912.191,211.186
			c31.461,25.786,52.188,64.183,54.467,107.466c53.815-20.01,92.959-70.194,96.859-129.993
			c-17.519-7.226-36.713-11.213-56.839-11.213C970.82,177.444,937.92,190.101,912.191,211.186z"/>
		<path fill="#2B85DC" stroke="#FFFFFF" stroke-width="6" stroke-miterlimit="10" d="M966.865,326.61
			c0-2.668-0.068-5.322-0.21-7.959c-16.188,6.02-33.696,9.309-51.979,9.309c-20.127,0-39.32-3.988-56.839-11.213
			c-0.214,3.26-0.323,6.549-0.323,9.863c0,46.521,21.301,88.063,54.678,115.424C945.567,414.677,966.865,373.13,966.865,326.61z"/>
		<path stroke="#FFFFFF" stroke-width="6" stroke-miterlimit="10" d="M912.191,211.186c-30.996,25.408-51.579,63.056-54.354,105.562
			c17.519,7.227,36.712,11.213,56.838,11.213c18.28,0,35.793-3.289,51.979-9.309C964.381,275.368,943.652,236.973,912.191,211.186z"
			/>
	</g>
</g>
</svg>
