<?xml version="1.0" encoding="utf-8"?>
<!-- Generator: Adobe Illustrator 16.0.4, SVG Export Plug-In . SVG Version: 6.00 Build 0)  -->
<!DOCTYPE svg PUBLIC "-//W3C//DTD SVG 1.1//EN" "http://www.w3.org/Graphics/SVG/1.1/DTD/svg11.dtd">
<svg version="1.1" id="Layer_1" xmlns="http://www.w3.org/2000/svg" xmlns:xlink="http://www.w3.org/1999/xlink" x="0px" y="0px"
	 width="1200px" height="310.484px" viewBox="0 0 1200 310.484" enable-background="new 0 0 1200 310.484" xml:space="preserve">
<path d="M800.508,51.793c31.081,0,62.164,0.223,93.242-0.13c9.962-0.113,15.322,5.674,15.254,15.373
	c-0.33,47.576-0.146,95.157-0.148,142.735c0,9.771-4.527,14.482-14.216,14.488c-62.752,0.032-125.505,0.032-188.255,0
	c-9.722-0.006-14.208-4.679-14.208-14.484c-0.003-48.021-0.005-96.042,0-144.063c0-9.23,4.521-13.889,13.763-13.901
	C737.461,51.766,768.984,51.793,800.508,51.793z M800.524,69.677c-23.136,0-46.27-0.025-69.4,0.011
	c-13.411,0.019-20.131,7.799-20.132,21.224c-0.008,28.145-0.934,56.229-0.926,84.372c0.002,13.239,7.375,21.108,20.59,21.147
	c46.562,0.135,93.124,0.131,139.686,0.002c13.229-0.037,20.618-7.89,20.621-21.121c0.009-27.997,0.006-55.995,0.003-83.989
	c-0.003-14.002-7.551-21.627-21.481-21.639C846.496,69.662,823.511,69.677,800.524,69.677z M874.38,209.98
	c-0.075,3.334,2.767,6.273,6.025,6.234c3.125-0.037,5.766-2.726,5.851-5.96c0.084-3.269-2.361-5.973-5.575-6.161
	C877.319,203.896,874.459,206.568,874.38,209.98z M869.605,210.204c0.058-3.121-2.603-5.95-5.739-6.106
	c-3.311-0.166-6.243,2.612-6.284,5.952c-0.039,3.144,2.582,5.979,5.689,6.163C866.473,216.398,869.543,213.484,869.605,210.204z"/>
<path d="M737.846,227.971c0.011,4.645,1.877,10.295-3.242,11.756c-4.811,1.375-10.854,1.246-15.512-0.483
	c-4.288-1.593-3.006-6.986-2.395-11.272C723.724,227.971,730.512,227.971,737.846,227.971z"/>
<path d="M870.087,228.034c7.396,0,14.301,0,21.456,0c0.395,4.33,1.734,9.72-2.611,11.272c-4.685,1.672-10.683,1.784-15.488,0.412
	C868.401,238.277,870.057,232.648,870.087,228.034z"/>
<path fill="#FFFFFF" d="M800.524,69.677c22.985,0,45.972-0.015,68.958,0.006c13.933,0.012,21.479,7.637,21.482,21.639
	c0.003,27.996,0.006,55.993-0.003,83.989c-0.003,13.232-7.394,21.086-20.621,21.123c-46.562,0.129-93.124,0.131-139.686-0.002
	c-13.215-0.039-20.588-7.908-20.59-21.148c-0.008-28.143-0.008-56.286,0.001-84.431c0.001-13.424,7.646-21.146,21.057-21.165
	C754.256,69.652,777.39,69.677,800.524,69.677z"/>
<g>
	<g>
		<defs>
			<path id="SVGID_1_" d="M800.658,69.329c23.021,0,46.041-0.015,69.062,0.005c13.955,0.012,21.514,7.66,21.518,21.7
				c0.003,28.073,0.006,56.147-0.005,84.22c-0.001,13.27-7.402,21.143-20.652,21.182c-46.63,0.129-93.262,0.131-139.894-0.002
				c-13.232-0.039-20.617-7.932-20.619-21.207c-0.007-28.222-0.007-56.149,0.001-84.373c0.001-13.461,7.656-21.496,21.087-21.515
				C754.323,69.304,777.489,69.329,800.658,69.329z"/>
		</defs>
		<clipPath id="SVGID_2_">
			<use xlink:href="#SVGID_1_"  overflow="visible"/>
		</clipPath>
		<g clip-path="url(#SVGID_2_)">
			<rect x="894" y="68.895" opacity="0.85" fill="#F7433C" enable-background="new    " width="34" height="25"/>
			<rect x="894" y="93.895" opacity="0.85" fill="#FFBB33" enable-background="new    " width="34" height="27"/>
			<rect x="894" y="120.895" opacity="0.85" fill="#EEEE4E" enable-background="new    " width="34" height="26"/>
			<rect x="894" y="146.895" opacity="0.85" fill="#79C772" enable-background="new    " width="34" height="26"/>
			<rect x="894" y="172.895" opacity="0.85" fill="#2B85DC" enable-background="new    " width="34" height="27"/>
			<rect x="894" y="199.895" opacity="0.85" fill="#6C2D73" enable-background="new    " width="34" height="26"/>
			<rect x="855" y="93.895" opacity="0.85" fill="#F7433C" enable-background="new    " width="39" height="27"/>
			<rect x="855" y="120.895" opacity="0.85" fill="#FFBB33" enable-background="new    " width="39" height="26"/>
			<rect x="855" y="146.895" opacity="0.85" fill="#EEEE4E" enable-background="new    " width="39" height="26"/>
			<rect x="855" y="172.895" opacity="0.85" fill="#79C772" enable-background="new    " width="39" height="27"/>
			<rect x="855" y="199.895" opacity="0.85" fill="#2B85DC" enable-background="new    " width="39" height="26"/>
			<rect x="855" y="68.895" opacity="0.85" fill="#6C2D73" enable-background="new    " width="39" height="25"/>
			<rect x="819" y="120.895" opacity="0.85" fill="#F7433C" enable-background="new    " width="36" height="26"/>
			<rect x="819" y="146.895" opacity="0.85" fill="#FFBB33" enable-background="new    " width="36" height="26"/>
			<rect x="819" y="172.895" opacity="0.85" fill="#EEEE4E" enable-background="new    " width="36" height="27"/>
			<rect x="819" y="199.895" opacity="0.85" fill="#79C772" enable-background="new    " width="36" height="26"/>
			<rect x="819" y="68.895" opacity="0.85" fill="#2B85DC" enable-background="new    " width="36" height="25"/>
			<rect x="819" y="93.895" opacity="0.85" fill="#6C2D73" enable-background="new    " width="36" height="27"/>
			<rect x="782" y="146.895" opacity="0.85" fill="#F7433C" enable-background="new    " width="37" height="26"/>
			<rect x="782" y="172.895" opacity="0.85" fill="#FFBB33" enable-background="new    " width="37" height="27"/>
			<rect x="782" y="199.895" opacity="0.85" fill="#EEEE4E" enable-background="new    " width="37" height="26"/>
			<rect x="782" y="68.895" opacity="0.85" fill="#79C772" enable-background="new    " width="37" height="25"/>
			<rect x="782" y="93.895" opacity="0.85" fill="#2B85DC" enable-background="new    " width="37" height="27"/>
			<rect x="782" y="120.895" opacity="0.85" fill="#6C2D73" enable-background="new    " width="37" height="26"/>
			<rect x="748" y="172.895" opacity="0.85" fill="#F7433C" enable-background="new    " width="34" height="27"/>
			<rect x="748" y="199.895" opacity="0.85" fill="#FFBB33" enable-background="new    " width="34" height="26"/>
			<rect x="748" y="68.895" opacity="0.85" fill="#EEEE4E" enable-background="new    " width="34" height="25"/>
			<rect x="748" y="93.895" opacity="0.85" fill="#79C772" enable-background="new    " width="34" height="27"/>
			<rect x="748" y="120.895" opacity="0.85" fill="#2B85DC" enable-background="new    " width="34" height="26"/>
			<rect x="748" y="146.895" opacity="0.85" fill="#6C2D73" enable-background="new    " width="34" height="26"/>
			<rect x="711" y="199.895" opacity="0.85" fill="#F7433C" enable-background="new    " width="37" height="26"/>
			<rect x="707" y="68.895" opacity="0.85" fill="#FFBB33" enable-background="new    " width="41" height="25"/>
			<rect x="707" y="93.895" opacity="0.85" fill="#EEEE4E" enable-background="new    " width="41" height="27"/>
			<rect x="707" y="120.895" opacity="0.85" fill="#79C772" enable-background="new    " width="41" height="26"/>
			<rect x="707" y="146.895" opacity="0.85" fill="#2B85DC" enable-background="new    " width="41" height="26"/>
			<rect x="707" y="172.895" opacity="0.85" fill="#6C2D73" enable-background="new    " width="41" height="27"/>
		</g>
	</g>
</g>
<path fill="#FFFFFF" d="M874.38,209.98c0.079-3.412,2.939-6.084,6.301-5.885c3.214,0.188,5.659,2.893,5.575,6.16
	c-0.085,3.234-2.726,5.924-5.851,5.96C877.146,216.255,874.305,213.314,874.38,209.98z"/>
<path fill="#FFFFFF" d="M869.605,210.204c-0.062,3.28-3.134,6.196-6.334,6.009c-3.107-0.182-5.729-3.02-5.689-6.163
	c0.041-3.34,2.975-6.118,6.284-5.952C867.004,204.253,869.663,207.083,869.605,210.204z"/>
<path d="M504.294,213.259c0,4.798,0,9.034,0,12.988c13.882,3.417,27.598,6.795,41.514,10.222c-0.211,1.824-0.341,2.945-0.492,4.271
	c-38.779,0-77.423,0-116.099,0c-1.92-2.805-0.935-4.581,2.15-5.371c10.286-2.635,20.529-5.49,30.918-7.639
	c3.716-0.77,5.016-1.924,4.605-5.604c-0.311-2.779-0.062-5.619-0.062-8.87c-1.755,0-3.137,0-4.521,0
	c-25.802,0-51.604,0.011-77.406-0.022c-1.879-0.002-3.776-0.194-5.633-0.498c-4.075-0.666-6.56-3.133-7.324-7.157
	c-0.393-2.077-0.61-4.218-0.612-6.332c-0.034-44.502-0.026-89.004-0.025-133.506c0-0.592-0.01-1.185,0.007-1.776
	c0.244-8.248,3.279-11.526,11.472-12.339c1.292-0.127,2.599-0.139,3.898-0.139c65.453-0.007,130.905-0.012,196.357,0.018
	c2.592,0.002,5.205,0.206,7.773,0.562c5.312,0.737,7.919,3.541,8.452,8.878c0.117,1.174,0.099,2.364,0.099,3.546
	c0.004,44.622,0.003,89.242,0.003,133.864c0,0.354,0.004,0.709,0,1.064c-0.089,9.77-4.036,13.775-13.875,13.818
	c-14.913,0.064-29.825,0.018-44.739,0.018c-10.771,0-21.542,0-32.312,0C507.167,213.259,505.889,213.259,504.294,213.259z
	 M485.345,66.323c0-0.035,0-0.07,0-0.106c-29.351,0-58.7,0-88.053,0c-10.823,0-10.9,0.071-10.9,10.773
	c-0.002,36.333-0.004,72.667,0.007,109c0.001,1.533,0.085,3.07,0.213,4.6c0.608,7.312,1.292,7.938,8.623,7.938
	c59.175,0,118.35,0,177.524,0c11.38,0,11.528-0.146,11.528-11.764c0.002-36.925,0.001-73.85,0-110.774
	c0-1.065,0.042-2.134-0.025-3.195c-0.339-5.436-1.2-6.434-6.608-6.443C546.883,66.294,516.115,66.323,485.345,66.323z"/>
<path fill="#FFFFFF" d="M485.345,66.323c30.771,0,61.538-0.029,92.31,0.028c5.408,0.009,6.27,1.007,6.608,6.443
	c0.066,1.062,0.025,2.13,0.025,3.195c0.001,36.925,0.002,73.85,0,110.774c0,11.619-0.148,11.764-11.528,11.764
	c-59.174,0-118.35,0-177.524,0c-7.331,0-8.015-0.623-8.623-7.938c-0.128-1.529-0.212-3.066-0.213-4.6
	c-0.011-36.333-0.01-72.667-0.007-109c0-10.702,0.077-10.773,10.9-10.773c29.352,0,58.702,0,88.053,0
	C485.345,66.252,485.345,66.288,485.345,66.323z"/>
<path fill="#FFFFFF" stroke="#000000" stroke-width="12" stroke-miterlimit="10" d="M157.38,236.627
	c-27.316-0.154-50.992-10.452-72.542-26.377c-22.771-16.825-41.05-37.84-56.443-61.471c-1.107-1.701-2.047-3.103-0.535-5.413
	c19.196-29.333,42.06-55.06,72.784-72.721c42.129-24.219,83.292-20.84,123.033,5.838c25.997,17.452,46.247,40.519,63.057,66.725
	c0.7,1.093,1.045,3.269,0.434,4.215c-20.947,32.406-46.429,60.146-81.536,77.642C190.498,232.604,174.402,236.674,157.38,236.627z
	 M157.398,209.661c35.018,0.006,63.987-28.542,64.031-63.096c0.045-35.96-28.49-64.951-63.957-64.978
	c-34.986-0.026-64.011,28.842-64.019,63.674C93.445,181.05,121.848,209.654,157.398,209.661z"/>
<path fill="#FFFFFF" d="M157.398,209.661c-35.55-0.005-63.953-28.611-63.945-64.399c0.007-34.832,29.033-63.701,64.019-63.674
	c35.467,0.027,64.002,29.018,63.957,64.978C221.385,181.119,192.416,209.667,157.398,209.661z M186.324,145.722
	c0.019-15.333-13.586-28.96-28.936-28.982c-15.234-0.021-28.387,13.263-28.521,28.804c-0.133,15.58,12.651,28.572,28.34,28.802
	C172.713,174.572,186.305,161.21,186.324,145.722z"/>
<g>
	<g>
		<defs>
			<path id="SVGID_3_" d="M157.469,209.661c-35.55-0.005-63.953-28.611-63.945-64.399c0.007-34.832,29.033-63.701,64.019-63.674
				c35.467,0.027,64.002,29.018,63.957,64.978C221.456,181.119,192.486,209.667,157.469,209.661z M186.394,145.722
				c0.02-15.333-13.586-28.96-28.936-28.982c-15.235-0.021-28.387,13.263-28.521,28.804c-0.133,15.58,12.651,28.572,28.34,28.802
				C172.784,174.572,186.375,161.21,186.394,145.722z"/>
		</defs>
		<clipPath id="SVGID_4_">
			<use xlink:href="#SVGID_3_"  overflow="visible"/>
		</clipPath>
		<g clip-path="url(#SVGID_4_)">
			<rect x="147" y="134.895" opacity="0.85" fill="#F7433C" enable-background="new    " width="10" height="11"/>
			<rect x="136" y="134.895" opacity="0.85" fill="#FFBB33" enable-background="new    " width="11" height="11"/>
			<rect x="126" y="134.895" opacity="0.85" fill="#EEEE4E" enable-background="new    " width="10" height="11"/>
			<rect x="114" y="134.895" opacity="0.85" fill="#79C772" enable-background="new    " width="12" height="11"/>
			<rect x="104" y="134.895" opacity="0.85" fill="#2B85DC" enable-background="new    " width="10" height="11"/>
			<rect x="94" y="134.895" opacity="0.85" fill="#6C2D73" enable-background="new    " width="10" height="11"/>
			<rect x="136" y="123.895" opacity="0.85" fill="#F7433C" enable-background="new    " width="11" height="11"/>
			<rect x="126" y="123.895" opacity="0.85" fill="#FFBB33" enable-background="new    " width="10" height="11"/>
			<rect x="114" y="123.895" opacity="0.85" fill="#EEEE4E" enable-background="new    " width="12" height="11"/>
			<rect x="104" y="123.895" opacity="0.85" fill="#79C772" enable-background="new    " width="10" height="11"/>
			<rect x="94" y="123.895" opacity="0.85" fill="#2B85DC" enable-background="new    " width="10" height="11"/>
			<rect x="147" y="123.895" opacity="0.85" fill="#6C2D73" enable-background="new    " width="10" height="11"/>
			<rect x="126" y="112.895" opacity="0.85" fill="#F7433C" enable-background="new    " width="10" height="11"/>
			<rect x="114" y="112.895" opacity="0.85" fill="#FFBB33" enable-background="new    " width="12" height="11"/>
			<rect x="104" y="112.895" opacity="0.85" fill="#EEEE4E" enable-background="new    " width="10" height="11"/>
			<rect x="94" y="112.895" opacity="0.85" fill="#79C772" enable-background="new    " width="10" height="11"/>
			<rect x="147" y="112.895" opacity="0.85" fill="#2B85DC" enable-background="new    " width="10" height="11"/>
			<rect x="136" y="112.895" opacity="0.85" fill="#6C2D73" enable-background="new    " width="11" height="11"/>
			<rect x="114" y="102.895" opacity="0.85" fill="#F7433C" enable-background="new    " width="12" height="10"/>
			<rect x="104" y="102.895" opacity="0.85" fill="#FFBB33" enable-background="new    " width="10" height="10"/>
			<rect x="94" y="102.895" opacity="0.85" fill="#EEEE4E" enable-background="new    " width="10" height="10"/>
			<rect x="147" y="102.895" opacity="0.85" fill="#79C772" enable-background="new    " width="10" height="10"/>
			<rect x="136" y="102.895" opacity="0.85" fill="#2B85DC" enable-background="new    " width="11" height="10"/>
			<rect x="126" y="102.895" opacity="0.85" fill="#6C2D73" enable-background="new    " width="10" height="10"/>
			<rect x="104" y="92.895" opacity="0.85" fill="#F7433C" enable-background="new    " width="10" height="10"/>
			<rect x="94" y="92.895" opacity="0.85" fill="#FFBB33" enable-background="new    " width="10" height="10"/>
			<rect x="147" y="92.895" opacity="0.85" fill="#EEEE4E" enable-background="new    " width="10" height="10"/>
			<rect x="136" y="92.895" opacity="0.85" fill="#79C772" enable-background="new    " width="11" height="10"/>
			<rect x="126" y="92.895" opacity="0.85" fill="#2B85DC" enable-background="new    " width="10" height="10"/>
			<rect x="114" y="92.895" opacity="0.85" fill="#6C2D73" enable-background="new    " width="12" height="10"/>
			<rect x="94" y="80.895" opacity="0.85" fill="#F7433C" enable-background="new    " width="10" height="12"/>
			<rect x="147" y="80.895" opacity="0.85" fill="#FFBB33" enable-background="new    " width="10" height="12"/>
			<rect x="136" y="80.895" opacity="0.85" fill="#EEEE4E" enable-background="new    " width="11" height="12"/>
			<rect x="126" y="80.895" opacity="0.85" fill="#79C772" enable-background="new    " width="10" height="12"/>
			<rect x="114" y="80.895" opacity="0.85" fill="#2B85DC" enable-background="new    " width="12" height="12"/>
			<rect x="104" y="80.895" opacity="0.85" fill="#6C2D73" enable-background="new    " width="10" height="12"/>
		</g>
	</g>
	<g>
		<defs>
			<path id="SVGID_5_" d="M157.469,209.661c-35.55-0.005-63.953-28.611-63.945-64.399c0.007-34.832,29.033-63.701,64.019-63.674
				c35.467,0.027,64.002,29.018,63.957,64.978C221.456,181.119,192.486,209.667,157.469,209.661z M186.394,145.722
				c0.02-15.333-13.586-28.96-28.936-28.982c-15.235-0.021-28.387,13.263-28.521,28.804c-0.133,15.58,12.651,28.572,28.34,28.802
				C172.784,174.572,186.375,161.21,186.394,145.722z"/>
		</defs>
		<clipPath id="SVGID_6_">
			<use xlink:href="#SVGID_5_"  overflow="visible"/>
		</clipPath>
		<g clip-path="url(#SVGID_6_)">
			<rect x="210" y="134.895" opacity="0.85" fill="#F7433C" enable-background="new    " width="13" height="11"/>
			<rect x="201" y="134.895" opacity="0.85" fill="#FFBB33" enable-background="new    " width="9" height="11"/>
			<rect x="189" y="134.895" opacity="0.85" fill="#EEEE4E" enable-background="new    " width="12" height="11"/>
			<rect x="179" y="134.895" opacity="0.85" fill="#79C772" enable-background="new    " width="10" height="11"/>
			<rect x="168" y="134.895" opacity="0.85" fill="#2B85DC" enable-background="new    " width="11" height="11"/>
			<rect x="157" y="134.895" opacity="0.85" fill="#6C2D73" enable-background="new    " width="11" height="11"/>
			<rect x="201" y="123.895" opacity="0.85" fill="#F7433C" enable-background="new    " width="9" height="11"/>
			<rect x="189" y="123.895" opacity="0.85" fill="#FFBB33" enable-background="new    " width="12" height="11"/>
			<rect x="179" y="123.895" opacity="0.85" fill="#EEEE4E" enable-background="new    " width="10" height="11"/>
			<rect x="168" y="123.895" opacity="0.85" fill="#79C772" enable-background="new    " width="11" height="11"/>
			<rect x="157" y="123.895" opacity="0.85" fill="#2B85DC" enable-background="new    " width="11" height="11"/>
			<rect x="210" y="123.895" opacity="0.85" fill="#6C2D73" enable-background="new    " width="13" height="11"/>
			<rect x="189" y="112.895" opacity="0.85" fill="#F7433C" enable-background="new    " width="12" height="11"/>
			<rect x="179" y="112.895" opacity="0.85" fill="#FFBB33" enable-background="new    " width="10" height="11"/>
			<rect x="168" y="112.895" opacity="0.85" fill="#EEEE4E" enable-background="new    " width="11" height="11"/>
			<rect x="157" y="112.895" opacity="0.85" fill="#79C772" enable-background="new    " width="11" height="11"/>
			<rect x="210" y="112.895" opacity="0.85" fill="#2B85DC" enable-background="new    " width="13" height="11"/>
			<rect x="201" y="112.895" opacity="0.85" fill="#6C2D73" enable-background="new    " width="9" height="11"/>
			<rect x="179" y="102.895" opacity="0.85" fill="#F7433C" enable-background="new    " width="10" height="10"/>
			<rect x="168" y="102.895" opacity="0.85" fill="#FFBB33" enable-background="new    " width="11" height="10"/>
			<rect x="157" y="102.895" opacity="0.85" fill="#EEEE4E" enable-background="new    " width="11" height="10"/>
			<rect x="210" y="102.895" opacity="0.85" fill="#79C772" enable-background="new    " width="13" height="10"/>
			<rect x="201" y="102.895" opacity="0.85" fill="#2B85DC" enable-background="new    " width="9" height="10"/>
			<rect x="189" y="102.895" opacity="0.85" fill="#6C2D73" enable-background="new    " width="12" height="10"/>
			<rect x="168" y="92.895" opacity="0.85" fill="#F7433C" enable-background="new    " width="11" height="10"/>
			<rect x="157" y="92.895" opacity="0.85" fill="#FFBB33" enable-background="new    " width="11" height="10"/>
			<rect x="210" y="92.895" opacity="0.85" fill="#EEEE4E" enable-background="new    " width="13" height="10"/>
			<rect x="201" y="92.895" opacity="0.85" fill="#79C772" enable-background="new    " width="9" height="10"/>
			<rect x="189" y="92.895" opacity="0.85" fill="#2B85DC" enable-background="new    " width="12" height="10"/>
			<rect x="179" y="92.895" opacity="0.85" fill="#6C2D73" enable-background="new    " width="10" height="10"/>
			<rect x="157" y="80.895" opacity="0.85" fill="#F7433C" enable-background="new    " width="11" height="12"/>
			<rect x="210" y="80.895" opacity="0.85" fill="#FFBB33" enable-background="new    " width="13" height="12"/>
			<rect x="201" y="80.895" opacity="0.85" fill="#EEEE4E" enable-background="new    " width="9" height="12"/>
			<rect x="189" y="80.895" opacity="0.85" fill="#79C772" enable-background="new    " width="12" height="12"/>
			<rect x="179" y="80.895" opacity="0.85" fill="#2B85DC" enable-background="new    " width="10" height="12"/>
			<rect x="168" y="80.895" opacity="0.85" fill="#6C2D73" enable-background="new    " width="11" height="12"/>
		</g>
	</g>
	<g>
		<defs>
			<path id="SVGID_7_" d="M157.469,209.661c-35.55-0.005-63.953-28.611-63.945-64.399c0.007-34.832,29.033-63.701,64.019-63.674
				c35.467,0.027,64.002,29.018,63.957,64.978C221.456,181.119,192.486,209.667,157.469,209.661z M186.394,145.722
				c0.02-15.333-13.586-28.96-28.936-28.982c-15.235-0.021-28.387,13.263-28.521,28.804c-0.133,15.58,12.651,28.572,28.34,28.802
				C172.784,174.572,186.375,161.21,186.394,145.722z"/>
		</defs>
		<clipPath id="SVGID_8_">
			<use xlink:href="#SVGID_7_"  overflow="visible"/>
		</clipPath>
		<g clip-path="url(#SVGID_8_)">
			<rect x="147" y="199.895" opacity="0.85" fill="#F7433C" enable-background="new    " width="10" height="10"/>
			<rect x="136" y="199.895" opacity="0.85" fill="#FFBB33" enable-background="new    " width="11" height="10"/>
			<rect x="126" y="199.895" opacity="0.85" fill="#EEEE4E" enable-background="new    " width="10" height="10"/>
			<rect x="114" y="199.895" opacity="0.85" fill="#79C772" enable-background="new    " width="12" height="10"/>
			<rect x="104" y="199.895" opacity="0.85" fill="#2B85DC" enable-background="new    " width="10" height="10"/>
			<rect x="94" y="199.895" opacity="0.85" fill="#6C2D73" enable-background="new    " width="10" height="10"/>
			<rect x="136" y="189.895" opacity="0.85" fill="#F7433C" enable-background="new    " width="11" height="10"/>
			<rect x="126" y="189.895" opacity="0.85" fill="#FFBB33" enable-background="new    " width="10" height="10"/>
			<rect x="114" y="189.895" opacity="0.85" fill="#EEEE4E" enable-background="new    " width="12" height="10"/>
			<rect x="104" y="189.895" opacity="0.85" fill="#79C772" enable-background="new    " width="10" height="10"/>
			<rect x="94" y="189.895" opacity="0.85" fill="#2B85DC" enable-background="new    " width="10" height="10"/>
			<rect x="147" y="189.895" opacity="0.85" fill="#6C2D73" enable-background="new    " width="10" height="10"/>
			<rect x="126" y="177.895" opacity="0.85" fill="#F7433C" enable-background="new    " width="10" height="12"/>
			<rect x="114" y="177.895" opacity="0.85" fill="#FFBB33" enable-background="new    " width="12" height="12"/>
			<rect x="104" y="177.895" opacity="0.85" fill="#EEEE4E" enable-background="new    " width="10" height="12"/>
			<rect x="94" y="177.895" opacity="0.85" fill="#79C772" enable-background="new    " width="10" height="12"/>
			<rect x="147" y="177.895" opacity="0.85" fill="#2B85DC" enable-background="new    " width="10" height="12"/>
			<rect x="136" y="177.895" opacity="0.85" fill="#6C2D73" enable-background="new    " width="11" height="12"/>
			<rect x="114" y="166.895" opacity="0.85" fill="#F7433C" enable-background="new    " width="12" height="11"/>
			<rect x="104" y="166.895" opacity="0.85" fill="#FFBB33" enable-background="new    " width="10" height="11"/>
			<rect x="94" y="166.895" opacity="0.85" fill="#EEEE4E" enable-background="new    " width="10" height="11"/>
			<rect x="147" y="166.895" opacity="0.85" fill="#79C772" enable-background="new    " width="10" height="11"/>
			<rect x="136" y="166.895" opacity="0.85" fill="#2B85DC" enable-background="new    " width="11" height="11"/>
			<rect x="126" y="166.895" opacity="0.85" fill="#6C2D73" enable-background="new    " width="10" height="11"/>
			<rect x="104" y="156.895" opacity="0.85" fill="#F7433C" enable-background="new    " width="10" height="10"/>
			<rect x="94" y="156.895" opacity="0.85" fill="#FFBB33" enable-background="new    " width="10" height="10"/>
			<rect x="147" y="156.895" opacity="0.85" fill="#EEEE4E" enable-background="new    " width="10" height="10"/>
			<rect x="136" y="156.895" opacity="0.85" fill="#79C772" enable-background="new    " width="11" height="10"/>
			<rect x="126" y="156.895" opacity="0.85" fill="#2B85DC" enable-background="new    " width="10" height="10"/>
			<rect x="114" y="156.895" opacity="0.85" fill="#6C2D73" enable-background="new    " width="12" height="10"/>
			<rect x="94" y="145.895" opacity="0.85" fill="#F7433C" enable-background="new    " width="10" height="11"/>
			<rect x="147" y="145.895" opacity="0.85" fill="#FFBB33" enable-background="new    " width="10" height="11"/>
			<rect x="136" y="145.895" opacity="0.85" fill="#EEEE4E" enable-background="new    " width="11" height="11"/>
			<rect x="126" y="145.895" opacity="0.85" fill="#79C772" enable-background="new    " width="10" height="11"/>
			<rect x="114" y="145.895" opacity="0.85" fill="#2B85DC" enable-background="new    " width="12" height="11"/>
			<rect x="104" y="145.895" opacity="0.85" fill="#6C2D73" enable-background="new    " width="10" height="11"/>
		</g>
	</g>
	<g>
		<defs>
			<path id="SVGID_9_" d="M157.469,209.661c-35.55-0.005-63.953-28.611-63.945-64.399c0.007-34.832,29.033-63.701,64.019-63.674
				c35.467,0.027,64.002,29.018,63.957,64.978C221.456,181.119,192.486,209.667,157.469,209.661z M186.394,145.722
				c0.02-15.333-13.586-28.96-28.936-28.982c-15.235-0.021-28.387,13.263-28.521,28.804c-0.133,15.58,12.651,28.572,28.34,28.802
				C172.784,174.572,186.375,161.21,186.394,145.722z"/>
		</defs>
		<clipPath id="SVGID_10_">
			<use xlink:href="#SVGID_9_"  overflow="visible"/>
		</clipPath>
		<g clip-path="url(#SVGID_10_)">
			<rect x="210" y="199.895" opacity="0.85" fill="#F7433C" enable-background="new    " width="13" height="10"/>
			<rect x="201" y="199.895" opacity="0.85" fill="#FFBB33" enable-background="new    " width="9" height="10"/>
			<rect x="189" y="199.895" opacity="0.85" fill="#EEEE4E" enable-background="new    " width="12" height="10"/>
			<rect x="179" y="199.895" opacity="0.85" fill="#79C772" enable-background="new    " width="10" height="10"/>
			<rect x="168" y="199.895" opacity="0.85" fill="#2B85DC" enable-background="new    " width="11" height="10"/>
			<rect x="157" y="199.895" opacity="0.85" fill="#6C2D73" enable-background="new    " width="11" height="10"/>
			<rect x="201" y="189.895" opacity="0.85" fill="#F7433C" enable-background="new    " width="9" height="10"/>
			<rect x="189" y="189.895" opacity="0.85" fill="#FFBB33" enable-background="new    " width="12" height="10"/>
			<rect x="179" y="189.895" opacity="0.85" fill="#EEEE4E" enable-background="new    " width="10" height="10"/>
			<rect x="168" y="189.895" opacity="0.85" fill="#79C772" enable-background="new    " width="11" height="10"/>
			<rect x="157" y="189.895" opacity="0.85" fill="#2B85DC" enable-background="new    " width="11" height="10"/>
			<rect x="210" y="189.895" opacity="0.85" fill="#6C2D73" enable-background="new    " width="13" height="10"/>
			<rect x="189" y="177.895" opacity="0.85" fill="#F7433C" enable-background="new    " width="12" height="12"/>
			<rect x="179" y="177.895" opacity="0.85" fill="#FFBB33" enable-background="new    " width="10" height="12"/>
			<rect x="168" y="177.895" opacity="0.85" fill="#EEEE4E" enable-background="new    " width="11" height="12"/>
			<rect x="157" y="177.895" opacity="0.85" fill="#79C772" enable-background="new    " width="11" height="12"/>
			<rect x="210" y="177.895" opacity="0.85" fill="#2B85DC" enable-background="new    " width="13" height="12"/>
			<rect x="201" y="177.895" opacity="0.85" fill="#6C2D73" enable-background="new    " width="9" height="12"/>
			<rect x="179" y="166.895" opacity="0.85" fill="#F7433C" enable-background="new    " width="10" height="11"/>
			<rect x="168" y="166.895" opacity="0.85" fill="#FFBB33" enable-background="new    " width="11" height="11"/>
			<rect x="157" y="166.895" opacity="0.85" fill="#EEEE4E" enable-background="new    " width="11" height="11"/>
			<rect x="210" y="166.895" opacity="0.85" fill="#79C772" enable-background="new    " width="13" height="11"/>
			<rect x="201" y="166.895" opacity="0.85" fill="#2B85DC" enable-background="new    " width="9" height="11"/>
			<rect x="189" y="166.895" opacity="0.85" fill="#6C2D73" enable-background="new    " width="12" height="11"/>
			<rect x="168" y="156.895" opacity="0.85" fill="#F7433C" enable-background="new    " width="11" height="10"/>
			<rect x="157" y="156.895" opacity="0.85" fill="#FFBB33" enable-background="new    " width="11" height="10"/>
			<rect x="210" y="156.895" opacity="0.85" fill="#EEEE4E" enable-background="new    " width="13" height="10"/>
			<rect x="201" y="156.895" opacity="0.85" fill="#79C772" enable-background="new    " width="9" height="10"/>
			<rect x="189" y="156.895" opacity="0.85" fill="#2B85DC" enable-background="new    " width="12" height="10"/>
			<rect x="179" y="156.895" opacity="0.85" fill="#6C2D73" enable-background="new    " width="10" height="10"/>
			<rect x="157" y="145.895" opacity="0.85" fill="#F7433C" enable-background="new    " width="11" height="11"/>
			<rect x="210" y="145.895" opacity="0.85" fill="#FFBB33" enable-background="new    " width="13" height="11"/>
			<rect x="201" y="145.895" opacity="0.85" fill="#EEEE4E" enable-background="new    " width="9" height="11"/>
			<rect x="189" y="145.895" opacity="0.85" fill="#79C772" enable-background="new    " width="12" height="11"/>
			<rect x="179" y="145.895" opacity="0.85" fill="#2B85DC" enable-background="new    " width="10" height="11"/>
			<rect x="168" y="145.895" opacity="0.85" fill="#6C2D73" enable-background="new    " width="11" height="11"/>
		</g>
	</g>
</g>
<path fill="none" d="M157.517,210.066c-35.664-0.006-64.155-28.703-64.148-64.604c0.008-34.942,29.124-63.902,64.221-63.875
	c35.579,0.027,64.205,29.108,64.16,65.183C221.706,181.434,192.644,210.072,157.517,210.066z M186.533,145.924
	c0.021-15.382-13.628-29.051-29.026-29.073c-15.284-0.021-28.478,13.304-28.612,28.895c-0.134,15.629,12.692,28.663,28.43,28.893
	C172.879,174.867,186.514,161.462,186.533,145.924z"/>
<path d="M186.324,145.722c-0.019,15.489-13.611,28.851-29.116,28.624c-15.689-0.229-28.474-13.222-28.34-28.802
	c0.134-15.542,13.287-28.825,28.521-28.804C172.738,116.761,186.343,130.388,186.324,145.722z"/>
<g>
	<g>
		<defs>
			<path id="SVGID_11_" d="M485.521,66.321c30.825,0,61.649-0.029,92.474,0.028c5.419,0.01,6.282,1.007,6.622,6.444
				c0.064,1.061,0.023,2.129,0.023,3.194c0.001,36.925,0.002,73.85,0,110.775c-0.001,11.62-0.148,11.764-11.55,11.764
				c-59.278,0-118.56,0-177.84-0.002c-7.345,0-8.029-0.621-8.639-7.935c-0.128-1.53-0.212-3.067-0.212-4.601
				c-0.011-36.334-0.01-72.667-0.008-109c0-10.703,0.077-10.773,10.918-10.773c29.404,0,58.808,0,88.209,0
				C485.521,66.251,485.521,66.287,485.521,66.321z"/>
		</defs>
		<clipPath id="SVGID_12_">
			<use xlink:href="#SVGID_11_"  overflow="visible"/>
		</clipPath>
		<g clip-path="url(#SVGID_12_)">
			<rect x="497" y="231.895" opacity="0.85" fill="#F7433C" enable-background="new    " width="22" height="34"/>
			<rect x="474" y="231.895" opacity="0.85" fill="#FFBB33" enable-background="new    " width="23" height="34"/>
			<rect x="452" y="231.895" opacity="0.85" fill="#EEEE4E" enable-background="new    " width="22" height="34"/>
			<rect x="430" y="231.895" opacity="0.85" fill="#79C772" enable-background="new    " width="22" height="34"/>
			<rect x="408" y="231.895" opacity="0.85" fill="#2B85DC" enable-background="new    " width="22" height="34"/>
			<rect x="386" y="231.895" opacity="0.85" fill="#6C2D73" enable-background="new    " width="22" height="34"/>
			<rect x="474" y="199.895" opacity="0.85" fill="#F7433C" enable-background="new    " width="23" height="32"/>
			<rect x="452" y="199.895" opacity="0.85" fill="#FFBB33" enable-background="new    " width="22" height="32"/>
			<rect x="430" y="199.895" opacity="0.85" fill="#EEEE4E" enable-background="new    " width="22" height="32"/>
			<rect x="408" y="199.895" opacity="0.85" fill="#79C772" enable-background="new    " width="22" height="32"/>
			<rect x="386" y="199.895" opacity="0.85" fill="#2B85DC" enable-background="new    " width="22" height="32"/>
			<rect x="497" y="199.895" opacity="0.85" fill="#6C2D73" enable-background="new    " width="22" height="32"/>
			<rect x="452" y="166.895" opacity="0.85" fill="#F7433C" enable-background="new    " width="22" height="33"/>
			<rect x="430" y="166.895" opacity="0.85" fill="#FFBB33" enable-background="new    " width="22" height="33"/>
			<rect x="408" y="166.895" opacity="0.85" fill="#EEEE4E" enable-background="new    " width="22" height="33"/>
			<rect x="384" y="166.895" opacity="0.85" fill="#79C772" enable-background="new    " width="24" height="33"/>
			<rect x="497" y="166.895" opacity="0.85" fill="#2B85DC" enable-background="new    " width="22" height="33"/>
			<rect x="474" y="166.895" opacity="0.85" fill="#6C2D73" enable-background="new    " width="23" height="33"/>
			<rect x="430" y="130.895" opacity="0.85" fill="#F7433C" enable-background="new    " width="22" height="36"/>
			<rect x="408" y="130.895" opacity="0.85" fill="#FFBB33" enable-background="new    " width="22" height="36"/>
			<rect x="384" y="130.895" opacity="0.85" fill="#EEEE4E" enable-background="new    " width="24" height="36"/>
			<rect x="497" y="130.895" opacity="0.85" fill="#79C772" enable-background="new    " width="22" height="36"/>
			<rect x="474" y="130.895" opacity="0.85" fill="#2B85DC" enable-background="new    " width="23" height="36"/>
			<rect x="452" y="130.895" opacity="0.85" fill="#6C2D73" enable-background="new    " width="22" height="36"/>
			<rect x="408" y="99.895" opacity="0.85" fill="#F7433C" enable-background="new    " width="22" height="31"/>
			<rect x="384" y="99.895" opacity="0.85" fill="#FFBB33" enable-background="new    " width="24" height="31"/>
			<rect x="497" y="99.895" opacity="0.85" fill="#EEEE4E" enable-background="new    " width="22" height="31"/>
			<rect x="474" y="99.895" opacity="0.85" fill="#79C772" enable-background="new    " width="23" height="31"/>
			<rect x="452" y="99.895" opacity="0.85" fill="#2B85DC" enable-background="new    " width="22" height="31"/>
			<rect x="430" y="99.895" opacity="0.85" fill="#6C2D73" enable-background="new    " width="22" height="31"/>
			<rect x="384" y="64.895" opacity="0.85" fill="#F7433C" enable-background="new    " width="24" height="35"/>
			<rect x="497" y="64.895" opacity="0.85" fill="#FFBB33" enable-background="new    " width="22" height="35"/>
			<rect x="474" y="64.895" opacity="0.85" fill="#EEEE4E" enable-background="new    " width="23" height="35"/>
			<rect x="452" y="64.895" opacity="0.85" fill="#79C772" enable-background="new    " width="22" height="35"/>
			<rect x="430" y="64.895" opacity="0.85" fill="#2B85DC" enable-background="new    " width="22" height="35"/>
			<rect x="408" y="64.895" opacity="0.85" fill="#6C2D73" enable-background="new    " width="22" height="35"/>
		</g>
	</g>
	<g>
		<defs>
			<path id="SVGID_13_" d="M485.521,66.321c30.825,0,61.649-0.029,92.474,0.028c5.419,0.01,6.282,1.007,6.622,6.444
				c0.064,1.061,0.023,2.129,0.023,3.194c0.001,36.925,0.002,73.85,0,110.775c-0.001,11.62-0.148,11.764-11.55,11.764
				c-59.278,0-118.56,0-177.84-0.002c-7.345,0-8.029-0.621-8.639-7.935c-0.128-1.53-0.212-3.067-0.212-4.601
				c-0.011-36.334-0.01-72.667-0.008-109c0-10.703,0.077-10.773,10.918-10.773c29.404,0,58.808,0,88.209,0
				C485.521,66.251,485.521,66.287,485.521,66.321z"/>
		</defs>
		<clipPath id="SVGID_14_">
			<use xlink:href="#SVGID_13_"  overflow="visible"/>
		</clipPath>
		<g clip-path="url(#SVGID_14_)">
			<rect x="630" y="231.895" opacity="0.85" fill="#F7433C" enable-background="new    " width="21" height="34"/>
			<rect x="608" y="231.895" opacity="0.85" fill="#FFBB33" enable-background="new    " width="22" height="34"/>
			<rect x="587" y="231.895" opacity="0.85" fill="#EEEE4E" enable-background="new    " width="21" height="34"/>
			<rect x="562" y="231.895" opacity="0.85" fill="#79C772" enable-background="new    " width="25" height="34"/>
			<rect x="542" y="231.895" opacity="0.85" fill="#2B85DC" enable-background="new    " width="20" height="34"/>
			<rect x="519" y="231.895" opacity="0.85" fill="#6C2D73" enable-background="new    " width="23" height="34"/>
			<rect x="608" y="199.895" opacity="0.85" fill="#F7433C" enable-background="new    " width="22" height="32"/>
			<rect x="587" y="199.895" opacity="0.85" fill="#FFBB33" enable-background="new    " width="21" height="32"/>
			<rect x="562" y="199.895" opacity="0.85" fill="#EEEE4E" enable-background="new    " width="25" height="32"/>
			<rect x="542" y="199.895" opacity="0.85" fill="#79C772" enable-background="new    " width="20" height="32"/>
			<rect x="519" y="199.895" opacity="0.85" fill="#2B85DC" enable-background="new    " width="23" height="32"/>
			<rect x="630" y="199.895" opacity="0.85" fill="#6C2D73" enable-background="new    " width="21" height="32"/>
			<rect x="587" y="166.895" opacity="0.85" fill="#F7433C" enable-background="new    " width="21" height="33"/>
			<rect x="562" y="166.895" opacity="0.85" fill="#FFBB33" enable-background="new    " width="25" height="33"/>
			<rect x="542" y="166.895" opacity="0.85" fill="#EEEE4E" enable-background="new    " width="20" height="33"/>
			<rect x="519" y="166.895" opacity="0.85" fill="#79C772" enable-background="new    " width="23" height="33"/>
			<rect x="630" y="166.895" opacity="0.85" fill="#2B85DC" enable-background="new    " width="21" height="33"/>
			<rect x="608" y="166.895" opacity="0.85" fill="#6C2D73" enable-background="new    " width="22" height="33"/>
			<rect x="562" y="130.895" opacity="0.85" fill="#F7433C" enable-background="new    " width="25" height="36"/>
			<rect x="542" y="130.895" opacity="0.85" fill="#FFBB33" enable-background="new    " width="20" height="36"/>
			<rect x="519" y="130.895" opacity="0.85" fill="#EEEE4E" enable-background="new    " width="23" height="36"/>
			<rect x="630" y="130.895" opacity="0.85" fill="#79C772" enable-background="new    " width="21" height="36"/>
			<rect x="608" y="130.895" opacity="0.85" fill="#2B85DC" enable-background="new    " width="22" height="36"/>
			<rect x="587" y="130.895" opacity="0.85" fill="#6C2D73" enable-background="new    " width="21" height="36"/>
			<rect x="542" y="99.895" opacity="0.85" fill="#F7433C" enable-background="new    " width="20" height="31"/>
			<rect x="519" y="99.895" opacity="0.85" fill="#FFBB33" enable-background="new    " width="23" height="31"/>
			<rect x="630" y="99.895" opacity="0.85" fill="#EEEE4E" enable-background="new    " width="21" height="31"/>
			<rect x="608" y="99.895" opacity="0.85" fill="#79C772" enable-background="new    " width="22" height="31"/>
			<rect x="587" y="99.895" opacity="0.85" fill="#2B85DC" enable-background="new    " width="21" height="31"/>
			<rect x="562" y="99.895" opacity="0.85" fill="#6C2D73" enable-background="new    " width="25" height="31"/>
			<rect x="519" y="64.895" opacity="0.85" fill="#F7433C" enable-background="new    " width="23" height="35"/>
			<rect x="630" y="66.895" opacity="0.85" fill="#FFBB33" enable-background="new    " width="21" height="33"/>
			<rect x="608" y="66.895" opacity="0.85" fill="#EEEE4E" enable-background="new    " width="22" height="33"/>
			<rect x="587" y="66.895" opacity="0.85" fill="#79C772" enable-background="new    " width="21" height="33"/>
			<rect x="562" y="64.895" opacity="0.85" fill="#2B85DC" enable-background="new    " width="25" height="35"/>
			<rect x="542" y="64.895" opacity="0.85" fill="#6C2D73" enable-background="new    " width="20" height="35"/>
		</g>
	</g>
</g>
<g>
	<path fill="#FFFFFF" d="M1157.324,100.573c0,43.273,0,85.686,0,128.469c-42.101,0-84.104,0-126.428,0c0-55.188,0-110.444,0-165.97
		c28.723,0,57.365,0,86.533,0c0,12.266,0,24.624,0,37.501C1130.934,100.573,1143.925,100.573,1157.324,100.573z"/>
	<g>
		<g>
			<defs>
				<path id="SVGID_15_" d="M1157.406,100.673c0,43.274,0,85.687,0,128.47c-42.164,0-84.233,0-126.621,0
					c0-55.188,0-110.444,0-165.971c28.766,0,57.455,0,86.668,0c0,12.265,0,24.624,0,37.501
					C1130.976,100.673,1143.986,100.673,1157.406,100.673z"/>
			</defs>
			<clipPath id="SVGID_16_">
				<use xlink:href="#SVGID_15_"  overflow="visible"/>
			</clipPath>
			<g clip-path="url(#SVGID_16_)">
				<rect x="1030" y="61.895" opacity="0.85" fill="#F7433C" enable-background="new    " width="19" height="167"/>
				<rect x="1049" y="61.895" opacity="0.85" fill="#FFBB33" enable-background="new    " width="24" height="167"/>
				<rect x="1073" y="61.895" opacity="0.85" fill="#EEEE4E" enable-background="new    " width="21" height="167"/>
				<rect x="1094" y="61.895" opacity="0.85" fill="#79C772" enable-background="new    " width="22" height="167"/>
				<rect x="1116" y="61.895" opacity="0.85" fill="#2B85DC" enable-background="new    " width="23" height="167"/>
				<rect x="1139" y="61.895" opacity="0.85" fill="#6C2D73" enable-background="new    " width="19" height="167"/>
			</g>
		</g>
	</g>
	<g>
		<path d="M1019.374,240.488c0-63.079,0-125.824,0-188.879c1.558-0.08,2.929-0.21,4.301-0.21c32.663-0.01,65.326-0.058,97.988,0.1
			c2.232,0.012,4.985,1.012,6.601,2.514c12.811,11.922,25.446,24.033,38.006,36.222c1.291,1.254,2.455,3.387,2.459,5.113
			c0.125,47.812,0.096,95.623,0.08,143.434c0,0.459-0.124,0.916-0.237,1.707C1118.974,240.488,1069.371,240.488,1019.374,240.488z
			 M1157.324,100.573c-13.399,0-26.392,0-39.895,0c0-12.878,0-25.235,0-37.501c-29.168,0-57.812,0-86.533,0
			c0,55.526,0,110.783,0,165.97c42.323,0,84.327,0,126.428,0C1157.324,186.259,1157.324,143.847,1157.324,100.573z M1148.578,89.062
			c-6.804-6.498-12.766-12.193-19.194-18.333c0,6.597,0,12.424,0,18.333C1135.599,89.062,1141.492,89.062,1148.578,89.062z"/>
		<path fill="#FFFFFF" d="M1148.738,89.338c-7.086,0-12.979,0-19.193,0c0-5.91,0-11.737,0-18.333
			C1135.974,77.146,1141.936,82.841,1148.738,89.338z"/>
	</g>
</g>
<text transform="matrix(1 0 0 1 119.2495 277.2969)" font-family="'Avenir-Medium'" font-size="28.3616">billions</text>
<text transform="matrix(1 0 0 1 426.3198 277.2969)" font-family="'Avenir-Medium'" font-size="28.3616"> 16 million</text>
<text transform="matrix(1 0 0 1 692.8525 277.2969)" font-family="'Avenir-Medium'" font-size="28.3616">10 –15 thousand</text>
<text transform="matrix(1 0 0 1 997.3359 277.2969)" font-family="'Avenir-Medium'" font-size="28.3616">5 – 6 thousand</text>
<text transform="matrix(1 0 0 1 761.6934 34.4912)" font-family="'Avenir-Heavy'" font-size="28.4329">FILM</text>
<text transform="matrix(1 0 0 1 1050.0723 34.4912)" font-family="'Avenir-Heavy'" font-size="28.4329">PRINT</text>
<text transform="matrix(1 0 0 1 402.417 34.4912)" font-family="'Avenir-Heavy'" font-size="28.4329">COMPUTER</text>
<text transform="matrix(1 0 0 1 76.6333 34.4912)" font-family="'Avenir-Heavy'" font-size="28.4329">HUMAN EYE</text>
</svg>
