<?xml version="1.0" encoding="utf-8"?>
<!-- Generator: Adobe Illustrator 16.0.4, SVG Export Plug-In . SVG Version: 6.00 Build 0)  -->
<!DOCTYPE svg PUBLIC "-//W3C//DTD SVG 1.1//EN" "http://www.w3.org/Graphics/SVG/1.1/DTD/svg11.dtd">
<svg version="1.1" id="Layer_1" xmlns="http://www.w3.org/2000/svg" xmlns:xlink="http://www.w3.org/1999/xlink" x="0px" y="0px"
	 width="150px" height="184.567px" viewBox="0 0 150 184.567" enable-background="new 0 0 150 184.567" xml:space="preserve">
<g>
	<g>
		<g>
			<path fill="#FFFFFF" d="M75.231,92.567L5.635,23.5h139.192L75.231,92.567z M19.372,29.5l55.86,55.435L131.091,29.5H19.372z"/>
		</g>
	</g>
	<g>
		<g>
			<path fill="#FFFFFF" d="M75.132,67.252L0.407,0.5h149.449L75.132,67.252z M15.237,6.5l59.895,53.505L135.026,6.5H15.237z"/>
		</g>
	</g>
	<g>
		<path fill="#FFFFFF" d="M75.231,184.567L5.635,115.5h139.192L75.231,184.567z M19.372,121.5l55.86,55.435l55.859-55.435H19.372z"
			/>
	</g>
	<g>
		<polygon fill="#FFFFFF" points="75.132,155.42 41.477,125.46 7.822,95.5 75.132,95.5 142.441,95.5 108.786,125.46 		"/>
		<path fill="#FFFFFF" d="M75.132,159.252L0.407,92.5h149.449L75.132,159.252z M15.237,98.5l59.895,53.505L135.026,98.5H15.237z"/>
	</g>
</g>
</svg>
