<?xml version="1.0" encoding="utf-8"?>
<!-- Generator: Adobe Illustrator 16.0.4, SVG Export Plug-In . SVG Version: 6.00 Build 0)  -->
<!DOCTYPE svg PUBLIC "-//W3C//DTD SVG 1.1//EN" "http://www.w3.org/Graphics/SVG/1.1/DTD/svg11.dtd">
<svg version="1.1" id="Layer_1" xmlns="http://www.w3.org/2000/svg" xmlns:xlink="http://www.w3.org/1999/xlink" x="0px" y="0px"
	 width="304.227px" height="128.5px" viewBox="0 0 304.227 128.5" enable-background="new 0 0 304.227 128.5" xml:space="preserve">
<g>
	<path fill="#A94232" d="M60.669,11.835L41.458,111.4l-2.506,10.191c-0.334,1.671-1.504,2.505-2.673,2.505h-0.167
		c-0.167,0-0.167,0-0.167,0c-1.169,0-2.339-0.834-2.673-2.505l-2.505-9.689L11.388,11.835c-0.501-2.172,0.5-3.676,2.171-4.01
		c1.503-0.5,2.84,0.334,3.508,2.339l19.044,103.241L55.156,10.165c0.668-2.005,2.005-2.84,3.508-2.339
		C60.168,8.159,61.337,9.663,60.669,11.835z"/>
	<path fill="#A94232" d="M106.608,121.257c0,1.671-1.002,2.84-3.174,2.84c0,0-29.736,0-29.903,0c-0.167,0-1.503,0.168-2.172-0.334
		c0,0-0.835-0.5-0.835-1.504C70.023,108.562,70.357,9.998,70.357,9.998c0-1.504,1.002-2.673,2.84-2.84c0.167,0,0.334,0,0.334,0
		c0.167,0,0.167,0,0.167,0h29.736c2.005,0,3.174,1.336,3.174,2.84c0,1.502-1.169,2.673-3.174,2.673H76.538v6.181v0.668v23.89
		c0,0,0,0,0.167,0H97.42c2.004,0,3.174,1.337,3.174,2.839c0,1.504-1.002,2.673-3.174,2.673H76.705c-0.167,0-0.167,0-0.167,0v69.496
		h26.896C105.606,118.417,106.608,119.753,106.608,121.257z"/>
	<path fill="#A94232" d="M157.394,10.994v8.52v0.668v101.572c-0.168,0.668-0.668,2.673-2.339,3.006
		c-1.838,0.335-3.175-0.835-3.676-1.836l-29.735-97.229l-1.671-6.85c0,0,0.668,4.009,0.668,6.85c0,3.007,0.501,95.892,0.501,95.892
		c0,2.171-1.67,3.173-3.007,3.173c-1.336,0-3.174-1.169-3.174-3.173v-6.35V18.845v-7.851c0.167-2.172,1.837-3.175,3.174-3.175
		c0.334,0,1.337,0.167,2.172,0.668c0.667,0.501,1.169,1.503,1.336,1.838l28.565,92.884l2.507,9.022c0,0-0.668-6.35-0.668-9.69
		c-0.168-3.175-0.835-83.028-0.835-83.028v-8.687c0-2.004,1.837-3.007,3.173-3.007C155.724,7.819,157.394,8.822,157.394,10.994z"/>
	<path fill="#A94232" d="M203.166,86.843c0,5.68,0,9.356,0,12.196c-0.167,6.014-0.667,11.526-0.667,11.526
		c-0.502,4.844-2.674,9.021-6.35,11.528c-2.003,1.169-5.346,1.836-7.684,2.003c-0.167,0-3.509,0.168-4.511,0.168
		c0,0-0.168,0-0.334,0h-0.167c-1.003,0-10.691-0.168-10.691-0.168h-3.342c-1.336-0.167-3.007-1.169-3.007-3.174v-5.846V19.185v-8.52
		c0-2.004,1.671-3.007,3.007-3.007h3.008h0.334c0,0,9.688,0,10.691,0h0.167c0.166,0,0.334,0,0.334,0c1.002,0,4.344,0,4.511,0
		c2.338,0.167,5.681,0.835,7.684,2.004c3.676,2.507,5.848,6.85,6.35,11.694c0,0,0.5,5.346,0.667,11.36
		C203.166,35.725,203.166,81.331,203.166,86.843z M198.155,26.202c0-1.837-0.167-4.51-1.003-6.682
		c-0.835-2.004-2.339-3.675-3.508-4.845c-2.339-1.838-6.516-2.004-9.857-2.004c0,0,0,0-0.166,0c-2.339,0-11.527-0.167-11.527-0.167
		v0.835v1.837v0.668v99.4v4.009h11.693c3.342,0,7.519-0.167,9.857-2.173c1.169-1.169,2.673-2.673,3.508-4.844
		c0.836-2.173,1.003-4.846,1.003-6.515V86.843V26.202z"/>
	<path fill="#A94232" d="M241.588,65.127c-1.337,0.834-3.676,1.502-5.847,1.836l11.525,53.292v0.668
		c0,1.671-0.834,2.674-2.171,3.007h-0.668c-1.17,0-2.172-0.834-2.673-2.506l-11.527-54.293c-0.167,0-0.502,0.167-1.169,0.167
		c-0.836-0.167-8.019-0.167-10.024-0.167v53.792c0,1.171-1.169,3.174-2.673,3.174c-1.336,0-3.174-1.169-3.174-3.174V10.499
		c0-2.172,1.838-3.174,3.174-3.174c0,0,13.031,0,13.197,0c1.004,0,4.344,0.166,4.511,0.166c2.339,0.167,5.681,0.835,7.519,2.005
		c3.843,2.339,6.014,6.683,6.348,11.527c0,0,0.669,5.347,0.669,11.36c0,0.836,0.166,2.338,0.166,6.682
		c0,7.018-0.835,14.367-0.835,14.367C247.602,58.277,245.431,62.62,241.588,65.127z M239.248,60.114
		c1.169-1.169,2.673-2.673,3.51-4.845c0.834-2.172,1.002-4.845,1.002-6.682V25.867c0-1.67-0.168-4.343-1.002-6.515
		c-0.837-2.172-2.341-3.842-3.51-4.845c-2.506-2.005-6.682-2.172-9.855-2.172h-10.358v49.951c10.191,0,10.358,0,10.358,0
		c1.67,0,3.508-0.167,5.346-0.501C236.408,61.618,238.079,60.949,239.248,60.114z"/>
	<path fill="#A94232" d="M293.875,121.257c0,1.671-1.002,2.84-3.175,2.84c0,0-29.736,0-29.903,0s-1.503,0.168-2.171-0.334
		c0,0-0.835-0.5-0.835-1.504c-0.502-13.697-0.167-112.261-0.167-112.261c0-1.504,1.002-2.673,2.84-2.84c0.166,0,0.333,0,0.333,0
		c0.167,0,0.167,0,0.167,0H290.7c2.005,0,3.175,1.336,3.175,2.84c0,1.502-1.17,2.673-3.175,2.673h-26.896v6.181v0.668v23.89
		c0,0,0,0,0.168,0h20.715c2.004,0,3.174,1.337,3.174,2.839c0,1.504-1.003,2.673-3.174,2.673h-20.715c-0.168,0-0.168,0-0.168,0
		v69.496H290.7C292.873,118.417,293.875,119.753,293.875,121.257z"/>
</g>
</svg>
