<svg width="200" height="50" viewBox="0 0 200 50" fill="none" xmlns="http://www.w3.org/2000/svg">
<path d="M41.7549 0H8.37742C6.15559 0 4.02477 0.880284 2.45369 2.44721C0.882621 4.01414 0 6.13934 0 8.35531V41.6447C0 43.8607 0.882621 45.9859 2.45369 47.5528C4.02477 49.1197 6.15559 50 8.37742 50H41.7549C43.9769 50 46.108 49.1198 47.6796 47.553C49.2511 45.9861 50.1343 43.8609 50.135 41.6447V8.35531C50.1343 6.13909 49.2511 4.01389 47.6796 2.44704C46.108 0.880195 43.9769 -1.19826e-07 41.7549 0V0ZM41.0218 38.2723C41.0218 38.9716 40.7435 39.6423 40.248 40.1371C39.7524 40.6318 39.0802 40.9101 38.3791 40.9108H11.7642C11.0626 40.9108 10.3897 40.6329 9.89357 40.138C9.39744 39.6432 9.11872 38.9721 9.11872 38.2723V11.7304C9.11872 11.0307 9.39744 10.3595 9.89357 9.86472C10.3897 9.3699 11.0626 9.09191 11.7642 9.09191H38.3763C39.0775 9.09264 39.7497 9.37095 40.2452 9.86569C40.7407 10.3604 41.0191 11.0311 41.0191 11.7304L41.0218 38.2723ZM19.7503 31.7859C19.5507 31.7856 19.3531 31.746 19.1688 31.6694C18.9846 31.5927 18.8173 31.4807 18.6765 31.3395C18.5357 31.1983 18.4242 31.0308 18.3484 30.8466C18.2726 30.6625 18.234 30.4652 18.2347 30.2661V19.6707C18.2336 19.4714 18.272 19.2738 18.3476 19.0893C18.4233 18.9048 18.5347 18.737 18.6755 18.5955C18.8163 18.4541 18.9837 18.3417 19.1682 18.2649C19.3526 18.1882 19.5505 18.1484 19.7503 18.1481H30.3902C30.5902 18.1484 30.7882 18.1881 30.9728 18.2649C31.1574 18.3416 31.325 18.4539 31.466 18.5954C31.607 18.7368 31.7187 18.9046 31.7947 19.0891C31.8706 19.2736 31.9093 19.4713 31.9086 19.6707V30.2661C31.909 30.4653 31.87 30.6626 31.7939 30.8468C31.7178 31.0311 31.606 31.1985 31.465 31.3397C31.324 31.4808 31.1565 31.5928 30.9721 31.6694C30.7877 31.746 30.59 31.7856 30.3902 31.7859H19.7503ZM63.4287 31.0631H68.9016C69.1771 34.1551 71.2743 36.56 75.5153 36.56C79.3017 36.56 81.6275 34.6938 81.6275 31.8877C81.6275 29.2491 79.8032 28.0645 76.5184 27.2922L72.2773 26.3825C67.6698 25.382 64.203 22.4247 64.203 17.6011C64.203 12.2801 68.9484 8.63841 75.1047 8.63841C81.6275 8.63841 85.8245 12.052 86.1883 17.1009H80.8973C80.2607 14.7345 78.2986 13.3245 75.1102 13.3245C71.7345 13.3245 69.4086 15.144 69.4086 17.4665C69.4086 19.7889 71.4148 21.1961 74.8815 21.9684L79.0702 22.8617C83.6778 23.8621 86.8248 26.6381 86.8248 31.5056C86.8248 37.6924 82.1732 41.3781 75.5263 41.3781C68.028 41.3891 63.8944 37.3406 63.4259 31.0631H63.4287ZM106.418 50V40.9301L106.776 36.9585H106.418C105.167 39.8142 102.527 41.3753 98.9473 41.3753C93.1768 41.3753 88.8834 36.7029 88.8834 29.5075C88.8834 22.312 93.1768 17.6396 98.9473 17.6396C102.483 17.6396 104.988 19.2887 106.418 21.8777H106.776V18.0849H111.519V50H106.418ZM106.597 29.5212C106.597 24.9258 103.781 22.2488 100.333 22.2488C96.886 22.2488 94.0724 24.9258 94.0724 29.5212C94.0724 34.1166 96.8888 36.7936 100.333 36.7936C103.778 36.7936 106.586 34.1304 106.586 29.5212H106.597ZM115.308 31.8849V18.0986H120.387V31.4397C120.387 35.0539 122.131 36.7936 125.041 36.7936C128.624 36.7936 130.944 34.2513 130.944 30.2798V18.0986H136.045V40.9438H131.311V36.2137H130.952C129.836 39.237 127.37 41.3891 123.573 41.3891C118.113 41.3891 115.297 37.9095 115.297 31.8849H115.308ZM139.175 34.5619C139.175 30.2798 142.171 27.7814 147.495 27.4681L153.803 27.0668V25.2831C153.803 23.1393 152.238 21.8475 149.463 21.8475C146.914 21.8475 145.392 23.1393 144.99 24.9698H139.878C140.416 20.3304 144.263 17.6534 149.452 17.6534C155.313 17.6534 158.893 20.1517 158.893 24.9698V40.9438H154.15V36.7057H153.792C152.72 39.5146 150.485 41.3781 146.186 41.3781C142.072 41.3891 139.164 38.6241 139.164 34.5619H139.175ZM153.803 31.753V30.5574L148.658 30.9147C145.886 31.0933 144.632 32.1213 144.632 34.1716C144.632 35.9114 146.065 37.1619 148.076 37.1619C151.689 37.1537 153.792 34.8312 153.792 31.753H153.803ZM162.701 40.9438V18.0986H167.444V22.4714H167.785C168.455 19.4811 170.737 18.0986 174.137 18.0986H176.463V22.694H173.573C170.266 22.694 167.802 24.8351 167.802 28.8973V40.9438H162.701ZM199.821 30.4584H182.407C182.683 34.6526 185.629 37.0163 188.894 37.0163C191.667 37.0163 193.411 35.9004 194.406 34.0287H199.463C198.085 38.6681 194.004 41.3891 188.859 41.3891C182.104 41.3891 177.362 36.3484 177.362 29.5212C177.362 22.694 182.239 17.6534 188.905 17.6534C195.616 17.6534 200 22.2488 200 27.9601C199.992 28.7962 199.929 29.6308 199.81 30.4584H199.821ZM194.943 26.9322C194.764 23.7659 192.127 21.6249 188.905 21.6249C185.874 21.6249 183.311 23.5488 182.686 26.9322H194.943Z" fill="black"/>
</svg>
