<?xml version="1.0" encoding="utf-8"?>
<!-- Generator: Adobe Illustrator 19.0.0, SVG Export Plug-In . SVG Version: 6.00 Build 0)  -->
<svg version="1.1" id="Layer_1" xmlns="http://www.w3.org/2000/svg" xmlns:xlink="http://www.w3.org/1999/xlink" x="0px" y="0px"
	 viewBox="-245 385 120 24" style="enable-background:new -245 385 120 24;" xml:space="preserve">
<style type="text/css">
	.st0{clip-path:url(#SVGID_2_);fill:#7DCC93;}
	.st1{clip-path:url(#SVGID_4_);fill:#7DCC93;}
	.st2{fill:none;stroke:#7DCC93;stroke-width:4;stroke-linecap:round;stroke-linejoin:round;stroke-miterlimit:10;}
</style>
<g>
	<defs>
		<path id="SVGID_1_" d="M-241.9,403.5l13.4-13.4c0.5-0.5,1.2-0.5,1.7,0c0.5,0.5,0.5,1.2,0,1.7l-13.4,13.4c-0.5,0.5-1.2,0.5-1.7,0
			C-242.4,404.8-242.4,404-241.9,403.5z"/>
	</defs>
	<clipPath id="SVGID_2_">
		<use xlink:href="#SVGID_1_"  style="overflow:visible;"/>
	</clipPath>
	
		<rect x="-248.1" y="393.4" transform="matrix(-0.7071 0.7071 -0.7071 -0.7071 -118.8988 844.6815)" class="st0" width="27.4" height="8.5"/>
</g>
<g>
	<defs>
		<path id="SVGID_3_" d="M-226.8,403.5l-13.4-13.4c-0.5-0.5-1.2-0.5-1.7,0c-0.5,0.5-0.5,1.2,0,1.7l13.4,13.4c0.5,0.5,1.2,0.5,1.7,0
			C-226.4,404.8-226.4,404-226.8,403.5z"/>
	</defs>
	<clipPath id="SVGID_4_">
		<use xlink:href="#SVGID_3_"  style="overflow:visible;"/>
	</clipPath>
	
		<rect x="-248.1" y="393.4" transform="matrix(0.7071 0.7071 -0.7071 0.7071 212.5769 282.2261)" class="st1" width="27.4" height="8.5"/>
</g>
<polyline class="st2" points="-149.8,387.6 -140.6,396.8 -149.4,405.6 "/>
<polyline class="st2" points="-189.2,387.6 -198.4,396.8 -189.5,405.6 "/>
</svg>
