<?xml version="1.0" encoding="utf-8"?>
<!-- Generator: Adobe Illustrator 18.1.1, SVG Export Plug-In . SVG Version: 6.00 Build 0)  -->
<svg version="1.1" id="Layer_1" xmlns="http://www.w3.org/2000/svg" xmlns:xlink="http://www.w3.org/1999/xlink" x="0px" y="0px"
	 viewBox="0 0 316 100" enable-background="new 0 0 316 100" xml:space="preserve">
<path fill="#B7B7B7" d="M238.6,74.2c-0.1,1.1-0.5,5.6,2.6,5.9c4.8,0.5,7.8-7.1,9.4-12.3c2.2-7.2,8.2-0.9,6.8,2.9
	c-3,7.8-8.8,18.2-19.2,17.2c-6.4-0.6-9.7-6.2-9.1-12.4l3.2-32.3c0.2-2.3-0.2-3.1-0.1-3.9c0.1-1.2,1.7-1.9,3.3-1.7c4,0.4,6.3,3.1,6,6
	L238.6,74.2z M233.3,18.4c0.4-4.2,4-7.1,8-6.7c4.2,0.4,7.1,3.9,6.7,8.1c-0.4,4-3.9,7.1-8.1,6.7C235.9,26.1,233,22.4,233.3,18.4z"/>
<path fill="#B7B7B7" d="M257.3,29.3L260.4,9c0.5-3.5-0.6-3.9-0.5-4.8c0.1-0.8,2.4-1,4.1-0.7c4,0.6,6.1,3.4,5.7,6.3l-3.2,21
	c7.3,1.1,15.8,2.3,24,3.2c3.9-3.1,1.1,8.3-2.1,7.9c-9.6-1.2-16.7-2.3-23.1-3.3l-5.9,38.1c-0.6,3.8,0.7,5.8,3.2,6.2
	c4.8,0.7,8.2-6.6,10.1-11.7c0.9-2.5,2.2-3.3,3.4-3.2c1.9,0.3,3.8,3.3,3.4,5.6c0,0.1-0.1,0.4-0.3,0.8c-3.3,7.6-9.7,17.7-20.1,16.1
	c-6.5-1-10.5-5.6-9-15l5.9-38.2c-5.3-0.8-6.2-1.1-6.2-1.1c-3.8-0.6-4.8-9-1.3-8.4C248.6,27.7,250.8,28.1,257.3,29.3z"/>
<path fill="#B7B7B7" d="M280.6,79.2c0.6,4.4,2.8,8.6,8.9,10.2c9.2,2.5,15-4.1,18.3-10.9c2.5-5,8.4-0.9,6.8,3.1
	c-2.8,6.9-11.3,19.9-28.6,15.2c-10.7-2.9-18.4-14.2-14.5-28.9c4-14.9,16-23.6,25-21.2c6.6,1.8,9.3,7.7,7.3,14.7
	C301.7,70.2,292.9,78.9,280.6,79.2z M280.9,72.4c6.6-1.1,12-6.2,13.9-13.2c0.7-2.6,0.2-4.4-1.3-4.8c-5.7-1.6-11,10.9-12.1,15.9
	C281.2,70.9,281.1,71.7,280.9,72.4z"/>
<path fill="#B7B7B7" d="M232.7,61.8c-1.2-0.1-2.5,1-3.1,3.5c-1.3,5.3-3.7,13-9.3,12.7c-3.3-0.1-4.7-3.4-4.6-6.8
	c0.5-12.1,6.6-26.2,6.7-27.7c0.6-2.8-4.1-7-5.5-7.1l-6.3-0.3c-1.2-0.1-3,0.2-7-0.5c-1.1-5-4.5-6.7-7.4-6.8c-3.2-0.1-6.2,1.9-6.3,5.3
	c-0.2,3.5,1.9,6.2,4.9,8c-0.2,3.8,0,7.3-0.5,11.1c-0.4,3.2-0.7,6.5-1.9,9.6c-1.2,3.3-2.5,6.2-5,8.6c-1.8,1.7-4.1,3.4-6.2,4.6
	c0.1-0.1,0.1-0.2,0.2-0.3c1.3-1.6,2.4-4.2,2.3-4.2c1.2-4.3,2.1-10.8,2.1-15.5c0-8.9-2.8-14.6-6.6-17.4c-0.1-0.1-0.2-0.1-0.3-0.2
	c-0.5-0.4-1.1-0.8-1.8-1.1c0,0-0.1,0-0.1-0.1c-0.6-0.3-1.2-0.5-1.9-0.7c-0.1,0-0.2-0.1-0.3-0.1c-0.7-0.2-1.4-0.2-2.1-0.2
	c-5.4-0.4-10.8,1.9-14.4,9.4c0,0,0.1-13.3,0.1-16.7c0-6.9-0.1-13.9-0.1-20.8c0-0.8,0-1.7,0-2.5c0-2.9-2.6-5.3-6.6-5.3
	c-1.7,0-3.9,0.5-3.9,1.4c0,0.9,1.2,1.1,1.2,4.6l0.3,58c0.1,11.9,6.2,20.8,17.4,20.7c0.4,0,11.6-0.2,16.7-2.3c3.3-1.3,7.5-4,11.3-8.7
	c3.9-4.9,5.6-11.3,5.8-12c0.6-2.2,1-4.4,1.4-6.6c0.6-3.7,1.1-7.4,1.3-11.2l1.3,0.1l9.2,0.4c-4.4,10.3-6.9,18.8-7.3,26.6
	c-0.5,10.7,6.2,14.2,11.9,14.4c10.5,0.5,15.7-10.3,18.2-18.2c0-0.2,0.1-0.5,0.2-0.8C236.9,64.6,234.7,61.9,232.7,61.8z M176.5,60.7
	c-0.1,1.5-0.2,3-0.5,4.6c-0.3,2.1-0.8,4.2-1.4,6.3c-0.7,2.2-1.9,4.4-4.3,5c-2.6,0.7-5.9,0.1-7.9-1.7c-1.5-1.5-2.4-3.5-2.9-5.5
	c-0.2-0.7-0.3-1.3-0.4-2c0,0-0.3-1.9-0.1-3.7c0.1-1.9,0.7-3.8,0.8-4.1c0.4-1.9,1.5-4.8,2.9-7.6c2.3-4.5,5.7-8.7,9.2-7.8
	c0.4,0.1,0.7,0.3,1,0.6c2,0.7,3.7,5.1,3.8,12.6C176.6,58.3,176.5,59.5,176.5,60.7z"/>
<path fill="#B7B7B7" d="M24.9,42.7c-0.8-2.2-1.5-2.7-1.7-3.5c-0.4-1.1,0.7-2.4,2.3-3c3.8-1.3,7.2,0.1,8.2,2.8l10.5,30.9
	c7.5-3.6,20.2-17.8,13.5-37.1C54.5,24,45.4,15,32,19.6c-18.5,6.4-21.7,21.2-16.8,35.2c3.5,10.1,8.9,12.2,9.2,12.5
	c1.1-0.8,1.9-0.1,2.3,1c0.7,2.1,0.3,10.7-4,9.4C20.3,76.6,11.4,72,6.7,58.6c-7.5-21.5,1.8-40.4,22.2-47.5
	c16.8-5.8,31.7,2.1,37.4,18.4c7,20-3.5,40-19.2,49l5.3,15.2c0.7,2-0.6,3.2-2.3,3.8c-2.6,0.9-6.3,0.4-6.9-1.3L24.9,42.7z"/>
<g>
	<path fill="#B7B7B7" d="M79.3,29.1c4.2-0.6,6.8-4.5,6.2-8.5c-0.7-4.2-4.3-6.9-8.5-6.2c-4,0.6-6.7,4.2-6.1,8.4
		C71.6,26.9,75.3,29.7,79.3,29.1z"/>
	<path fill="#B7B7B7" d="M156.6,64.2c-0.2-2.3-2.6-4.8-4.6-4.7c-1.2,0.1-2.4,1.3-2.7,3.8c-0.7,5.4-2.2,13.8-7.1,14.1
		c-4.5,0.3-8.2-5.5-13.4-15.1L141.2,42c0.3-0.5,0.4-1.1,0.4-1.9c-0.2-2.8-3.1-6.1-5.5-6c-1.3,0.1-2.2,1.2-3.2,3.5
		c-1.8,4-4.7,10.1-8.4,16.7c-3.5-6.2-6.2-10.8-9.4-15.3c-1.8-2.4-4.7-3-6.7-2.8c-5.1,0.3-7.1,2.1-6.8,6.3c0.4,6.2-0.9,18.3-1.3,23.6
		c0,0.6-0.8,14-6.3,14.9c-3.1,0.5-3.8-4-4-5l-4.7-30.5c-0.4-2.9-3.3-4.9-7.3-4.3c-1.7,0.3-3,1.3-2.8,2.5c0.1,0.8,0.7,1.5,1.1,3.8
		l4.9,32.1c0.9,6.1,5.5,10.7,11.8,9.7c10.3-1.6,13.4-13.1,14.3-21.4c0-0.2,1-6,1.3-9.1c0.5-4.5,0.9-9,0.8-11.9
		c3.7,5.4,6.8,10.6,9.7,16.3c-3.1,5.1-4.3,9.1-7.8,13.7c-3.6,4.8-5,4.1-4.9,5.7c0.2,2.3,3.8,3.8,6.6,3.6c2.2-0.1,3.7-1.2,5.2-4
		l5.2-11c6,10.7,10.7,14.5,18,14c9.8-0.7,13.3-11.9,14.9-20C156.6,64.6,156.6,64.4,156.6,64.2z"/>
</g>
<path fill="#FFFFFF" d="M21.8,44.3c-0.8-2.2-1.5-2.7-1.7-3.5c-0.4-1.1,0.7-2.4,2.3-3c3.8-1.3,7.2,0.1,8.2,2.8L41,71.5
	c7.5-3.6,20.2-17.8,13.5-37.1c-3-8.7-12.1-17.8-25.5-13.1C10.4,27.7,7.2,42.5,12.1,56.5C15.6,66.6,21,68.7,21.3,69
	c1.1-0.8,1.9-0.1,2.3,1c0.7,2.1,0.3,10.7-4,9.4c-2.4-1.1-11.4-5.7-16.1-19.1c-7.5-21.5,1.8-40.4,22.2-47.5
	c16.8-5.8,31.7,2.1,37.4,18.4c7,20-3.5,40-19.2,49l5.3,15.2c0.7,2-0.6,3.2-2.3,3.8c-2.6,0.9-6.3,0.4-6.9-1.3L21.8,44.3z"/>
<g>
	<path fill="#FFFFFF" d="M76.9,30.3c4.2-0.6,6.8-4.5,6.2-8.5c-0.7-4.2-4.3-6.9-8.5-6.2c-4,0.6-6.7,4.2-6.1,8.4
		C69.1,28,72.9,30.9,76.9,30.3z"/>
	<path fill="#FFFFFF" d="M153.5,65.9c-0.2-2.3-2.6-4.8-4.6-4.7c-1.2,0.1-2.4,1.3-2.7,3.8c-0.7,5.4-2.2,13.8-7.1,14.1
		c-4.5,0.3-8.2-5.5-13.4-15.1l12.4-20.5c0.3-0.5,0.4-1.1,0.4-1.9c-0.2-2.8-3.1-6.1-5.5-6c-1.3,0.1-2.2,1.2-3.2,3.5
		c-1.8,4-4.7,10.1-8.4,16.7c-3.5-6.2-6.2-10.8-9.4-15.3c-1.8-2.4-4.7-3-6.7-2.8c-5.1,0.3-7.1,2.1-6.8,6.3c0.4,6.2-0.9,18.3-1.3,23.6
		c0,0.6-0.8,14-6.3,14.9c-3.1,0.5-3.8-4-4-5L82.3,47c-0.4-2.9-3.3-4.9-7.3-4.3c-1.7,0.3-3,1.3-2.8,2.5c0.1,0.8,0.7,1.5,1.1,3.8
		l4.9,32.1c0.9,6.1,5.5,10.7,11.8,9.7c10.3-1.6,13.4-13.1,14.3-21.4c0-0.2,1-6,1.3-9.1c0.5-4.5,0.9-9,0.8-11.9
		c3.7,5.4,6.8,10.6,9.7,16.3c-3.1,5.1-4.3,9.1-7.8,13.7c-3.6,4.8-5,4.1-4.9,5.7c0.2,2.3,3.8,3.8,6.6,3.6c2.2-0.1,3.7-1.2,5.2-4
		l5.2-11c6,10.7,10.7,14.5,18,14c9.8-0.7,13.3-11.9,14.9-20C153.5,66.2,153.5,66,153.5,65.9z"/>
</g>
<path fill="#FFFFFF" d="M235.5,75.8c-0.1,1.1-0.5,5.6,2.6,5.9c4.8,0.5,7.8-7.1,9.4-12.3c2.2-7.2,8.2-0.9,6.8,2.9
	c-3,7.8-8.8,18.2-19.2,17.2c-6.4-0.6-9.7-6.2-9.1-12.4l3.2-32.3c0.2-2.3-0.2-3.1-0.1-3.9c0.1-1.2,1.7-1.9,3.3-1.7c4,0.4,6.3,3.1,6,6
	L235.5,75.8z M230.9,19.4c0.4-4.2,4-7.1,8-6.7c4.2,0.4,7.1,3.9,6.7,8.1c-0.4,4-3.9,7.1-8.1,6.7C233.4,27.1,230.5,23.4,230.9,19.4z"
	/>
<path fill="#FFFFFF" d="M253.9,31.1l3.1-20.3c0.5-3.5-0.6-3.9-0.5-4.8c0.1-0.8,2.4-1,4.1-0.7c4,0.6,6.1,3.4,5.7,6.3l-3.2,21
	c7.3,1.1,15.8,2.3,24,3.2c3.9-3.1,1.1,8.3-2.1,7.9c-9.6-1.2-16.7-2.3-23.1-3.3l-5.9,38.1c-0.6,3.8,0.7,5.8,3.2,6.2
	c4.8,0.7,8.2-6.6,10.1-11.7c0.9-2.5,2.2-3.3,3.4-3.2c1.9,0.3,3.8,3.3,3.4,5.6c0,0.1-0.1,0.4-0.3,0.8c-3.3,7.6-9.7,17.7-20.1,16.1
	c-6.5-1-10.5-5.6-9-15l5.9-38.2c-5.3-0.8-6.2-1.1-6.2-1.1c-3.8-0.6-4.8-9-1.3-8.4C245.2,29.5,247.4,29.9,253.9,31.1z"/>
<path fill="#FFFFFF" d="M277.5,80.8c0.6,4.4,2.8,8.6,8.9,10.2c9.2,2.5,15-4.1,18.3-10.9c2.5-5,8.4-0.9,6.8,3.1
	c-2.8,6.9-11.3,19.9-28.6,15.2c-10.7-2.9-18.4-14.2-14.5-28.9c4-14.9,16-23.6,25-21.2c6.6,1.8,9.3,7.7,7.3,14.7
	C298.6,71.8,289.8,80.5,277.5,80.8z M277.8,74c6.6-1.1,12-6.2,13.9-13.2c0.7-2.6,0.2-4.4-1.3-4.8c-5.7-1.6-11,10.9-12.1,15.9
	C278.1,72.6,278,73.3,277.8,74z"/>
<path fill="#787878" d="M155.3,52.9c0-0.4,0.1-0.9,0.3-1.5c0-3.5,0-6.9,0-10.4c-0.2,0.5-0.3,1-0.3,1.6
	C155.4,45.7,155.3,49.8,155.3,52.9z"/>
<path fill="#FFFFFF" d="M229.9,63.5c-1.2-0.1-2.5,1-3.1,3.5c-1.3,5.3-3.7,13-9.3,12.7c-3.3-0.1-4.7-3.4-4.6-6.8
	c0.5-12.1,6.6-26.2,6.7-27.7c0.6-2.8-4.1-7-5.5-7.1l-6.3-0.3c-1.2-0.1-3,0.2-7-0.5c-1.1-5-4.5-6.7-7.4-6.8c-3.2-0.1-6.2,1.9-6.3,5.3
	c-0.2,3.5,1.9,6.2,4.9,8c-0.2,3.8,0,7.3-0.5,11.1c-0.4,3.2-0.7,6.5-1.9,9.6c-1.2,3.3-2.5,6.2-5,8.6c-1.8,1.7-4.1,3.4-6.2,4.6
	c0.1-0.1,0.1-0.2,0.2-0.3c1.3-1.6,2.4-4.2,2.3-4.2c1.2-4.3,2.1-10.8,2.1-15.5c0-8.9-2.8-14.6-6.6-17.4c-0.1-0.1-0.2-0.1-0.3-0.2
	c-0.5-0.4-1.1-0.8-1.8-1.1c0,0-0.1,0-0.1-0.1c-0.6-0.3-1.2-0.5-1.9-0.7c-0.1,0-0.2-0.1-0.3-0.1c-0.7-0.2-1.4-0.2-2.1-0.2
	c-5.4-0.4-10.8,1.9-14.4,9.4c0,0,0.1-13.3,0.1-16.7c0-6.9-0.1-13.9-0.1-20.8c0-0.8,0-1.7,0-2.5c0-2.9-2.6-5.3-6.6-5.3
	c-1.7,0-3.9,0.5-3.9,1.4c0,0.9,1.2,1.1,1.2,4.6l0.3,58c0.1,11.9,6.1,19.8,17.3,19.7c0.4,0,11.6-0.2,16.7-2.3c3.3-1.3,7.6-3,11.3-7.7
	c3.9-4.9,5.6-11.3,5.8-12c0.6-2.2,1-4.4,1.4-6.6c0.6-3.7,1.1-7.4,1.3-11.2l1.3,0.1l9.2,0.4c-4.4,10.3-6.9,18.8-7.3,26.6
	c-0.5,10.7,6.2,14.2,11.9,14.4c10.5,0.5,15.7-10.3,18.2-18.2c0-0.2,0.1-0.5,0.2-0.8C234.1,66.4,231.9,63.6,229.9,63.5z M173.7,62.4
	c-0.1,1.5-0.2,3-0.5,4.6c-0.3,2.1-0.8,4.2-1.4,6.3c-0.7,2.2-1.9,4.4-4.3,5c-2.6,0.7-5.9,0.1-7.9-1.7c-1.5-1.5-2.4-3.5-2.9-5.5
	c-0.2-0.7-0.3-1.3-0.4-2c0,0-0.3-1.9-0.1-3.7c0.1-1.9,0.7-3.8,0.8-4.1c0.4-1.9,1.5-4.8,2.9-7.6c2.3-4.5,5.7-8.7,9.2-7.8
	c0.4,0.1,0.7,0.3,1,0.6c2,0.7,3.7,5.1,3.8,12.6C173.8,60,173.7,61.2,173.7,62.4z"/>
<path fill="#DDE4F9" d="M70.9,18.8c0.5-0.8,1.2-1.5,2-2.1c0.8-0.6,1.7-1,2.7-1.2L74,15.7c-1,0.2-1.9,0.6-2.7,1.2
	c-0.8,0.6-1.5,1.2-2,2c-0.5,0.8-0.9,1.7-1.1,2.6c-0.2,1-0.2,2,0.1,3c0.2,1,0.6,1.9,1.2,2.7c0.6,0.8,1.3,1.4,2.1,1.9
	c0.8,0.5,1.7,0.9,2.7,1l-1-0.7c-0.8-0.5-1.5-1.2-2.1-2c-0.6-0.8-1-1.8-1.3-2.8c-0.2-1.1-0.3-2.1-0.1-3.2
	C70,20.5,70.4,19.6,70.9,18.8z"/>
<path fill="#DDE4F9" d="M233.4,16c0.5-0.8,1.2-1.5,2-2.1c0.8-0.6,1.3-0.8,2.7-1.2c-0.5-0.1-1.6,0.1-1.6,0.1c-1,0.2-1.8,0.7-2.6,1.3
	c-0.8,0.6-1.5,1.2-2,2c-0.5,0.8-0.9,1.7-1.1,2.6c-0.2,1-0.2,2,0.1,3c0.2,1,0.6,1.9,1.2,2.7c0.6,0.8,1.3,1.4,2.1,1.9
	c0.8,0.5,1.7,0.9,2.7,1l-1-0.7c-0.8-0.5-1.5-1.2-2.1-2c-0.6-0.8-1-1.8-1.3-2.8c-0.2-1.1-0.3-2.1-0.1-3.2
	C232.5,17.8,232.9,16.8,233.4,16z"/>
<path fill="#DDE4F9" d="M32.1,10.7c-5.7,1.2-10.7,3.2-15,5.9c-4.3,2.8-7.8,6.2-10.5,10.2c-2.7,4-4.4,8.6-5.3,13.6
	c-0.9,5.1,0.1,10.9,1.3,16.7c0.8,3.6,2.3,6.7,3.7,9.3c1.4,2.6,3.2,4.8,4.7,6.5c1.4,1.7,3,2.9,4.3,3.9c0,0-1.4-1.6-2.3-2.7
	c-1.4-1.8-3.1-3.7-4.5-6.4c-1.4-2.7-3.2-5.9-4-9.6c-1.3-5.9-2.4-11.8-1.6-17c0.9-5.2,2.6-9.9,5.3-14c2.7-4.1,6.1-7.6,10.4-10.5
	c4.3-2.8,9.3-4.9,15-6.1L32.1,10.7z"/>
<path fill="#DDE4F9" d="M41.7,97.1c-1-2.4-2.4-6.6-4.1-11.4C33.3,74.3,28,59.7,28,59.7L23,46l-1.8-2.8L40.2,98c0,0,0.3,1.7,4.2,1.5
	c0.8,0,1.7-0.3,2.7-0.5C44.5,98.9,42.2,98.3,41.7,97.1z"/>
<path fill="#DDE4F9" d="M82.4,87.7c-1-0.9-1.9-2-2.5-3.4c-1.8-4.3-3.6-22.1-3.6-22.1s-1.1-7.9-1.7-10.6c-0.2-1-1.6-4.2-1.6-4.2
	l0.6,4.2l1.5,11l2.3,17.7c0.2,1.6,0.6,3,1.3,4.4c0.6,1.3,1.5,2.5,2.5,3.4c1,0.9,2.9,2.2,5.4,2.8c1.2,0.2,2.8,0.1,2.8,0.1
	c-1.7-0.3-2.5-0.6-3.5-1.1C84.6,89.2,83.5,88.6,82.4,87.7z"/>
<path fill="#DDE4F9" d="M229.7,85.5c-0.8-1.1-1.6-2.9-1.8-4.4c-0.6-4.6,1.3-22.2,1.3-22.2s0.7-8.1,0.6-10.9c0-1.1-0.6-4.5-0.6-4.5
	l-0.4,4.3l-1,11.2L226.4,77c-0.1,1.6-0.3,3,0,4.5c0.3,1.5,0.9,2.8,1.7,3.9c0.8,1.1,2.1,2.3,3.4,2.9c0.8,0.4,3.3,1.2,3.3,1.2
	c-0.6-0.3-1.6-1.1-2-1.3C231.6,87.5,230.5,86.6,229.7,85.5z"/>
<path fill="#DDE4F9" d="M116.8,63.4c-1.2-2.2-2.1-3.8-3.3-5.9c-1.1-1.9-2.3-3.9-3.6-5.8c-0.5-0.8-1.1-1.6-1.6-2.5l-1.6-0.8
	c0.6,0.8,1.1,1.7,1.6,2.5c1.3,2,2.5,3.9,3.6,5.8c1.2,2.1,2.4,4.2,3.6,6.4c0.4,0.7,0.5,0.8,0.8,1.5l0.7-1
	C116.6,63,117.1,64.1,116.8,63.4z"/>
<path fill="#DDE4F9" d="M135.4,86.4c-0.5-0.1-1.3-0.3-2.2-0.7c-1.1-0.5-2.2-1.1-2.5-1.3c-1.5-1.1-2.9-2.6-4.4-4.5
	c-0.7-0.9-1.4-1.9-2.1-3c-0.5-0.7-0.9-1.4-1.4-2.2c-0.3-0.5-0.7-1.1-1-1.7l-1.3-0.2c0.3,0.6,0.7,1.1,1,1.7c0.5,0.8,0.9,1.5,1.4,2.2
	c0.7,1.1,1.4,2.1,2.1,3c1.4,1.9,2.9,3.4,4.4,4.5c0.5,0.4,1.1,0.7,1.6,1.1c1,0.6,2,1,3,1.2c0.8,0.2,1.7,0.2,2.6,0.2L135.4,86.4z"/>
<path fill="#DDE4F9" d="M252.7,90.9c-1.3-0.7-2.4-1.6-3.3-2.8c-0.8-1.2-1.4-2.6-1.7-4.3c-0.3-1.7-0.3-3.6,0.1-5.9l6.1-38.9l-1.2-0.1
	l-6.1,38.9c-0.4,2.2-0.4,4.2-0.1,5.9c0.3,1.7,0.9,3.1,1.7,4.3c0.8,1.2,1.8,2.1,3.2,2.8c1.3,0.7,2.9,1.2,4.6,1.5L252.7,90.9z"/>
<path fill="#DDE4F9" d="M163.1,85.7c-0.8-0.1-2.4-0.1-4.7-0.9c-4.7-1.6-7.4-5.7-9-10c-1.1-2.9-1.3-5.9-1.6-9c0-0.4-0.1-0.7-0.1-1.1
	l-0.3-56.8l-1.2-1.1l0.3,57.9c0.1,1.1,0.2,2.2,0.3,3.3c0.1,1.3,0.2,2.7,0.4,4c0.2,1.1,0.6,2.2,1,3.3c0.8,2.2,1.7,4.3,3.3,6
	c0.9,0.9,2,1.8,3.1,2.5c1.1,0.7,2.6,1.2,3.8,1.6c1.8,0.6,3.2,0.7,3.7,0.7c1.6,0.1,3.7,0,5.3-0.1L163.1,85.7z"/>
<path fill="#DDE4F9" d="M191,64.6c0.5-1.5,0.8-2.9,1.1-4.4c0.2-1.4,0.5-2.8,0.6-4.3c0.1-1.8,0.1-2.5,0.2-4.3c0-1.8,0.1-2.8-0.1-4.2
	c-0.2-1-0.8-3.7-0.8-3.7c0,1.4,0,3.1-0.1,4.9c0,1.8-0.1,3.7-0.2,5.5c-0.1,1.8-0.5,3.6-0.7,5.3c-0.2,1.7-0.6,2.9-0.6,2.9
	c-0.2,1.4-0.8,2.6-1.4,4c-0.6,1.6-1.3,3.3-2.4,4.6c-1.1,1.4-2.3,2.7-3.7,3.8c-1.2,0.9-2.4,1.8-3.7,2.6c-0.3,0.2-0.5,0.3-0.8,0.5
	l1-0.2c0.3-0.1,0.8-0.2,1.1-0.4c1.5-0.9,2.8-1.7,4.1-2.8c0.5-0.4,2.5-2.5,4.1-4.8C190.1,67.6,190.8,65.2,191,64.6z"/>
<path fill="#DDE4F9" d="M210.9,46.8c-0.5,1.2-1,2.5-1.4,3.7c-1.5,3.8-2.7,7.3-3.7,10.6c-1.2,4.3-1.9,8.3-2.1,12.2
	c-0.1,2.7,0.1,4.9,0.8,6.7c0.1,0.3,0.3,0.7,0.4,1c-0.5-1.6-0.5-3.6-0.4-5.9c0.2-3.9,0.8-8,2.1-12.2c0.9-3.3,1.7-7,3.2-10.7
	c0.4-1.1,1.2-3.2,1.7-4.4L210.9,46.8z"/>
<path fill="#DDE4F9" d="M296.9,98.1c-1.6,0.4-3.3,0.8-5.2,0.8c-3.2,0.1-5.9-0.5-8.9-1.5c-3-1-5.5-3.3-7.9-5.2
	c-1.3-1.1-2.5-2.4-3.4-3.8c-0.9-1.6-1.9-3.4-2.3-5.2c-0.2-0.7-1-4.8-0.4-9c0.6-4.3,2.6-8.6,3-9.9c1.2-3.2,2.8-5.9,4.8-8.3
	c1.9-2.4,4-4,6.5-5.4c1.2-0.6,2.2-1.4,3.5-1.8c1.4-0.4,2.7-0.6,4.2-0.6l-1-0.2c-1.4,0-2.8,0.2-4.2,0.6c-1.2,0.4-2.4,0.9-3.6,1.5
	c-2.5,1.4-4.7,3.3-6.7,5.7c-1.9,2.4-3.6,4.9-4.8,8.1c-0.3,0.9-2.3,5.5-2.9,10c-0.6,4.6,0.2,9.1,0.3,9.6c0.1,0.4,0.3,0.9,0.4,1.3
	c0.1,0.2,0.2,0.4,0.3,0.6c0.1,0.1,0.3,0.4,0.3,0.6c0.7,1.5,1.5,3,2.5,4.4c1.1,1.6,2.4,3,3.8,4.2c2.8,2.3,6.2,3.7,9.8,4.4
	c1.8,0.4,3.7,0.5,5.5,0.5c1.9,0,3.9-0.3,5.5-0.8C297.4,98.2,298.2,97.8,296.9,98.1z"/>
<g>
	<path fill="#DDE4F9" d="M171.2,45.3c-0.3-0.3-0.8-0.4-1.2-0.5c-2-0.5-4.1,0.7-5.8,2.7c1.5-1.3,3.1-2.1,4.8-1.6
		c0.4,0.1,0.7,0.3,1,0.6c1.6,1.3,3.7,5.1,3.8,12.6c0,1,0,2.2-0.1,3.4c-0.1,1.5-0.2,3-0.5,4.6c-0.3,2.1-0.8,4.2-1.4,6.3
		c-0.4,1.1-1.4,3.1-2.9,4.4c1.6-0.6,3.6-3.8,4.2-5.4c0.7-2,1.2-4.1,1.4-6.3c0.3-1.5,0.4-3.1,0.5-4.6c0.1-1.2,0.1-2.4,0.1-3.4
		C174.9,50.6,172.8,46.2,171.2,45.3z"/>
	<path fill="#939292" d="M156.9,43.3L156.9,43.3C156.9,43.3,156.9,43.3,156.9,43.3L156.9,43.3z"/>
</g>
<path fill="#DDE4F9" d="M256.9,16.9c0.1-1.3-0.1-5.2-0.1-5.2l-0.5,3L253.9,31l1.2,0.1C255.1,31.2,256.7,18.9,256.9,16.9z"/>
</svg>
