<?xml version="1.0" encoding="UTF-8"?>
<svg width="40px" height="40px" viewBox="0 0 40 40" version="1.1" xmlns="http://www.w3.org/2000/svg" xmlns:xlink="http://www.w3.org/1999/xlink">
    <!-- Generator: Sketch 48.2 (47327) - http://www.bohemiancoding.com/sketch -->
    <title>dribbble_btn</title>
    <desc>Created with Sketch.</desc>
    <defs></defs>
    <g id="Symbols" stroke="none" stroke-width="1" fill="none" fill-rule="evenodd">
        <g id="dribbble_btn">
            <g transform="translate(1.000000, 1.000000)" fill="#7DCC93" id="Oval-13-Copy">
                <circle cx="19" cy="19" r="19"></circle>
            </g>
            <path d="M25.872093,29 C27.3010372,28.1197411 28.4677039,26.9892091 29.372093,25.6084142 C30.2765039,24.2276194 30.8191395,22.7346278 31,21.1294498 C29.6796047,21.0431534 28.4767442,21 27.3914729,21 C26.3966589,21 25.2661535,21.0431534 24,21.1294498 C24.9224806,23.6839301 25.5465116,26.3074434 25.872093,29 Z M23.8504384,19.1216193 C25.0915454,19.0077949 26.4403386,18.902439 27.8994581,18.902439 C28.9393071,18.902439 29.976956,18.8536585 31,18.902439 C30.8658314,16.6910537 30.0440252,14.7235805 28.5345912,13 C27.4444478,14.577239 25.5995975,15.9187024 23,17.0243902 C23.2515723,17.5447122 23.5317969,18.3248681 23.8504384,19.1216193 Z M21.5507812,14.8352482 C24.014553,13.8891901 25.75,12.8506257 27,11.3900415 C24.8985543,9.7966805 22.7173913,8.93435885 20,8.93435885 C19.076087,8.93435885 18.4798168,8.95311416 17.5559038,9.18547598 C19.1501103,10.6958527 20.1920856,12.5779834 21.5507812,14.8352482 Z M19.3432836,31 C20.5704975,31 21.8687758,30.8681812 23.0793729,30.4002113 C22.7477012,27.5422725 22.0215622,24.6740981 21.0597015,22 C19.534,22.3342585 17.9958706,23.178273 16.4452736,24.5320334 C14.8946965,25.8857939 13.7462687,27.30641 13,28.7938719 C14.8739801,30.2646273 16.988408,31 19.3432836,31 Z M11.5314136,17 C14.154466,17 16.6439791,16.6111111 19,15.8333333 C17.8062984,13.5 16.4947675,11.5555556 15.065445,10 C13.824623,10.6913615 12.7604743,11.6506207 11.8730366,12.8777778 C10.9856178,14.1049348 10.3612723,15.4617319 10,16.9481481 C10.3455529,16.9827126 10.8560366,17 11.5314136,17 Z M11.5108696,27 C12.276087,25.3839507 13.894605,23.5761743 15.0669071,22.6672676 C16.2392091,21.7583609 18.502751,20.4575822 20,19.8281394 C19.7608696,19.2264237 19.5297261,18.4813788 19.3065217,18 C16.5645087,18.9455622 13.5992913,19.4183381 10.4108696,19.4183381 C9.78913043,19.4183381 9.32681478,19.4097456 9.02391304,19.3925501 C9.02391304,19.4613215 9.01994348,19.5472779 9.01195652,19.6504298 C9.0039887,19.7535817 9,19.8395381 9,19.9083095 C9,22.5902579 9.83695652,24.9541582 11.5108696,27 Z M8.742,13.474 C9.9033368,11.4806632 11.480684,9.9033368 13.474,8.742 C15.4673368,7.5806632 17.642684,7 20,7 C22.3573368,7 24.532684,7.5806632 26.526,8.742 C28.5193368,9.9033368 30.096684,11.4806632 31.258,13.474 C32.4193368,15.4673368 33,17.6426632 33,20 C33,22.3573368 32.4193368,24.5326632 31.258,26.526 C30.096684,28.5193368 28.5193368,30.0966632 26.526,31.258 C24.532684,32.4193368 22.3573368,33 20,33 C17.642684,33 15.4673368,32.4193368 13.474,31.258 C11.480684,30.0966632 9.9033368,28.5193368 8.742,26.526 C7.580684,24.5326632 7,22.3573368 7,20 C7,17.6426632 7.580684,15.4673368 8.742,13.474 Z" id="Page-1" fill="#FFFFFF"></path>
        </g>
    </g>
</svg>