<?xml version="1.0" encoding="UTF-8"?>
<svg width="40px" height="40px" viewBox="0 0 40 40" version="1.1" xmlns="http://www.w3.org/2000/svg" xmlns:xlink="http://www.w3.org/1999/xlink">
    <!-- Generator: Sketch 48.2 (47327) - http://www.bohemiancoding.com/sketch -->
    <title>instagram_btn</title>
    <desc>Created with Sketch.</desc>
    <defs></defs>
    <g id="Symbols" stroke="none" stroke-width="1" fill="none" fill-rule="evenodd">
        <g id="instagram_btn" fill="#7DCC93">
            <g id="Group-33" transform="translate(1.000000, 1.000000)">
                <path d="M28.4688069,22.6738357 C28.443266,23.5827209 28.3043479,24.3654586 28.0523643,25.0217373 C27.7742168,25.703557 27.3954627,26.2844586 26.916102,26.7638193 C26.4364299,27.2438029 25.8555282,27.6222455 25.1743315,27.8997701 C24.5682004,28.1526881 23.7854627,28.2916062 22.8261184,28.3165242 C21.4627905,28.3672947 20.1374627,28.3922127 18.8498233,28.3922127 C17.562184,28.3922127 16.2368561,28.3672947 14.8735282,28.3165242 C13.964643,28.2916062 13.1819053,28.1526881 12.5253151,27.8997701 C11.8441184,27.6222455 11.2629053,27.2438029 10.7835446,26.7638193 C10.3038725,26.2844586 9.92511841,25.703557 9.64728235,25.0217373 C9.39498726,24.4159177 9.25575776,23.6334914 9.23083972,22.6738357 C9.18006923,21.3105078 9.1551512,19.9851799 9.1551512,18.6975406 C9.1551512,17.4099013 9.18006923,16.0845734 9.23083972,14.7212455 C9.25575776,13.8123603 9.39498726,13.029934 9.64728235,12.3733439 C9.92511841,11.6915242 10.3038725,11.1112455 10.7835446,10.6312619 C11.2629053,10.1519013 11.8441184,9.77314716 12.5253151,9.49499962 C13.1314463,9.24301602 13.9138725,9.10409798 14.8735282,9.078557 C16.2368561,9.02840946 17.562184,9.00286847 18.8498233,9.00286847 C20.1374627,9.00286847 21.4627905,9.02840946 22.8261184,9.078557 C23.7350037,9.10409798 24.5174299,9.24301602 25.1743315,9.49499962 C25.8555282,9.77314716 26.4364299,10.1519013 26.916102,10.6312619 C27.3954627,11.1112455 27.7742168,11.6915242 28.0523643,12.3733439 C28.3043479,12.9791636 28.443266,13.7619013 28.4688069,14.7212455 C28.5189545,16.0845734 28.5444955,17.4099013 28.5444955,18.6975406 C28.5444955,19.9851799 28.5189545,21.3105078 28.4688069,22.6738357 M18.8498233,0.242622573 C8.65741349,0.242622573 0.394905296,8.50513077 0.394905296,18.6975406 C0.394905296,28.8899504 8.65741349,37.1524586 18.8498233,37.1524586 C29.0422332,37.1524586 37.3047414,28.8899504 37.3047414,18.6975406 C37.3047414,8.50513077 29.0422332,0.242622573 18.8498233,0.242622573" id="Fill-14"></path>
                <path d="M24.8521725,14.3424914 C24.637566,14.569557 24.3659594,14.6832455 24.0379758,14.6832455 C23.7096807,14.6832455 23.4318446,14.569557 23.2050905,14.3424914 C22.977402,14.1154259 22.864025,13.8379013 22.864025,13.5092947 C22.864025,13.1816226 22.977402,12.910016 23.2050905,12.695098 C23.4318446,12.4808029 23.7096807,12.3733439 24.0379758,12.3733439 C24.3659594,12.3733439 24.637566,12.4808029 24.8521725,12.695098 C25.0664676,12.910016 25.1742381,13.1816226 25.1742381,13.5092947 C25.1742381,13.8379013 25.0664676,14.1154259 24.8521725,14.3424914 M22.3905823,22.2383931 C21.4184676,23.2105078 20.2379758,23.6964095 18.8497299,23.6964095 C17.4611725,23.6964095 16.2806807,23.2105078 15.3088774,22.2383931 C14.3367627,21.2665898 13.8511725,20.0864095 13.8511725,18.6975406 C13.8511725,17.3092947 14.3367627,16.1288029 15.3088774,15.1566881 C16.2806807,14.1851963 17.4611725,13.6986718 18.8497299,13.6986718 C20.2379758,13.6986718 21.4184676,14.1851963 22.3905823,15.1566881 C23.3620741,16.1288029 23.8485987,17.3092947 23.8485987,18.6975406 C23.8485987,20.0864095 23.3620741,21.2665898 22.3905823,22.2383931 M26.3861889,12.9411636 C26.2345004,12.5378029 25.9943528,12.1715078 25.6663692,11.8432127 C25.3636151,11.5401472 24.9973201,11.3006226 24.5684184,11.1237045 C24.0379758,10.947098 23.4318446,10.8461799 22.7506479,10.820639 C21.3873201,10.7701799 20.0865987,10.7449504 18.8497299,10.7449504 C17.6380905,10.7449504 16.3249102,10.7701799 14.9114348,10.820639 C14.2043856,10.8461799 13.5982545,10.959557 13.0936643,11.1613931 C12.6893692,11.3127701 12.3233856,11.5532291 11.995402,11.8809013 C11.6926479,12.1839668 11.4521889,12.5502619 11.2758938,12.9791636 C11.0989758,13.5092947 10.9977463,14.1154259 10.9728282,14.796934 C10.9220578,16.1602619 10.8971397,17.4609832 10.8971397,18.6975406 C10.8971397,19.9094914 10.9220578,21.2223603 10.9728282,22.6358357 C10.9977463,23.3431963 11.1114348,23.949016 11.3135823,24.4536062 C11.4652709,24.8579013 11.7047955,25.2241963 12.033402,25.5518685 C12.3361561,25.854934 12.7021397,26.0950816 13.1313528,26.2713767 C13.6617955,26.4482947 14.2676151,26.5495242 14.9491233,26.5744422 C16.3124512,26.6252127 17.6125496,26.6501308 18.8497299,26.6501308 C20.0616807,26.6501308 21.3739266,26.6252127 22.7883364,26.5744422 C23.4947627,26.5495242 24.1005823,26.4361472 24.6061069,26.2336881 C25.0094676,26.0819996 25.3760741,25.842475 25.7040578,25.5141799 C26.0071233,25.2111144 26.2469594,24.8454422 26.4238774,24.4159177 C26.6001725,23.8857865 26.701402,23.2796554 26.726943,22.5981472 C26.7770905,21.2348193 26.8026315,19.9347209 26.8026315,18.6975406 C26.8026315,17.4855898 26.7770905,16.1733439 26.726943,14.758934 C26.701402,14.0525078 26.5877135,13.4466881 26.3861889,12.9411636" id="Fill-15"></path>
                <path d="M18.8498856,15.4406914 C17.9659184,15.4406914 17.2024922,15.7624455 16.5586725,16.4065767 C15.9148528,17.0500849 15.5930987,17.814134 15.5930987,18.6974783 C15.5930987,19.5814455 15.9148528,20.3448718 16.5586725,20.9886914 C17.2024922,21.6325111 17.9659184,21.9542652 18.8498856,21.9542652 C19.7332299,21.9542652 20.4972791,21.6325111 21.1407873,20.9886914 C21.7849184,20.3448718 22.1066725,19.5814455 22.1066725,18.6974783 C22.1066725,17.814134 21.7849184,17.0500849 21.1407873,16.4065767 C20.4972791,15.7624455 19.7332299,15.4406914 18.8498856,15.4406914" id="Fill-16"></path>
            </g>
        </g>
    </g>
</svg>