<?xml version="1.0" encoding="UTF-8"?>
<svg width="40px" height="40px" viewBox="0 0 40 40" version="1.1" xmlns="http://www.w3.org/2000/svg" xmlns:xlink="http://www.w3.org/1999/xlink">
    <!-- Generator: Sketch 48.2 (47327) - http://www.bohemiancoding.com/sketch -->
    <title>linkedin_btn</title>
    <desc>Created with Sketch.</desc>
    <defs></defs>
    <g id="Symbols" stroke="none" stroke-width="1" fill="none" fill-rule="evenodd">
        <g id="linkedin_btn" fill="#7DCC93">
            <path d="M30.235308,28.0030886 C30.235308,28.1207764 30.2067679,28.2047932 30.1134515,28.2984304 C30.019173,28.3923882 29.9325907,28.4177215 29.8155443,28.4177215 L26.5061772,28.4177215 C26.4359494,28.4177215 26.3391055,28.3923882 26.1983291,28.2984304 C26.1043713,28.157654 26.0665316,28.0736371 26.0665316,28.0030886 L26.0665316,21.0681688 C26.0665316,20.4819747 25.95173,20.0243713 25.7407257,19.6953586 C25.4822616,19.4138059 25.055443,19.2727089 24.4689283,19.2727089 C23.7175865,19.2727089 23.2516456,19.4962194 22.9232743,19.9416371 C22.6179916,20.3876962 22.5391055,21.0213502 22.5391055,21.8425992 L22.5391055,28.0030886 C22.5391055,28.1207764 22.4159662,28.2047932 22.3226498,28.2984304 C22.2283713,28.3923882 22.0471899,28.4177215 21.9301435,28.4177215 L18.6913249,28.4177215 C18.6207764,28.4177215 18.5835781,28.3923882 18.4428017,28.2984304 C18.3488439,28.157654 18.3703291,28.0736371 18.3703291,28.0030886 L18.3703291,16.6325907 C18.3703291,16.5623629 18.3488439,16.4850802 18.4428017,16.3443038 C18.5835781,16.2509873 18.6207764,16.2320675 18.6913249,16.2320675 L21.8243207,16.2320675 C21.9179578,16.2320675 21.9978059,16.2272574 22.0917637,16.2740759 C22.1385823,16.2974852 22.2184304,16.351038 22.2184304,16.4918143 L22.2184304,16.667865 L22.2184304,16.7384135 L22.2184304,17.0199662 C23.1804557,16.2689451 24.0924557,15.8934346 25.4537215,15.8934346 C26.9788523,15.8934346 28.1493165,16.2574008 28.9708861,16.984692 C29.815865,17.7591224 30.235308,18.8741097 30.235308,20.3290127 L30.235308,28.0030886 Z M15.9806582,14.2387511 C15.5583291,14.6614008 15.0417215,14.8724051 14.4317975,14.8724051 C13.8212321,14.8724051 13.3052658,14.6614008 12.8829367,14.2387511 C12.4602869,13.8164219 12.2492827,13.3004557 12.2492827,12.6898903 C12.2492827,12.1036962 12.4602869,11.5986329 12.8829367,11.1763038 C13.3283544,10.7308861 13.844962,10.5073755 14.4317975,10.5073755 C15.0179916,10.5073755 15.5345992,10.7308861 15.9806582,11.1763038 C16.4029873,11.5986329 16.6143122,12.1036962 16.6143122,12.6898903 C16.6143122,13.3004557 16.4029873,13.8164219 15.9806582,14.2387511 L15.9806582,14.2387511 Z M16.4462785,28.0030886 C16.4462785,28.0736371 16.4302447,28.157654 16.3366076,28.2984304 C16.1958312,28.3923882 16.1214346,28.4177215 16.0512068,28.4177215 L12.8123882,28.4177215 C12.7421603,28.4177215 12.5978565,28.3923882 12.4570802,28.2984304 C12.3628017,28.157654 12.2775021,28.0736371 12.2775021,28.0030886 L12.2775021,16.6325907 C12.2775021,16.5623629 12.3628017,16.4850802 12.4570802,16.3443038 C12.5978565,16.2509873 12.7421603,16.2320675 12.8123882,16.2320675 L16.0512068,16.2320675 C16.1214346,16.2320675 16.1958312,16.2509873 16.3366076,16.3443038 C16.4302447,16.4850802 16.4462785,16.5623629 16.4462785,16.6325907 L16.4462785,28.0030886 Z M20,1 C9.50654852,1 1,9.50654852 1,20 C1,30.4934515 9.50654852,39 20,39 C30.4931308,39 39,30.4934515 39,20 C39,9.50654852 30.4931308,1 20,1 L20,1 Z" id="Fill-13"></path>
        </g>
    </g>
</svg>