<?xml version="1.0" encoding="utf-8"?>
<!-- Generator: Adobe Illustrator 16.0.4, SVG Export Plug-In . SVG Version: 6.00 Build 0)  -->
<!DOCTYPE svg PUBLIC "-//W3C//DTD SVG 1.1//EN" "http://www.w3.org/Graphics/SVG/1.1/DTD/svg11.dtd">
<svg version="1.1" id="Layer_1" xmlns="http://www.w3.org/2000/svg" xmlns:xlink="http://www.w3.org/1999/xlink" x="0px" y="0px"
	 width="275px" height="205px" viewBox="0 0 275 205" enable-background="new 0 0 275 205" xml:space="preserve">
<g>
	<g>
		<path fill="#FFFFFF" d="M137.029,1c-0.358,0-1.552-0.013-3.068,0.08c-2.843,0.174-6.603,0.509-6.603,0.509
			C95.889,5.792,72.695,32.722,72.695,65.335c0,35.53,28.804,64.334,64.334,64.334c0.413,0,1.815,0.01,3.446-0.096
			c2.934-0.189,6.611-0.544,6.611-0.544c31.277-4.367,54.275-31.214,54.275-63.696C201.361,29.808,172.559,1,137.029,1z"/>
		<path fill="#243548" d="M137.029,1c-1.031,0-2.052,0.032-3.068,0.08c0.006,12.588,0.048,64.231,0.043,64.94
			c-0.017,13.61-11.102,24.667-24.711,24.648C95.688,90.651,84.629,79.567,84.648,65.96c0.013-13.606,11.099-24.667,24.707-24.65
			c7.661,0.008,13.432,3.526,17.95,9.02l0.053-48.741C95.889,5.792,72.695,32.722,72.695,65.335
			c0,35.53,28.804,64.334,64.334,64.334c1.155,0,2.306-0.033,3.446-0.096c-0.009-16.507-0.043-63.376-0.043-64.042
			c0.017-13.61,11.104-24.667,24.711-24.65c13.607,0.017,24.666,11.104,24.646,24.71c-0.016,13.608-11.102,24.669-24.707,24.65
			c-7.663-0.011-13.432-3.525-17.95-9.023l-0.046,47.812c31.277-4.367,54.275-31.214,54.275-63.696
			C201.361,29.808,172.559,1,137.029,1z"/>
		<path fill="#325A77" d="M165.09,84.572c10.479,0.012,19.014-8.507,19.029-18.985c0.014-10.48-8.503-19.016-18.98-19.028
			c-10.482-0.014-19.018,8.5-19.031,18.98C146.096,76.019,154.611,84.556,165.09,84.572z"/>
	</g>
	<path fill="#9FCD6C" d="M109.35,46.981c-10.479-0.01-19.017,8.506-19.033,18.984c-0.006,10.48,8.505,19.015,18.984,19.03
		c10.482,0.013,19.017-8.501,19.026-18.979C128.345,55.532,119.83,46.999,109.35,46.981z"/>
</g>
<path fill="#9FCD6C" d="M2,149.404h8.81c3.45,0,8.473,0.338,11.773,4.799c2.025,2.549,2.849,5.625,2.849,9.035
	c0,7.836-4.123,13.91-14.208,13.91H2V149.404z M7.586,172.236h3.938c5.998,0,8.322-3.937,8.322-8.922
	c0-2.176-0.563-4.498-1.874-6.226c-1.163-1.498-3.038-2.772-6.412-2.772H7.586V172.236z"/>
<path fill="#9FCD6C" d="M28.133,163.502c0-8.885,6.823-14.623,14.545-14.623c8.398,0,14.583,6.523,14.583,14.396
	s-6.147,14.397-14.62,14.397c-8.511,0-14.509-6.713-14.509-14.137L28.133,163.502L28.133,163.502z M33.719,163.275
	c0,5.061,3.636,9.485,9.036,9.485c5.622,0,8.923-4.872,8.923-9.446c0-4.65-3.301-9.523-8.961-9.523
	c-5.547,0-8.998,4.574-8.998,9.447V163.275z"/>
<path fill="#9FCD6C" d="M60.527,177.148v-27.744h7.536l7.122,19.908l7.011-19.908h7.575v27.744h-5.174l0.149-22.232l-7.76,22.232
	h-3.674l-7.798-22.232l0.149,22.232H60.527z"/>
<path fill="#325A77" d="M104.431,149.404c4.686,0,6.561,0.674,8.172,1.912c2.024,1.647,3.149,4.35,3.149,7.086
	s-1.163,5.586-2.923,7.012c-1.875,1.535-3.749,2.209-7.799,2.209h-3.412v9.525h-5.586v-27.744H104.431z M101.619,162.715h3.299
	c1.275,0,2.513-0.113,3.638-0.713c1.011-0.525,1.835-1.764,1.835-3.525c0-1.76-0.824-2.924-1.91-3.446
	c-1.126-0.601-2.4-0.714-3.787-0.714h-3.075V162.715z"/>
<path fill="#325A77" d="M118.304,149.404h15.559v4.912h-9.973v6.299h9.785v4.908h-9.785v6.713h9.973v4.912h-15.559V149.404z"/>
<path fill="#325A77" d="M138.286,149.404h8.812c3.449,0,8.473,0.338,11.772,4.799c2.022,2.549,2.849,5.625,2.849,9.035
	c0,7.836-4.125,13.91-14.211,13.91h-9.222V149.404z M143.872,172.236h3.937c6,0,8.324-3.937,8.324-8.922
	c0-2.176-0.562-4.498-1.874-6.226c-1.163-1.498-3.038-2.772-6.411-2.772h-3.976V172.236L143.872,172.236z"/>
<path fill="#325A77" d="M165.619,149.404h8.396c4.312,0,6.785,0.674,8.285,1.762c2.287,1.65,3.525,4.463,3.525,7.537
	c0,2.023-0.562,3.822-1.498,5.172c-1.201,1.762-2.776,2.549-4.577,3l6.188,10.273h-5.849l-7.462-12.898h1.088
	c1.838,0,3.824-0.111,4.984-1.012c1.089-0.9,1.765-2.361,1.765-4.049c0-1.688-0.825-3.226-2.063-4.013
	c-1.01-0.637-2.36-0.86-3.937-0.86h-3.262v22.832h-5.586L165.619,149.404L165.619,149.404z"/>
<path fill="#325A77" d="M194.788,149.404v17.059c0,1.387,0.038,2.812,0.787,4.199c0.675,1.199,1.911,2.1,3.749,2.1
	c1.876,0,3.113-0.861,3.713-1.986c0.785-1.352,0.785-2.812,0.785-4.312v-17.059h5.588v17.059c0,4.125-0.789,6.599-2.926,8.548
	c-1.688,1.612-4.047,2.663-7.123,2.663c-1.987,0-5.174-0.524-7.234-2.663c-2.55-2.437-2.925-4.834-2.925-8.548v-17.059
	L194.788,149.404L194.788,149.404z"/>
<path fill="#325A77" d="M241.128,167.85c-1.688,5.736-7.086,9.824-13.573,9.824c-8.473,0-14.545-6.713-14.545-14.436
	c0-7.387,5.735-14.359,14.51-14.359c7.985,0.039,12.521,5.924,13.608,9.973h-5.888c-0.861-1.912-3.336-5.021-7.76-5.061
	c-5.398,0-8.885,4.537-8.885,9.447c0,5.062,3.635,9.523,8.922,9.523c4.948,0,7.197-3.9,7.723-4.912H241.128L241.128,167.85z"/>
<path fill="#325A77" d="M242.928,163.502c0-8.885,6.824-14.623,14.547-14.623c8.399,0,14.584,6.523,14.584,14.396
	s-6.147,14.397-14.621,14.397c-8.512,0-14.51-6.713-14.51-14.137V163.502z M248.516,163.275c0,5.061,3.635,9.485,9.034,9.485
	c5.625,0,8.925-4.872,8.925-9.446c0-4.65-3.3-9.523-8.963-9.523c-5.548,0-8.996,4.574-8.996,9.447V163.275z"/>
<path fill="#243548" d="M15.231,199.545l-0.025-15.781h2.045v18.896h-2.045l-11.21-15.908l0.05,15.908H2.004v-18.896h2.145
	L15.231,199.545z"/>
<path fill="#243548" d="M21.04,183.764h10.47v1.863h-8.376v6.562h8.326v1.865h-8.326v6.741h8.376v1.863H21.04V183.764z"/>
<path fill="#243548" d="M33.307,183.764h2.17l4.29,16.01l4.137-16.01h1.584l4.212,16.01l4.241-16.01h2.146l-5.289,18.896h-2.067
	l-4.035-15.348l-4.035,15.348H38.54L33.307,183.764z"/>
<path fill="#243548" d="M65.708,202.66v-18.896h2.96l6.999,15.857l6.972-15.857h2.966v18.896h-1.994l0.051-16.803l-7.329,16.803
	h-1.354l-7.355-16.803l0.05,16.803H65.708z"/>
<path fill="#243548" d="M89.394,183.764h10.471v1.863h-8.377v6.562h8.326v1.865h-8.326v6.741h8.377v1.863H89.394V183.764z"/>
<path fill="#243548" d="M103.218,183.764h5.646c2.679,0,5.541,0.586,7.431,2.832c1.533,1.687,2.274,3.908,2.274,6.59
	c0,5.695-3.244,9.476-9.604,9.476h-5.746L103.218,183.764L103.218,183.764z M105.312,200.797h3.753c4.854,0,7.381-2.988,7.381-7.533
	c0-2.195-0.587-4.139-1.839-5.518c-1.199-1.277-2.961-2.119-5.542-2.119h-3.753V200.797z"/>
<path fill="#243548" d="M121.488,183.764h2.095v18.896h-2.095V183.764z"/>
<path fill="#243548" d="M128.957,202.66h-2.273l7.893-18.896h2.045l7.813,18.896h-2.3l-2.196-5.311h-8.81L128.957,202.66z
	 M135.522,186.137l-3.754,9.478h7.533L135.522,186.137z"/>
<path fill="#243548" d="M152.918,183.764h5.645c2.681,0,5.541,0.586,7.434,2.832c1.531,1.687,2.271,3.908,2.271,6.59
	c0,5.695-3.244,9.476-9.604,9.476h-5.746V183.764z M155.014,200.797h3.754c4.854,0,7.379-2.988,7.379-7.533
	c0-2.195-0.586-4.139-1.838-5.518c-1.199-1.277-2.961-2.119-5.541-2.119h-3.754V200.797z"/>
<path fill="#243548" d="M171.189,183.764h10.469v1.863h-8.376v6.562h8.325v1.865h-8.325v6.741h8.376v1.863h-10.469V183.764z"/>
<path fill="#243548" d="M186.211,197.4c0.307,3.141,2.605,3.805,3.78,3.805c1.967,0,3.778-1.506,3.778-3.6
	c0-2.656-2.272-3.244-4.469-3.959c-1.533-0.461-4.826-1.433-4.826-5.006c-0.053-3.347,2.733-5.211,5.618-5.211
	c2.351,0,5.058,1.303,5.363,4.877h-2.095c-0.229-1.226-0.844-3.091-3.346-3.091c-1.89,0-3.449,1.277-3.449,3.246
	c-0.024,2.297,1.84,2.856,4.701,3.828c1.787,0.688,4.594,1.687,4.594,5.16c0,3.09-2.32,5.541-5.846,5.541
	c-3.168,0-5.799-1.992-5.927-5.593h2.122V197.4z"/>
<path fill="#243548" d="M198.709,183.764h2.096v18.896h-2.096V183.764z"/>
<path fill="#243548" d="M220.086,188.666c-0.585-0.816-1.301-1.506-2.118-2.043c-1.228-0.844-2.706-1.328-4.392-1.328
	c-4.139,0-7.74,3.168-7.74,7.891c0,4.801,3.626,7.969,7.766,7.969c1.992,0,3.754-0.688,5.058-1.711
	c1.325-1.049,2.245-2.479,2.555-3.959h-9.399v-1.735h11.852c-0.025,1.101-0.282,2.478-0.846,3.651
	c-1.633,3.552-5.412,5.619-9.219,5.619c-5.516,0-9.883-4.242-9.883-9.834c0-5.67,4.443-9.756,9.908-9.756
	c3.83,0,7.38,2.146,8.862,5.236H220.086z"/>
<path fill="#243548" d="M239.637,199.545l-0.025-15.781h2.045v18.896h-2.045L228.4,186.752l0.052,15.908h-2.043v-18.896h2.144
	L239.637,199.545z"/>
<path fill="#243548" d="M245.443,183.764h10.471v1.863h-8.375v6.562h8.324v1.865h-8.324v6.741h8.375v1.863h-10.471V183.764z"/>
<path fill="#243548" d="M259.09,183.764h4.93c2.963,0,4.342,0.355,5.312,0.969c1.531,0.92,2.58,2.938,2.58,5.082
	c0.023,1.277-0.333,2.631-1.124,3.703c-1.125,1.533-2.479,1.892-4.214,2.068l4.699,7.074h-2.297l-5.34-8.248h0.612
	c1.329,0,3.167-0.027,4.188-0.971c0.996-0.971,1.431-2.121,1.431-3.474c0-1.403-0.69-2.887-1.865-3.651
	c-0.944-0.613-2.119-0.689-3.83-0.689h-2.965v17.033h-2.118V183.764L259.09,183.764z"/>
</svg>
