<svg xmlns="http://www.w3.org/2000/svg" viewBox="0 0 48 48" role="img" aria-hidden="true">
  <!-- Envelope: Bootstrap Icons v1.11.1 envelope-fill (MIT) -->
  <circle cx="24" cy="24" r="24" fill="#7DCC93"/>
  <g fill="#ffffff" transform="translate(12,12) scale(1.5)">
    <path d="M.05 3.555A2 2 0 0 1 2 2h12a2 2 0 0 1 1.95 1.555L8 8.414.05 3.555ZM0 4.697v7.104l5.803-3.558L0 4.697ZM6.761 8.83l-6.57 4.027A2 2 0 0 0 2 14h12a2 2 0 0 0 1.808-1.144l-6.57-4.027L8 9.586l-1.239-.757Zm3.436-.586L16 11.801V4.697l-5.803 3.546Z"/>
  </g>
</svg>
