<?xml version="1.0" encoding="UTF-8"?>
<svg width="40px" height="40px" viewBox="0 0 40 40" version="1.1" xmlns="http://www.w3.org/2000/svg" xmlns:xlink="http://www.w3.org/1999/xlink">
    <!-- Generator: Sketch 51.3 (57544) - http://www.bohemiancoding.com/sketch -->
    <title>mail_btn</title>
    <desc>Created with Sketch.</desc>
    <defs></defs>
    <g id="home-page" stroke="none" stroke-width="1" fill="none" fill-rule="evenodd">
        <g id="mail_btn" fill="#7DCC93" fill-rule="nonzero">
            <path d="M11.0424586,13.5714286 L28.9655172,13.5714286 C28.9832959,13.5714286 29.0009939,13.5717584 29.0186051,13.572412 L20.0312343,19.863836 L11.0424586,13.5714286 Z M30.3103448,15.6394385 L30.3103448,25.1428571 C30.3103448,25.8529375 29.708245,26.4285714 28.9655172,26.4285714 L11.0344828,26.4285714 C10.291755,26.4285714 9.68965517,25.8529375 9.68965517,25.1428571 L9.68965517,15.5957087 L18.4357794,21.7182531 C19.3746374,22.3754813 20.6878311,22.3754813 21.6266891,21.7182531 L30.3103448,15.6394385 Z M20,40 C8.954305,40 0,31.045695 0,20 C0,8.954305 8.954305,0 20,0 C31.045695,0 40,8.954305 40,20 C40,31.045695 31.045695,40 20,40 Z M7,14.8571429 L7,25.1428571 C7,27.2730983 8.80629946,29 11.0344828,29 L28.9655172,29 C31.1937005,29 33,27.2730983 33,25.1428571 L33,14.8571429 C33,12.7269017 31.1937005,11 28.9655172,11 L11.0344828,11 C8.80629946,11 7,12.7269017 7,14.8571429 Z" id="Combined-Shape"></path>
        </g>
    </g>
</svg>