<?xml version="1.0" encoding="UTF-8"?>
<svg width="40px" height="40px" viewBox="0 0 40 40" version="1.1" xmlns="http://www.w3.org/2000/svg" xmlns:xlink="http://www.w3.org/1999/xlink">
    <!-- Generator: Sketch 48.2 (47327) - http://www.bohemiancoding.com/sketch -->
    <title>resume_btn</title>
    <desc>Created with Sketch.</desc>
    <defs></defs>
    <g id="Symbols" stroke="none" stroke-width="1" fill="none" fill-rule="evenodd">
        <g id="resume_btn" fill="#7DCC93">
            <g id="Group-8" transform="translate(1.000000, 1.000000)">
                <path d="M13.7327432,22.8814628 L24.0494477,22.8814628 C24.3660345,22.8814628 24.6225624,22.5591257 24.6225624,22.2425389 C24.6225624,21.9259521 24.3660345,21.603615 24.0494477,21.603615 L13.7327432,21.603615 C13.4161564,21.603615 13.1596284,21.9259521 13.1596284,22.2425389 C13.1596284,22.5591257 13.4161564,22.8814628 13.7327432,22.8814628" id="Fill-4"></path>
                <path d="M13.7327432,26.0760824 L24.0494477,26.0760824 C24.3660345,26.0760824 24.6225624,25.7537453 24.6225624,25.4371585 C24.6225624,25.1205717 24.3660345,24.7982346 24.0494477,24.7982346 L13.7327432,24.7982346 C13.4161564,24.7982346 13.1596284,25.1205717 13.1596284,25.4371585 C13.1596284,25.7537453 13.4161564,26.0760824 13.7327432,26.0760824" id="Fill-6"></path>
                <path d="M11.1680706,28.6317781 L26.8217066,28.6317781 L26.8217066,9.14459857 L11.1680706,9.14459857 L11.1680706,28.6317781 Z M18.9281211,0 C8.47436738,0 0,8.47436738 0,18.9281211 C0,29.3818747 8.47436738,37.8562421 18.9281211,37.8562421 C29.3818747,37.8562421 37.8562421,29.3818747 37.8562421,18.9281211 C37.8562421,8.47436738 29.3818747,0 18.9281211,0 L18.9281211,0 Z" id="Fill-8"></path>
                <path d="M16.1916738,16.6140984 C16.2351206,16.6224044 16.2801648,16.6265574 16.32457,16.6265574 C17.1749777,16.6275158 18.025066,16.6271963 18.8754737,16.6271963 C19.7309929,16.6271963 20.586512,16.6275158 21.4420311,16.6265574 C21.4915477,16.6265574 21.5420227,16.621446 21.5905809,16.6115427 C21.6947255,16.5904582 21.7547844,16.5144262 21.7509508,16.4090038 C21.749034,16.3569315 21.7423253,16.3042203 21.7321026,16.2531063 C21.5615099,15.4026986 21.1075544,14.7474821 20.3724725,14.2880958 C20.2386179,14.2040773 20.2373401,14.2063136 20.1175418,14.3110971 C20.1076385,14.320042 20.0970963,14.3277091 20.0868735,14.3360151 C19.6671005,14.6628247 19.1949357,14.8072215 18.663351,14.7468432 C18.2646625,14.7014796 17.9138932,14.5462211 17.6164741,14.2772341 C17.554818,14.2213283 17.5120101,14.2146196 17.4407701,14.2574275 C16.8539185,14.609794 16.424881,15.0976124 16.1833678,15.7387726 C16.1070164,15.9413115 16.0654863,16.1575872 16.0191644,16.3700294 C15.9904128,16.5010088 16.0603749,16.5891803 16.1916738,16.6140984" id="Fill-10"></path>
                <path d="M18.8792434,14.3053468 C19.7545691,14.307583 20.5187222,13.5833628 20.5212778,12.6728962 C20.5238335,11.7688188 19.7788483,11.0334174 18.8913829,11.0289449 C17.9959311,11.0247919 17.2413619,11.7630685 17.2471122,12.6645902 C17.2378478,13.577293 18.0058344,14.3031106 18.8792434,14.3053468" id="Fill-11"></path>
                <path d="M13.7327432,19.3673813 L24.0494477,19.3673813 C24.3660345,19.3673813 24.6225624,19.2047751 24.6225624,18.8881883 C24.6225624,18.5716015 24.3660345,18.4089954 24.0494477,18.4089954 L13.7327432,18.4089954 C13.4161564,18.4089954 13.1596284,18.5716015 13.1596284,18.8881883 C13.1596284,19.2047751 13.4161564,19.3673813 13.7327432,19.3673813" id="Fill-12"></path>
            </g>
        </g>
    </g>
</svg>